<svg width="450" height="100" viewBox="0 0 450 100" fill="none" xmlns="http://www.w3.org/2000/svg">
<rect width="450" height="100" rx="21" fill="black"/>
<rect width="450" height="100" rx="21" stroke="black"/>
<path d="M63.4524 61.3835C62.4155 61.3835 61.4744 61.1882 60.6293 60.7976C59.7841 60.3999 59.1129 59.8281 58.6158 59.0824C58.1186 58.3295 57.87 57.4205 57.87 56.3551C57.87 55.4176 58.0547 54.6577 58.424 54.0753C58.7933 53.4858 59.2869 53.0241 59.9048 52.6903C60.5227 52.3565 61.2045 52.108 61.9503 51.9446C62.7031 51.7741 63.4595 51.6392 64.2195 51.5398C65.2138 51.4119 66.0199 51.3161 66.6378 51.2521C67.2628 51.1811 67.7173 51.0639 68.0014 50.9006C68.2926 50.7372 68.4382 50.4531 68.4382 50.0483V49.9631C68.4382 48.9119 68.1506 48.0952 67.5753 47.5128C67.0071 46.9304 66.1442 46.6392 64.9865 46.6392C63.7862 46.6392 62.8452 46.902 62.1634 47.4276C61.4815 47.9531 61.0021 48.5142 60.7251 49.1108L58.3388 48.2585C58.7649 47.2642 59.3331 46.4901 60.0433 45.9361C60.7607 45.375 61.5419 44.9844 62.3871 44.7642C63.2393 44.5369 64.0774 44.4233 64.9013 44.4233C65.4268 44.4233 66.0305 44.4872 66.7124 44.6151C67.4013 44.7358 68.0653 44.9879 68.7045 45.3714C69.3509 45.755 69.8871 46.3338 70.3132 47.108C70.7393 47.8821 70.9524 48.919 70.9524 50.2188V61H68.4382V58.7841H68.3104C68.1399 59.1392 67.8558 59.5192 67.4581 59.924C67.0604 60.3288 66.5313 60.6733 65.8707 60.9574C65.2102 61.2415 64.4041 61.3835 63.4524 61.3835ZM63.8359 59.125C64.8303 59.125 65.6683 58.9297 66.3501 58.5391C67.0391 58.1484 67.5575 57.6442 67.9055 57.0263C68.2607 56.4084 68.4382 55.7585 68.4382 55.0767V52.7756C68.3317 52.9034 68.0973 53.0206 67.7351 53.1271C67.38 53.2266 66.968 53.3153 66.4993 53.3935C66.0376 53.4645 65.5866 53.5284 65.1463 53.5852C64.7131 53.6349 64.3615 53.6776 64.0916 53.7131C63.4382 53.7983 62.8274 53.9368 62.2592 54.1286C61.6982 54.3132 61.2436 54.5937 60.8956 54.9702C60.5547 55.3395 60.3842 55.8437 60.3842 56.483C60.3842 57.3565 60.7074 58.017 61.3537 58.4645C62.0071 58.9048 62.8345 59.125 63.8359 59.125ZM79.2488 61L74.263 44.6364H76.905L80.4419 57.1648H80.6124L84.1067 44.6364H86.7914L90.2431 57.1222H90.4135L93.9505 44.6364H96.5925L91.6067 61H89.1351L85.5556 48.429H85.2999L81.7203 61H79.2488ZM104.732 61.3835C103.695 61.3835 102.754 61.1882 101.909 60.7976C101.063 60.3999 100.392 59.8281 99.8951 59.0824C99.3979 58.3295 99.1493 57.4205 99.1493 56.3551C99.1493 55.4176 99.334 54.6577 99.7033 54.0753C100.073 53.4858 100.566 53.0241 101.184 52.6903C101.802 52.3565 102.484 52.108 103.23 51.9446C103.982 51.7741 104.739 51.6392 105.499 51.5398C106.493 51.4119 107.299 51.3161 107.917 51.2521C108.542 51.1811 108.997 51.0639 109.281 50.9006C109.572 50.7372 109.718 50.4531 109.718 50.0483V49.9631C109.718 48.9119 109.43 48.0952 108.855 47.5128C108.286 46.9304 107.423 46.6392 106.266 46.6392C105.066 46.6392 104.124 46.902 103.443 47.4276C102.761 47.9531 102.281 48.5142 102.004 49.1108L99.6181 48.2585C100.044 47.2642 100.612 46.4901 101.323 45.9361C102.04 45.375 102.821 44.9844 103.666 44.7642C104.519 44.5369 105.357 44.4233 106.181 44.4233C106.706 44.4233 107.31 44.4872 107.992 44.6151C108.681 44.7358 109.345 44.9879 109.984 45.3714C110.63 45.755 111.166 46.3338 111.593 47.108C112.019 47.8821 112.232 48.919 112.232 50.2188V61H109.718V58.7841H109.59C109.419 59.1392 109.135 59.5192 108.737 59.924C108.34 60.3288 107.811 60.6733 107.15 60.9574C106.49 61.2415 105.683 61.3835 104.732 61.3835ZM105.115 59.125C106.11 59.125 106.948 58.9297 107.629 58.5391C108.318 58.1484 108.837 57.6442 109.185 57.0263C109.54 56.4084 109.718 55.7585 109.718 55.0767V52.7756C109.611 52.9034 109.377 53.0206 109.014 53.1271C108.659 53.2266 108.247 53.3153 107.779 53.3935C107.317 53.4645 106.866 53.5284 106.426 53.5852C105.992 53.6349 105.641 53.6776 105.371 53.7131C104.718 53.7983 104.107 53.9368 103.539 54.1286C102.977 54.3132 102.523 54.5937 102.175 54.9702C101.834 55.3395 101.664 55.8437 101.664 56.483C101.664 57.3565 101.987 58.017 102.633 58.4645C103.286 58.9048 104.114 59.125 105.115 59.125ZM116.821 61V44.6364H119.335V61H116.821ZM118.099 41.9091C117.609 41.9091 117.186 41.7422 116.831 41.4084C116.483 41.0746 116.309 40.6733 116.309 40.2045C116.309 39.7358 116.483 39.3345 116.831 39.0007C117.186 38.6669 117.609 38.5 118.099 38.5C118.589 38.5 119.008 38.6669 119.356 39.0007C119.711 39.3345 119.889 39.7358 119.889 40.2045C119.889 40.6733 119.711 41.0746 119.356 41.4084C119.008 41.7422 118.589 41.9091 118.099 41.9091ZM131.056 44.6364V46.767H122.576V44.6364H131.056ZM125.048 40.7159H127.562V56.3125C127.562 57.0227 127.665 57.5554 127.871 57.9105C128.084 58.2585 128.354 58.4929 128.681 58.6136C129.014 58.7273 129.366 58.7841 129.735 58.7841C130.012 58.7841 130.24 58.7699 130.417 58.7415C130.595 58.706 130.737 58.6776 130.843 58.6562L131.355 60.9148C131.184 60.9787 130.946 61.0426 130.641 61.1065C130.335 61.1776 129.948 61.2131 129.48 61.2131C128.769 61.2131 128.073 61.0604 127.392 60.755C126.717 60.4496 126.156 59.9844 125.708 59.3594C125.268 58.7344 125.048 57.946 125.048 56.9943V40.7159Z" fill="#9873A2"/>
<path d="M156.007 61.1705C155.481 61.1705 155.03 60.9822 154.654 60.6058C154.277 60.2294 154.089 59.7784 154.089 59.2528C154.089 58.7273 154.277 58.2763 154.654 57.8999C155.03 57.5234 155.481 57.3352 156.007 57.3352C156.532 57.3352 156.983 57.5234 157.36 57.8999C157.736 58.2763 157.924 58.7273 157.924 59.2528C157.924 59.6009 157.835 59.9205 157.658 60.2116C157.487 60.5028 157.257 60.7372 156.965 60.9148C156.681 61.0852 156.362 61.1705 156.007 61.1705ZM298.829 61.1705C298.303 61.1705 297.852 60.9822 297.476 60.6058C297.099 60.2294 296.911 59.7784 296.911 59.2528C296.911 58.7273 297.099 58.2763 297.476 57.8999C297.852 57.5234 298.303 57.3352 298.829 57.3352C299.354 57.3352 299.805 57.5234 300.182 57.8999C300.558 58.2763 300.746 58.7273 300.746 59.2528C300.746 59.6009 300.658 59.9205 300.48 60.2116C300.31 60.5028 300.079 60.7372 299.788 60.9148C299.504 61.0852 299.184 61.1705 298.829 61.1705ZM390.307 58.017L390.137 59.1676C390.016 59.9773 389.831 60.8438 389.583 61.767C389.341 62.6903 389.089 63.5604 388.826 64.3771C388.563 65.1939 388.347 65.8438 388.176 66.3267H386.259C386.351 65.8722 386.472 65.272 386.621 64.5263C386.77 63.7805 386.919 62.946 387.068 62.0227C387.225 61.1065 387.352 60.169 387.452 59.2102L387.58 58.017H390.307ZM388.773 49.0256C388.247 49.0256 387.796 48.8374 387.42 48.4609C387.044 48.0845 386.855 47.6335 386.855 47.108C386.855 46.5824 387.044 46.1314 387.42 45.755C387.796 45.3786 388.247 45.1903 388.773 45.1903C389.298 45.1903 389.749 45.3786 390.126 45.755C390.502 46.1314 390.691 46.5824 390.691 47.108C390.691 47.456 390.602 47.7756 390.424 48.0668C390.254 48.358 390.023 48.5923 389.732 48.7699C389.448 48.9403 389.128 49.0256 388.773 49.0256Z" fill="white"/>
<path d="M150.392 44.6364V46.767H141.912V44.6364H150.392ZM144.384 40.7159H146.898V56.3125C146.898 57.0227 147.001 57.5554 147.207 57.9105C147.42 58.2585 147.69 58.4929 148.017 58.6136C148.35 58.7273 148.702 58.7841 149.071 58.7841C149.348 58.7841 149.575 58.7699 149.753 58.7415C149.931 58.706 150.073 58.6776 150.179 58.6562L150.691 60.9148C150.52 60.9787 150.282 61.0426 149.977 61.1065C149.671 61.1776 149.284 61.2131 148.816 61.2131C148.105 61.2131 147.409 61.0604 146.727 60.755C146.053 60.4496 145.492 59.9844 145.044 59.3594C144.604 58.7344 144.384 57.946 144.384 56.9943V40.7159ZM271.801 44.6364L275.722 51.3267L279.642 44.6364H282.54L277.256 52.8182L282.54 61H279.642L275.722 54.6506L271.801 61H268.903L274.102 52.8182L268.903 44.6364H271.801ZM360.608 67.1364C360.182 67.1364 359.802 67.1009 359.468 67.0298C359.134 66.9659 358.903 66.902 358.776 66.8381L359.415 64.6222C360.026 64.7784 360.565 64.8352 361.034 64.7926C361.503 64.75 361.918 64.5405 362.281 64.1641C362.65 63.7947 362.987 63.1946 363.293 62.3636L363.761 61.0852L357.71 44.6364H360.438L364.955 57.6761H365.125L369.642 44.6364H372.369L365.423 63.3864C365.111 64.2315 364.724 64.9311 364.262 65.4851C363.8 66.0462 363.264 66.4616 362.653 66.7315C362.05 67.0014 361.368 67.1364 360.608 67.1364Z" fill="#1274CC"/>
<path d="M169.297 61.3409C167.72 61.3409 166.36 60.9929 165.216 60.2969C164.08 59.5938 163.203 58.6136 162.585 57.3565C161.974 56.0923 161.669 54.6222 161.669 52.946C161.669 51.2699 161.974 49.7926 162.585 48.5142C163.203 47.2287 164.062 46.2273 165.163 45.5099C166.271 44.7855 167.564 44.4233 169.041 44.4233C169.893 44.4233 170.735 44.5653 171.566 44.8494C172.397 45.1335 173.153 45.5952 173.835 46.2344C174.517 46.8665 175.06 47.7045 175.465 48.7486C175.87 49.7926 176.072 51.0781 176.072 52.6051V53.6705H163.459V51.4972H173.515C173.515 50.5739 173.331 49.75 172.961 49.0256C172.599 48.3011 172.081 47.7294 171.406 47.3104C170.738 46.8913 169.95 46.6818 169.041 46.6818C168.04 46.6818 167.173 46.9304 166.442 47.4276C165.717 47.9176 165.16 48.5568 164.769 49.3452C164.378 50.1335 164.183 50.9787 164.183 51.8807V53.3295C164.183 54.5653 164.396 55.6129 164.822 56.4723C165.256 57.3246 165.856 57.9744 166.623 58.4219C167.39 58.8622 168.281 59.0824 169.297 59.0824C169.957 59.0824 170.554 58.9901 171.086 58.8054C171.626 58.6136 172.091 58.3295 172.482 57.9531C172.873 57.5696 173.175 57.0937 173.388 56.5256L175.817 57.2074C175.561 58.0312 175.131 58.7557 174.528 59.3807C173.924 59.9986 173.178 60.4815 172.29 60.8295C171.403 61.1705 170.405 61.3409 169.297 61.3409ZM181.332 44.6364L185.253 51.3267L189.173 44.6364H192.071L186.787 52.8182L192.071 61H189.173L185.253 54.6506L181.332 61H178.435L183.634 52.8182L178.435 44.6364H181.332ZM195.659 67.1364V44.6364H198.088V47.2358H198.386C198.57 46.9517 198.826 46.5895 199.153 46.1491C199.487 45.7017 199.963 45.304 200.58 44.956C201.205 44.6009 202.051 44.4233 203.116 44.4233C204.494 44.4233 205.708 44.7678 206.759 45.4567C207.811 46.1456 208.631 47.1222 209.22 48.3864C209.81 49.6506 210.105 51.142 210.105 52.8608C210.105 54.5938 209.81 56.0959 209.22 57.3672C208.631 58.6314 207.814 59.6115 206.77 60.3075C205.726 60.9964 204.522 61.3409 203.159 61.3409C202.107 61.3409 201.266 61.1669 200.634 60.8189C200.002 60.4638 199.515 60.0625 199.174 59.6151C198.833 59.1605 198.57 58.7841 198.386 58.4858H198.173V67.1364H195.659ZM198.13 52.8182C198.13 54.054 198.311 55.1442 198.673 56.0888C199.036 57.0263 199.565 57.7614 200.261 58.294C200.957 58.8196 201.809 59.0824 202.818 59.0824C203.869 59.0824 204.746 58.8054 205.449 58.2514C206.159 57.6903 206.692 56.9375 207.047 55.9929C207.409 55.0412 207.59 53.983 207.59 52.8182C207.59 51.6676 207.413 50.6307 207.058 49.7074C206.71 48.777 206.181 48.0419 205.47 47.5021C204.767 46.9553 203.883 46.6818 202.818 46.6818C201.795 46.6818 200.936 46.9411 200.24 47.4595C199.544 47.9709 199.018 48.6882 198.663 49.6115C198.308 50.5277 198.13 51.5966 198.13 52.8182ZM220.801 61.3409C219.224 61.3409 217.864 60.9929 216.72 60.2969C215.584 59.5938 214.707 58.6136 214.089 57.3565C213.478 56.0923 213.173 54.6222 213.173 52.946C213.173 51.2699 213.478 49.7926 214.089 48.5142C214.707 47.2287 215.566 46.2273 216.667 45.5099C217.775 44.7855 219.068 44.4233 220.545 44.4233C221.397 44.4233 222.239 44.5653 223.07 44.8494C223.901 45.1335 224.657 45.5952 225.339 46.2344C226.021 46.8665 226.564 47.7045 226.969 48.7486C227.374 49.7926 227.576 51.0781 227.576 52.6051V53.6705H214.963V51.4972H225.019C225.019 50.5739 224.835 49.75 224.465 49.0256C224.103 48.3011 223.585 47.7294 222.91 47.3104C222.242 46.8913 221.454 46.6818 220.545 46.6818C219.544 46.6818 218.677 46.9304 217.945 47.4276C217.221 47.9176 216.664 48.5568 216.273 49.3452C215.882 50.1335 215.687 50.9787 215.687 51.8807V53.3295C215.687 54.5653 215.9 55.6129 216.326 56.4723C216.759 57.3246 217.36 57.9744 218.127 58.4219C218.894 58.8622 219.785 59.0824 220.801 59.0824C221.461 59.0824 222.058 58.9901 222.59 58.8054C223.13 58.6136 223.595 58.3295 223.986 57.9531C224.377 57.5696 224.678 57.0937 224.892 56.5256L227.32 57.2074C227.065 58.0312 226.635 58.7557 226.031 59.3807C225.428 59.9986 224.682 60.4815 223.794 60.8295C222.906 61.1705 221.909 61.3409 220.801 61.3409ZM238.048 61.3409C236.514 61.3409 235.193 60.9787 234.085 60.2543C232.977 59.5298 232.125 58.532 231.529 57.2607C230.932 55.9893 230.634 54.5369 230.634 52.9034C230.634 51.2415 230.939 49.7749 231.55 48.5036C232.168 47.2251 233.027 46.2273 234.128 45.5099C235.236 44.7855 236.529 44.4233 238.006 44.4233C239.156 44.4233 240.193 44.6364 241.117 45.0625C242.04 45.4886 242.796 46.0852 243.386 46.8523C243.975 47.6193 244.341 48.5142 244.483 49.5369H241.969C241.777 48.7912 241.351 48.1307 240.691 47.5554C240.037 46.973 239.156 46.6818 238.048 46.6818C237.068 46.6818 236.209 46.9375 235.47 47.4489C234.739 47.9531 234.167 48.6669 233.755 49.5902C233.35 50.5064 233.148 51.5824 233.148 52.8182C233.148 54.0824 233.347 55.1832 233.744 56.1207C234.149 57.0582 234.718 57.7862 235.449 58.3047C236.188 58.8232 237.054 59.0824 238.048 59.0824C238.702 59.0824 239.295 58.9688 239.828 58.7415C240.36 58.5142 240.811 58.1875 241.181 57.7614C241.55 57.3352 241.813 56.8239 241.969 56.2273H244.483C244.341 57.1932 243.99 58.0632 243.428 58.8374C242.874 59.6044 242.139 60.2152 241.223 60.6697C240.314 61.1172 239.256 61.3409 238.048 61.3409ZM255.275 44.6364V46.767H246.795V44.6364H255.275ZM249.267 40.7159H251.781V56.3125C251.781 57.0227 251.884 57.5554 252.09 57.9105C252.303 58.2585 252.573 58.4929 252.899 58.6136C253.233 58.7273 253.585 58.7841 253.954 58.7841C254.231 58.7841 254.458 58.7699 254.636 58.7415C254.813 58.706 254.955 58.6776 255.062 58.6562L255.573 60.9148C255.403 60.9787 255.165 61.0426 254.86 61.1065C254.554 61.1776 254.167 61.2131 253.698 61.2131C252.988 61.2131 252.292 61.0604 251.61 60.755C250.936 60.4496 250.374 59.9844 249.927 59.3594C249.487 58.7344 249.267 57.946 249.267 56.9943V40.7159ZM312.119 61.3409C310.542 61.3409 309.182 60.9929 308.039 60.2969C306.902 59.5938 306.025 58.6136 305.407 57.3565C304.797 56.0923 304.491 54.6222 304.491 52.946C304.491 51.2699 304.797 49.7926 305.407 48.5142C306.025 47.2287 306.885 46.2273 307.985 45.5099C309.093 44.7855 310.386 44.4233 311.863 44.4233C312.716 44.4233 313.557 44.5653 314.388 44.8494C315.219 45.1335 315.975 45.5952 316.657 46.2344C317.339 46.8665 317.882 47.7045 318.287 48.7486C318.692 49.7926 318.895 51.0781 318.895 52.6051V53.6705H306.281V51.4972H316.338C316.338 50.5739 316.153 49.75 315.784 49.0256C315.422 48.3011 314.903 47.7294 314.228 47.3104C313.561 46.8913 312.772 46.6818 311.863 46.6818C310.862 46.6818 309.995 46.9304 309.264 47.4276C308.539 47.9176 307.982 48.5568 307.591 49.3452C307.201 50.1335 307.005 50.9787 307.005 51.8807V53.3295C307.005 54.5653 307.218 55.6129 307.645 56.4723C308.078 57.3246 308.678 57.9744 309.445 58.4219C310.212 58.8622 311.103 59.0824 312.119 59.0824C312.779 59.0824 313.376 58.9901 313.909 58.8054C314.449 58.6136 314.914 58.3295 315.304 57.9531C315.695 57.5696 315.997 57.0937 316.21 56.5256L318.639 57.2074C318.383 58.0312 317.953 58.7557 317.35 59.3807C316.746 59.9986 316 60.4815 315.113 60.8295C314.225 61.1705 313.227 61.3409 312.119 61.3409ZM333.884 67.1364V58.4858H333.671C333.486 58.7841 333.223 59.1605 332.882 59.6151C332.542 60.0625 332.055 60.4638 331.423 60.8189C330.791 61.1669 329.949 61.3409 328.898 61.3409C327.534 61.3409 326.331 60.9964 325.287 60.3075C324.243 59.6115 323.426 58.6314 322.836 57.3672C322.247 56.0959 321.952 54.5938 321.952 52.8608C321.952 51.142 322.247 49.6506 322.836 48.3864C323.426 47.1222 324.246 46.1456 325.297 45.4567C326.348 44.7678 327.563 44.4233 328.941 44.4233C330.006 44.4233 330.848 44.6009 331.466 44.956C332.091 45.304 332.566 45.7017 332.893 46.1491C333.227 46.5895 333.486 46.9517 333.671 47.2358H333.969V44.6364H336.398V67.1364H333.884ZM329.239 59.0824C330.248 59.0824 331.1 58.8196 331.796 58.294C332.492 57.7614 333.021 57.0263 333.383 56.0888C333.745 55.1442 333.926 54.054 333.926 52.8182C333.926 51.5966 333.749 50.5277 333.394 49.6115C333.039 48.6882 332.513 47.9709 331.817 47.4595C331.121 46.9411 330.262 46.6818 329.239 46.6818C328.174 46.6818 327.286 46.9553 326.576 47.5021C325.873 48.0419 325.343 48.777 324.988 49.7074C324.64 50.6307 324.466 51.6676 324.466 52.8182C324.466 53.983 324.644 55.0412 324.999 55.9929C325.361 56.9375 325.894 57.6903 326.597 58.2514C327.307 58.8054 328.188 59.0824 329.239 59.0824ZM343.515 39.1818V61H341V39.1818H343.515Z" fill="#CE6700"/>
<path d="M259.952 51.7955C259.952 49.1108 260.3 46.6428 260.996 44.3913C261.699 42.1328 262.7 40.0554 264 38.1591H266.216C265.705 38.8622 265.225 39.7287 264.778 40.7585C264.338 41.7812 263.95 42.907 263.617 44.1357C263.283 45.3572 263.02 46.6214 262.828 47.9283C262.644 49.2351 262.551 50.5241 262.551 51.7955C262.551 53.4858 262.715 55.201 263.041 56.9411C263.368 58.6811 263.808 60.2969 264.362 61.7884C264.916 63.2798 265.534 64.4943 266.216 65.4318H264C262.7 63.5355 261.699 61.4616 260.996 59.2102C260.3 56.9517 259.952 54.4801 259.952 51.7955ZM291.497 51.7955C291.497 54.4801 291.145 56.9517 290.442 59.2102C289.746 61.4616 288.748 63.5355 287.448 65.4318H285.232C285.744 64.7287 286.22 63.8622 286.66 62.8324C287.107 61.8097 287.498 60.6875 287.832 59.4659C288.166 58.2372 288.425 56.9695 288.61 55.6626C288.801 54.3487 288.897 53.0597 288.897 51.7955C288.897 50.1051 288.734 48.3899 288.407 46.6499C288.08 44.9098 287.64 43.294 287.086 41.8026C286.532 40.3111 285.914 39.0966 285.232 38.1591H287.448C288.748 40.0554 289.746 42.1328 290.442 44.3913C291.145 46.6428 291.497 49.1108 291.497 51.7955ZM349.014 51.7955C349.014 49.1108 349.362 46.6428 350.058 44.3913C350.762 42.1328 351.763 40.0554 353.063 38.1591H355.279C354.767 38.8622 354.288 39.7287 353.84 40.7585C353.4 41.7812 353.013 42.907 352.679 44.1357C352.345 45.3572 352.083 46.6214 351.891 47.9283C351.706 49.2351 351.614 50.5241 351.614 51.7955C351.614 53.4858 351.777 55.201 352.104 56.9411C352.431 58.6811 352.871 60.2969 353.425 61.7884C353.979 63.2798 354.597 64.4943 355.279 65.4318H353.063C351.763 63.5355 350.762 61.4616 350.058 59.2102C349.362 56.9517 349.014 54.4801 349.014 51.7955ZM381.057 51.7955C381.057 54.4801 380.706 56.9517 380.002 59.2102C379.306 61.4616 378.309 63.5355 377.009 65.4318H374.793C375.304 64.7287 375.78 63.8622 376.221 62.8324C376.668 61.8097 377.059 60.6875 377.392 59.4659C377.726 58.2372 377.985 56.9695 378.17 55.6626C378.362 54.3487 378.458 53.0597 378.458 51.7955C378.458 50.1051 378.294 48.3899 377.968 46.6499C377.641 44.9098 377.201 43.294 376.647 41.8026C376.093 40.3111 375.475 39.0966 374.793 38.1591H377.009C378.309 40.0554 379.306 42.1328 380.002 44.3913C380.706 46.6428 381.057 49.1108 381.057 51.7955Z" fill="#FFD602"/>
</svg>
