<svg width="382" height="96" fill="none" xmlns="http://www.w3.org/2000/svg">
  <path fill="#fff" d="M0 0h382v96H0z"/>
  <path d="m159.647 41.328 4.726 12.313h-2.891l-.975-2.746h-4.726l-.976 2.746H152l4.756-12.313h2.891Zm.195 7.529-1.607-4.485h-.049l-1.655 4.5 3.311-.015Zm14.516 4.784-2.143-8.383h-.049l-2.095 8.383h-2.826l-3.362-12.313h2.775l1.982 8.383h.048l2.193-8.383h2.645l2.143 8.477h.049l2.094-8.477h2.744l-3.41 12.313h-2.788Zm9.595-3.044c.146.285.341.519.633.711.244.19.533.332.876.38.343.047.682.142 1.072.142.244 0 .533 0 .762-.047.229-.048.534-.095.762-.238.244-.094.439-.284.633-.474.146-.19.244-.474.244-.74 0-.333-.098-.616-.342-.806a2.427 2.427 0 0 0-.876-.518c-.342-.143-.762-.237-1.22-.38l-1.364-.332a6.513 6.513 0 0 1-1.365-.427c-.439-.19-.827-.38-1.219-.662a4.35 4.35 0 0 1-.877-.993 3.228 3.228 0 0 1-.341-1.422c0-.615.146-1.185.439-1.657a4.28 4.28 0 0 1 1.072-1.185c.439-.334.975-.52 1.524-.712.549-.193 1.121-.237 1.704-.237.682 0 1.316.095 1.9.237.584.142 1.169.38 1.607.712a3.46 3.46 0 0 1 1.12 1.23c.293.518.439 1.09.439 1.8h-2.678c0-.38-.098-.663-.244-.9-.147-.238-.293-.427-.534-.568a2.181 2.181 0 0 0-.779-.285c-.292-.047-.584-.095-.925-.095-.244 0-.439 0-.682.048-.221.05-.434.13-.632.237a.947.947 0 0 0-.439.427c-.098.19-.195.38-.195.662 0 .237.048.427.146.568.098.14.293.285.534.427.292.142.681.237 1.169.38l1.899.474.976.237c.439.142.828.332 1.265.567.391.285.763.615 1.072 1.042.309.427.439.993.439 1.705 0 .567-.098 1.09-.341 1.562-.244.473-.534.9-1.022 1.23-.488.33-.975.615-1.655.805-.633.19-1.414.285-2.29.285-.682 0-1.365-.095-2.046-.238-.633-.19-1.22-.426-1.753-.804-.488-.38-.926-.805-1.22-1.374-.294-.57-.439-1.186-.439-1.99h2.679l.488 1.23.024-.014Zm17.098-9.284v10.025h6.138v2.274h-8.964V41.298l2.826.015Zm7.794 4.69c.243-.38.583-.663.975-.9.392-.238.877-.38 1.365-.475a8.138 8.138 0 0 1 1.51-.142c.439 0 .926.047 1.414.095a3.85 3.85 0 0 1 1.315.38c.39.189.732.426.976.74.244.315.39.742.39 1.28v4.639l.049 1.137c.049.379.146.662.244.804h-2.581c-.049-.142-.098-.284-.098-.427 0-.142-.049-.284-.049-.426-.401.38-.883.671-1.413.852a6.627 6.627 0 0 1-1.655.237 5.04 5.04 0 0 1-1.218-.142 2.643 2.643 0 0 1-.976-.475 2.758 2.758 0 0 1-.681-.804 2.85 2.85 0 0 1-.244-1.186c0-.519.097-.9.292-1.23.195-.33.439-.568.732-.805.293-.19.633-.332.976-.427.343-.095.732-.19 1.12-.237l1.121-.142.975-.143c.293-.047.488-.19.682-.284a.782.782 0 0 0 .244-.568c0-.285-.049-.474-.147-.615-.097-.14-.195-.285-.341-.38-.146-.094-.342-.142-.534-.19-.192-.047-.39-.047-.632-.047-.488 0-.877.095-1.17.332-.292.19-.439.568-.487 1.042h-2.531c0-.662.146-1.137.39-1.515l-.013.021Zm4.969 3.457c-.146.048-.341.095-.533.142-.192.048-.391.048-.584.095-.198.009-.394.04-.584.095l-.534.142c-.176.05-.341.13-.487.238-.147.094-.244.237-.342.379-.097.142-.146.332-.146.568a1.1 1.1 0 0 0 .146.567c.098.143.195.285.342.332.146.048.292.143.487.19.196.047.391.047.584.047.488 0 .877-.094 1.17-.237.292-.142.487-.332.583-.567.147-.237.196-.475.244-.663.049-.188.049-.427.049-.567v-.9c-.097 0-.244.095-.39.142l-.005-.003Zm7.306-4.784v1.185h.048a3.774 3.774 0 0 1 1.218-1.089 3.636 3.636 0 0 1 1.607-.38c.586 0 1.121.095 1.607.333.486.237.828.615 1.072 1.136.292-.379.632-.74 1.12-1.041.5-.291 1.074-.44 1.656-.427.488 0 .925.047 1.364.19.39.094.762.284 1.072.567.318.263.554.607.681.993.165.473.247.968.244 1.467v5.968h-2.533v-5.056c0-.285 0-.568-.049-.852 0-.285-.098-.475-.195-.712-.098-.19-.244-.332-.488-.474a1.928 1.928 0 0 0-.828-.19c-.34 0-.633.048-.877.19-.195.142-.39.285-.533.519-.143.234-.195.474-.244.711-.049.237-.049.519-.049.805v4.973h-2.533v-5.825a1.866 1.866 0 0 0-.147-.71 1.164 1.164 0 0 0-.439-.52c-.195-.143-.488-.19-.925-.19-.098 0-.293.047-.488.095a1.667 1.667 0 0 0-.584.284c-.195.143-.341.332-.488.615-.146.284-.195.615-.195 1.042v5.163h-2.534V44.55h2.437l.003.126Zm16.159-3.35v4.5h.049c.29-.465.738-.817 1.267-.995.533-.19 1.071-.332 1.655-.332.439 0 .926.095 1.365.285.439.19.876.474 1.219.852.343.378.633.852.877 1.482.244.568.341 1.28.341 2.132 0 .804-.097 1.514-.341 2.131a4.972 4.972 0 0 1-.877 1.482 3.538 3.538 0 0 1-1.219.852c-.43.185-.895.282-1.365.285-.681 0-1.265-.095-1.802-.332-.533-.19-.925-.568-1.219-1.042h-.049v1.137h-2.371V41.408h2.485l-.015-.082Zm4.043 6.773c-.098-.331-.195-.662-.39-.9-.195-.284-.391-.473-.682-.614a1.96 1.96 0 0 0-.975-.237c-.34 0-.675.08-.975.237-.292.142-.487.38-.681.615-.195.284-.293.567-.39.9a3.918 3.918 0 0 0-.147 1.089c.001.368.05.734.147 1.09.097.331.195.662.39.899.195.285.39.474.681.615a2.11 2.11 0 0 0 1.949 0c.261-.166.491-.374.681-.615.195-.285.293-.568.39-.9.098-.332.147-.711.147-1.09a3.937 3.937 0 0 0-.147-1.089h.002Zm10.763 4.403c-.293.474-.682.852-1.17 1.041-.487.19-1.021.333-1.606.333a4.358 4.358 0 0 1-1.802-.38c-.537-.237-.926-.615-1.266-1.042-.34-.427-.584-.949-.762-1.515-.178-.566-.244-1.185-.244-1.799 0-.614.098-1.186.244-1.752a5.408 5.408 0 0 1 .762-1.482c.324-.44.763-.741 1.266-1.042.488-.237 1.12-.38 1.753-.38a3.544 3.544 0 0 1 1.558.333c.488.237.876.567 1.169.993h.049v-4.5h2.534v12.313h-2.388l-.097-1.121Zm-.098-4.405c-.049-.332-.195-.616-.341-.9-.196-.237-.391-.474-.682-.615a2.323 2.323 0 0 0-1.021-.237c-.439 0-.762.095-1.022.237-.292.142-.487.38-.681.615-.195.284-.293.568-.39.9-.098.332-.098.711-.098 1.041.001.353.05.703.146 1.043.098.332.196.662.391.9.176.265.408.49.681.662.305.188.633.237 1.022.237.388 0 .762-.095 1.021-.237.293-.143.488-.38.681-.663.147-.284.293-.567.342-.9.059-.36.091-.724.097-1.089l-.146-.993v-.001Zm4.775-2.095c.244-.38.584-.662.975-.9.392-.236.877-.379 1.365-.474a8.149 8.149 0 0 1 1.511-.142c.439 0 .925.047 1.413.095a3.85 3.85 0 0 1 1.315.38c.391.189.732.426.976.74.244.315.39.742.39 1.28v4.639l.049 1.137c.049.379.146.662.244.804h-2.534c-.048-.142-.097-.284-.097-.427 0-.142-.049-.284-.049-.426-.401.38-.884.671-1.413.852a6.635 6.635 0 0 1-1.656.237c-.41.002-.82-.046-1.218-.142a2.638 2.638 0 0 1-.975-.475 2.762 2.762 0 0 1-.682-.804 2.865 2.865 0 0 1-.244-1.186c0-.519.098-.9.293-1.23.195-.33.439-.568.732-.805.292-.19.632-.332.975-.427.343-.095.732-.19 1.121-.237l1.12-.142.976-.143c.293-.047.488-.19.681-.284a.785.785 0 0 0 .244-.568c0-.285-.049-.474-.146-.615-.098-.14-.195-.285-.342-.38-.146-.094-.341-.142-.533-.19-.192-.047-.375-.018-.634-.018-.488 0-.877.094-1.17.331-.292.19-.439.568-.487 1.043h-2.534c-.098-.663.049-1.137.341-1.515l-.007-.008Zm4.97 3.458c-.147.048-.342.095-.534.142-.192.048-.39.048-.584.095-.198.009-.394.04-.584.095l-.533.142c-.176.05-.342.13-.488.238-.147.094-.244.237-.342.379-.097.142-.146.332-.146.568a1.1 1.1 0 0 0 .146.567c.098.143.195.285.342.332.146.048.293.143.488.19.195.047.39.047.584.047.487 0 .876-.094 1.169-.237.293-.142.488-.332.584-.567.146-.237.195-.475.244-.663.048-.188.048-.427.048-.567v-.9c-.097 0-.244.095-.39.142l-.004-.003Z" fill="#1274CC"/>
  <path d="m118.896 36.464-1.896.948v21.067l1.896.93 3.334-11.445-3.334-11.5Z" fill="#76BBF4"/>
  <path d="M118.896 36.492V59.42l3.666-.858v-21.2l-3.666-.869Z" fill="#1274CC"/>
  <path d="m123.957 61.958-2.8-1.395V35.347l2.8-1.395 3.47 14.02-3.47 13.986Z" fill="#76BBF4"/>
  <path d="M123.957 61.904V33.952l5.687 1.824v24.322l-5.687 1.806Z" fill="#1274CC"/>
  <path d="M144.863 38.87v17.437l-2.3-.125V38.87h2.3Z" fill="#76BBF4"/>
  <path d="m144.935 41.106-2.307.322-8.888-2.307 2.557-1.323 8.388 1.073.25 2.235Z" fill="#76BBF4"/>
  <path d="m136.37 58.114 8.638-3.3-2.307-.322-8.888 2.307 2.557 1.315Z" fill="#1274CC"/>
  <path d="M139.033 53.696V42.214l-4.578.608v10.265l4.578.61Z" fill="#76BBF4"/>
  <path d="m131.88 30-4.453 2.218v31.476l4.453 2.218 3.8-17.973L131.88 30Z" fill="#76BBF4"/>
  <path d="m144.863 54.84-8.53 2.557V38.512l8.53 2.557V54.84ZM131.88 30v35.93l14.88-7.44V37.44L131.88 30Zm7.153 23.732 4.74-5.76-4.74-5.76v11.52Z" fill="#1274CC"/>
</svg>
