<svg width="383" height="96" fill="none" xmlns="http://www.w3.org/2000/svg">
  <path fill="#fff" d="M0 0h383v96H0z"/>
  <path d="M155.113 62.291c5.308-.938 9.692-1.713 9.742-1.724l.092-.02-5.012-5.96c-2.756-3.279-5.011-5.974-5.011-5.99 0-.029 5.175-14.278 5.204-14.328.01-.017 3.531 6.062 8.536 14.737l8.585 14.88.065.114-15.926-.002-15.926-.002 9.651-1.705Zm61.074-1.441c-2.424-.156-3.834-1.536-4.208-4.12-.099-.688-.1-.705-.11-5.167l-.01-4.32h2.146l.008 4.178c.008 3.765.013 4.206.049 4.471.146 1.075.437 1.798.932 2.317.396.415.86.658 1.502.787.303.06 1.165.061 1.441 0a3.184 3.184 0 0 0 1.633-.886c.525-.525.913-1.269 1.101-2.11l.063-.284.007-4.212.007-4.213h2.191V60.536h-2.168v-1.051c0-.714-.008-1.048-.025-1.043a.893.893 0 0 0-.124.19 4.403 4.403 0 0 1-1.678 1.68c-.817.45-1.637.61-2.757.538Zm24.606-.011a5.68 5.68 0 0 1-2.493-.814c-1.553-.96-2.471-2.543-2.74-4.721-.093-.754-.104-1.766-.027-2.407.174-1.43.736-2.836 1.537-3.838.205-.258.671-.723.928-.928A5.777 5.777 0 0 1 240.367 47c.502-.11 1.387-.161 1.92-.112 1.341.124 2.57.755 3.405 1.749.848 1.01 1.315 2.42 1.374 4.157.01.272.012.75.005 1.06l-.011.566-4.696.006-4.696.006v.21c0 .637.155 1.364.423 1.982.232.533.629 1.115.955 1.397a4.201 4.201 0 0 0 2.381 1.007c.332.03 1.177-.002 1.555-.06a6.592 6.592 0 0 0 2.933-1.21 7.33 7.33 0 0 1 .207-.152c.024-.015.03.176.029.978v.997l-.222.137a7.77 7.77 0 0 1-3.147 1.091c-.339.042-1.583.06-1.989.03Zm4.087-8.408c0-1.068-.451-2.255-1.088-2.867a2.987 2.987 0 0 0-1.658-.804c-.309-.048-.961-.03-1.287.037a3.363 3.363 0 0 0-1.756.933 4.78 4.78 0 0 0-1.162 1.86c-.089.258-.193.68-.225.915l-.015.112H244.88v-.186Zm-63.697 8.075c.005-.016 1.6-4.205 3.543-9.309l3.534-9.28h2.27l.095.242c.288.739 7.073 18.357 7.073 18.366 0 .006-.543.01-1.207.01h-1.208l-.978-2.604-.978-2.604h-7.876l-.034.089c-.019.048-.437 1.22-.929 2.603l-.894 2.516h-1.211c-.958 0-1.208-.006-1.2-.029Zm11.425-7.166c0-.004-.658-1.788-1.463-3.965-1.505-4.072-1.589-4.317-1.708-4.971-.055-.307-.084-.315-.117-.035-.023.2-.126.647-.205.895a517.64 517.64 0 0 1-1.506 4.134 663.499 663.499 0 0 0-1.435 3.93c0 .01 1.448.02 3.217.02 1.769 0 3.217-.004 3.217-.008Zm5.821 6.856v-.339l3.923-5.393 3.924-5.394-3.552-.011-3.553-.012-.006-.902-.006-.901h10.276v.609l-3.924 5.423a1789.152 1789.152 0 0 0-3.924 5.434c0 .006 1.745.011 3.877.011h3.877v1.815h-10.912v-.34Zm28.791.324c-.009-.009-.016-3-.016-6.646v-6.63h2.145v1.367c0 .752.009 1.367.02 1.367.011 0 .064-.123.116-.274a4.72 4.72 0 0 1 1.198-1.845 3.104 3.104 0 0 1 1.694-.842c.184-.03.34-.036.707-.026.462.012.703.046.984.138l.089.029v2.226l-.254-.127a2.705 2.705 0 0 0-1.42-.285 2.684 2.684 0 0 0-2.199 1.27 6.4 6.4 0 0 0-.897 2.578c-.018.158-.028 1.442-.032 3.974l-.006 3.742h-1.057c-.581 0-1.063-.007-1.072-.016ZM136 60.473c0-.008 2.361-4.107 5.247-9.108l5.247-9.094 6.115-5.132A2481.88 2481.88 0 0 1 158.744 32c.012-.004-.033.107-.098.248l-6.64 14.242-6.521 13.987-4.743.006c-2.608.003-4.742-.001-4.742-.01Z" fill="#1274CC"/>
</svg>
