<svg width="383" height="96" fill="none" xmlns="http://www.w3.org/2000/svg">
  <path fill="#fff" d="M0 0h383v96H0z"/>
  <path d="M121.64 39.975a.629.629 0 0 0-.616.46.63.63 0 0 0-.016.274l2.684 16.29a.856.856 0 0 0 .841.718h12.874a.631.631 0 0 0 .632-.53l2.69-16.472a.63.63 0 0 0-.365-.678.629.629 0 0 0-.267-.055l-18.457-.007Zm11.3 11.775h-4.109l-1.112-5.81h6.217l-.996 5.81Z" fill="#1274CC"/>
  <path d="M139.869 45.94h-5.933l-.996 5.81h-4.109l-4.852 5.762c.154.133.35.207.553.209h12.878a.631.631 0 0 0 .632-.531l1.827-11.25Z" fill="#469FEB"/>
  <path d="M157.949 39.445c3.727 0 5.535 1.836 5.535 4.785 0 2.213-1.002 3.56-3.06 4.062 2.7.446 4.034 1.919 4.034 4.508 0 2.92-1.976 4.924-6.063 4.924h-7.539v-18.28h7.093Zm-4.589 2.393v5.449h4.254c2.365 0 3.338-1.084 3.338-2.845 0-1.76-1.055-2.614-3.338-2.614l-4.254.01Zm0 7.677v5.69h5.117c2.393 0 3.477-.863 3.477-2.7 0-1.947-1.03-3.002-3.53-3.002l-5.064.012ZM168.547 38.47a1.564 1.564 0 0 1 1.575 1.013c.078.21.11.433.094.657a1.668 1.668 0 1 1-3.338 0 1.563 1.563 0 0 1 1.669-1.669Zm-1.223 5.34h2.393v13.907h-2.393V43.81ZM178.852 55.385a7.576 7.576 0 0 0 1.501-.196v2.307a5.746 5.746 0 0 1-1.612.221c-2.977 0-4.425-1.75-4.425-4.34v-7.342h-2.254v-2.213h2.254v-2.958h2.323v2.949h3.699v2.212h-3.699v7.299c0 1.223.724 2.06 2.213 2.06ZM190.215 57.996c-2.029 0-3.588-.917-4.425-2.725v2.447h-2.393V38h2.409v8.313c.891-1.836 2.56-2.782 4.7-2.782 3.698 0 5.563 3.142 5.563 7.233-.013 3.922-1.96 7.232-5.854 7.232Zm-.364-12.24c-2.149 0-4.045 1.366-4.045 4.451v1.113c0 3.088 1.751 4.45 3.793 4.45 2.699 0 4.09-1.78 4.09-5.006-.026-3.338-1.359-5.007-3.838-5.007ZM198.56 43.81h2.393v8.414c0 2.503 1.002 3.616 3.281 3.616 2.212 0 3.755-1.473 3.755-4.283V43.81h2.393v13.908h-2.393v-2.28a4.879 4.879 0 0 1-4.394 2.56c-3.198 0-5.035-2.212-5.035-6.036V43.81ZM223.816 57.357c-.835.446-2.115.632-3.395.632-4.95 0-7.27-3.003-7.27-7.27 0-4.2 2.307-7.203 7.27-7.203a7.354 7.354 0 0 1 3.316.686v2.212a7.015 7.015 0 0 0-3.161-.657c-3.616 0-5.089 2.282-5.089 4.978 0 2.696 1.514 4.966 5.158 4.966a8.786 8.786 0 0 0 3.161-.5l.01 2.156ZM226.543 57.718V38h2.393v12.327l5.98-6.508h3.117l-6.54 6.825 6.815 7.074h-3.256l-6.119-6.509v6.508h-2.39ZM246.235 57.996c-5.203 0-7.482-3.003-7.482-7.27 0-4.201 2.336-7.204 6.566-7.204 4.282 0 6.005 2.978 6.005 7.204v1.084h-10.153c.336 2.364 1.865 3.894 5.146 3.894a12.333 12.333 0 0 0 4.23-.752v2.212c-1.141.61-2.893.832-4.312.832Zm-5.089-8.218h7.76c-.139-2.586-1.308-4.062-3.698-4.062-2.535-.013-3.812 1.628-4.062 4.049v.013ZM259.669 55.385a7.576 7.576 0 0 0 1.501-.196v2.307a5.75 5.75 0 0 1-1.612.221c-2.977 0-4.425-1.75-4.425-4.34v-7.342h-2.254v-2.213h2.254v-2.958h2.336v2.949h3.698v2.212h-3.698v7.299c.003 1.223.721 2.06 2.2 2.06Z" fill="#1274CC"/>
</svg>
