<svg width="383" height="96" fill="none" xmlns="http://www.w3.org/2000/svg">
  <path fill="#fff" d="M0 0h383v96H0z"/>
  <path fill-rule="evenodd" clip-rule="evenodd" d="M238.957 56c3.728 0 6.855-2.558 7.736-6.017a.38.38 0 0 0-.37-.458h-3.219a.375.375 0 0 0-.344.222h-.001a4.183 4.183 0 0 1-3.802 2.444 4.187 4.187 0 0 1-4.182-4.19 4.187 4.187 0 0 1 4.182-4.191 4.183 4.183 0 0 1 3.802 2.444h.001c.059.13.19.222.344.222h3.219a.38.38 0 0 0 .37-.457c-.881-3.46-4.008-6.019-7.736-6.019-4.408 0-7.984 3.583-7.984 8 0 4.419 3.576 8 7.984 8Zm13.72-15.62v14.858a.38.38 0 0 1-.379.381h-3.042a.38.38 0 0 1-.38-.38V40.38h3.801Zm-1.901-5.333a2.284 2.284 0 0 0-2.281 2.286 2.284 2.284 0 0 0 2.281 2.286 2.284 2.284 0 0 0 2.282-2.286 2.284 2.284 0 0 0-2.282-2.285Zm-35.566 11.43a5.71 5.71 0 0 1 5.498-4.191 5.707 5.707 0 0 1 5.496 4.19H215.21ZM220.708 40c-4.41 0-7.985 3.582-7.985 8s3.575 8 7.985 8a7.98 7.98 0 0 0 7.13-4.4.379.379 0 0 0-.339-.552h-1.765a.377.377 0 0 0-.306.157 5.695 5.695 0 0 1-4.72 2.51 5.707 5.707 0 0 1-5.652-4.953h13.245c.204 0 .369-.16.38-.362a7.58 7.58 0 0 0 .01-.4c0-4.418-3.574-8-7.983-8Zm-10.647-4.572h-1.52a.38.38 0 0 0-.381.381v19.43c0 .21.17.38.381.38h1.52c.21 0 .381-.17.381-.38v-19.43c0-.21-.171-.38-.381-.38Zm-4.562 15.62h-1.765a.378.378 0 0 0-.301.15 5.693 5.693 0 0 1-4.725 2.517A5.709 5.709 0 0 1 193.004 48a5.708 5.708 0 0 1 5.704-5.714c1.966 0 3.7.999 4.725 2.517.069.09.178.15.301.15h1.765a.38.38 0 0 0 .338-.553 7.98 7.98 0 0 0-7.129-4.4c-4.41 0-7.985 3.582-7.985 8s3.575 8 7.985 8a7.98 7.98 0 0 0 7.129-4.4.38.38 0 0 0-.338-.552Zm-15.15-11.039c-2.301.109-4.139 1.21-5.329 2.893v-2.14c0-.21-.171-.381-.381-.381h-1.52a.38.38 0 0 0-.38.38v14.477c0 .21.17.381.38.381h1.52c.21 0 .381-.17.381-.38V48a5.71 5.71 0 0 1 5.322-5.7c.21 0 .381-.172.381-.383V40.39a.38.38 0 0 0-.374-.38Zm-9.892 15.23V40.38h-2.281v14.857c0 .21.17.381.38.381h1.521c.21 0 .38-.17.38-.38Zm.38-17.906a1.522 1.522 0 1 1-3.041 0 1.522 1.522 0 1 1 3.041 0Zm-5.323 13.715h-1.764a.38.38 0 0 0-.302.15 5.69 5.69 0 0 1-4.725 2.517A5.708 5.708 0 0 1 163.02 48a5.708 5.708 0 0 1 5.703-5.714c1.967 0 3.701.999 4.726 2.517.069.09.178.15.301.15h1.764a.38.38 0 0 0 .34-.553 7.983 7.983 0 0 0-7.131-4.4c-4.41 0-7.985 3.582-7.985 8s3.575 8 7.985 8a7.984 7.984 0 0 0 7.131-4.4.38.38 0 0 0-.34-.552ZM141.586 35c-6.057 0-11.139 4.158-12.57 9.779a.584.584 0 0 0-.016.126c0 .342.277.619.618.619h5.229a.62.62 0 0 0 .561-.362h.001a6.794 6.794 0 0 1 6.177-3.972c3.752 0 6.795 3.05 6.795 6.81s-3.043 6.81-6.795 6.81a6.793 6.793 0 0 1-6.177-3.973l-.001.001a.62.62 0 0 0-.561-.361h-5.229a.618.618 0 0 0-.603.742c1.43 5.621 6.513 9.781 12.571 9.781 7.164 0 12.974-5.821 12.974-13 0-7.18-5.81-13-12.974-13Zm-3.09 13a3.093 3.093 0 0 1 3.09-3.095A3.092 3.092 0 0 1 144.674 48a3.092 3.092 0 0 1-3.088 3.096 3.094 3.094 0 0 1-3.09-3.096Z" fill="#1274CC"/>
</svg>
