<svg width="383" height="96" fill="none" xmlns="http://www.w3.org/2000/svg">
  <path fill="#fff" d="M0 0h383v96H0z"/>
  <path d="M187.88 42.44a1.073 1.073 0 0 0-1.108 1.108v5.33a5.972 5.972 0 0 0-9.712 4.659 5.971 5.971 0 1 0 11.939 0v-9.983c.009-.3-.109-.589-.325-.796a1.101 1.101 0 0 0-.794-.313v-.005Zm-1.402 12.534a3.798 3.798 0 0 1-1.987 2 3.763 3.763 0 0 1-2.933 0 3.75 3.75 0 0 1-1.977-4.894 3.734 3.734 0 0 1 4.91-1.983 3.797 3.797 0 0 1 1.987 2 3.695 3.695 0 0 1 0 2.888M200.345 49.31a5.97 5.97 0 0 0-10.19 4.221 5.97 5.97 0 1 0 11.939 0 6.142 6.142 0 0 0-.442-2.291 5.827 5.827 0 0 0-1.307-1.93Zm-.771 5.659c-.19.442-.462.846-.8 1.188a3.835 3.835 0 0 1-1.189.811 3.754 3.754 0 0 1-2.93 0 3.738 3.738 0 0 1-1.979-1.994 3.72 3.72 0 0 1 1.979-4.877 3.754 3.754 0 0 1 2.93 0c.444.192.847.467 1.189.81a3.712 3.712 0 0 1 .8 4.077M225.028 48.67c0-.147-.03-.292-.089-.427a1.245 1.245 0 0 0-.242-.348 1.048 1.048 0 0 0-.348-.24 1.127 1.127 0 0 0-1.034.089l-6.374 4.147v-8.327a1.08 1.08 0 0 0-.325-.794 1.065 1.065 0 0 0-.789-.33 1.11 1.11 0 0 0-1.118 1.105v14.831c-.004.296.114.581.325.789.207.216.494.336.793.33.297.005.582-.115.785-.33.212-.208.329-.493.326-.789v-3.842l1.3-.853 4.926 5.532c.2.192.468.296.745.287a1.1 1.1 0 0 0 .437-.085c.131-.054.25-.135.348-.238.101-.104.183-.226.242-.359a1.126 1.126 0 0 0-.22-1.204l-4.58-5.16 4.465-2.899a.993.993 0 0 0 .427-.885M206.533 50.883c.344-.34.75-.612 1.196-.8a3.66 3.66 0 0 1 1.459-.293c.445-.004.885.075 1.3.233.416.168.801.403 1.14.696.206.164.463.252.726.248a1.075 1.075 0 0 0 1.119-1.114 1.091 1.091 0 0 0-.385-.842 5.69 5.69 0 0 0-3.891-1.45 5.97 5.97 0 0 0-5.97 5.97 5.961 5.961 0 0 0 9.861 4.525c.224-.213.35-.51.348-.82a1.073 1.073 0 0 0-1.108-1.108 1.196 1.196 0 0 0-.705.233 3.796 3.796 0 0 1-1.129.687 3.598 3.598 0 0 1-1.3.23 3.662 3.662 0 0 1-1.46-.292 3.734 3.734 0 0 1-1.212-6.082l.016-.016M247.171 48.308a2.09 2.09 0 0 0-.752-.453 4.358 4.358 0 0 0-.99-.23 8.4 8.4 0 0 0-1.008-.062 5.838 5.838 0 0 0-2.004.348c-.63.23-1.218.561-1.741.981v-.222a1.115 1.115 0 0 0-2.229 0v9.722a1.116 1.116 0 0 0 2.229 0v-4.86a3.74 3.74 0 0 1 2.28-3.449c.462-.197.96-.296 1.462-.292.499-.005.994.085 1.46.266.147.07.307.11.47.116.149.002.298-.027.436-.085a1.03 1.03 0 0 0 .348-.24 1.075 1.075 0 0 0 .331-.785.986.986 0 0 0-.299-.746M236.812 51.248a6.054 6.054 0 0 0-5.532-3.671 5.969 5.969 0 0 0-5.971 5.967v.002a5.972 5.972 0 0 0 9.872 4.524l.044-.042a1.27 1.27 0 0 0 .252-.275 1.14 1.14 0 0 0-.285-1.583 1.12 1.12 0 0 0-1.377.123l-.158.145-.016.014c-.318.27-.681.482-1.072.626-.414.146-.85.218-1.289.212a3.686 3.686 0 0 1-1.191-.191 3.752 3.752 0 0 1-1.87-1.37 3.676 3.676 0 0 1-.533-1.071h8.442c.296.006.582-.107.793-.315.217-.206.336-.495.326-.794a6.005 6.005 0 0 0-.437-2.297l.002-.004Zm-9.128 1.193c.112-.385.288-.748.522-1.072a3.756 3.756 0 0 1 1.888-1.37 3.745 3.745 0 0 1 2.36 0c.753.25 1.409.729 1.876 1.37.239.324.421.687.54 1.072h-7.186ZM175.015 44.947c-.109-.087-1.133-.86-3.291-.86-.569.003-1.138.052-1.7.147-.417-2.863-2.784-4.258-2.89-4.321l-.58-.334-.381.55a7.783 7.783 0 0 0-1.03 2.408c-.386 1.634-.151 3.169.679 4.481-1.003.559-2.61.696-2.936.708h-26.621c-.695.001-1.26.563-1.263 1.258a19.153 19.153 0 0 0 1.166 6.841c.917 2.405 2.281 4.176 4.056 5.26 1.989 1.219 5.22 1.915 8.884 1.915a26.526 26.526 0 0 0 4.933-.447 20.634 20.634 0 0 0 6.439-2.34 17.7 17.7 0 0 0 4.393-3.596c2.11-2.388 3.366-5.047 4.3-7.41h.373c2.309 0 3.729-.924 4.512-1.698a4.921 4.921 0 0 0 1.19-1.763l.166-.484-.399-.315Z" fill="#1274CC"/>
  <path d="M138.732 46.947h3.568c.172 0 .311-.14.311-.312v-3.177a.312.312 0 0 0-.31-.313h-3.569a.311.311 0 0 0-.311.311v3.179c0 .172.139.312.311.312ZM143.649 46.947h3.567c.172 0 .312-.14.312-.312v-3.177a.312.312 0 0 0-.31-.313h-3.569a.314.314 0 0 0-.314.313v3.177a.313.313 0 0 0 .314.312M148.64 46.947h3.567c.172 0 .311-.14.311-.312v-3.177a.31.31 0 0 0-.309-.313h-3.569a.312.312 0 0 0-.312.311v3.179c0 .172.14.312.312.312ZM153.571 46.947h3.568c.172 0 .312-.14.313-.312v-3.177a.313.313 0 0 0-.313-.313h-3.568a.311.311 0 0 0-.311.311v3.179c0 .172.139.312.311.312ZM143.649 42.376h3.567a.313.313 0 0 0 .311-.314v-3.177a.311.311 0 0 0-.311-.312h-3.567a.313.313 0 0 0-.314.312v3.177a.315.315 0 0 0 .314.314ZM148.64 42.376h3.567a.313.313 0 0 0 .311-.314v-3.177a.311.311 0 0 0-.311-.312h-3.567a.312.312 0 0 0-.312.312v3.177c0 .172.139.313.312.314ZM153.571 42.376h3.568a.315.315 0 0 0 .313-.314v-3.177a.313.313 0 0 0-.313-.312h-3.568a.311.311 0 0 0-.311.312v3.177c0 .172.139.313.311.314ZM153.571 37.802h3.568c.172 0 .312-.139.313-.311v-3.18a.313.313 0 0 0-.313-.311h-3.568a.311.311 0 0 0-.311.312v3.179c0 .172.139.311.311.311ZM158.546 46.947h3.568c.172 0 .312-.14.313-.312v-3.177a.313.313 0 0 0-.313-.313h-3.568a.311.311 0 0 0-.311.311v3.179c0 .172.139.312.311.312" fill="#1274CC"/>
</svg>
