<svg width="382" height="96" fill="none" xmlns="http://www.w3.org/2000/svg">
  <path fill="#fff" d="M0 0h382v96H0z"/>
  <path d="M216.15 38.836h-2.593l.012 19.335h10.504V55.78h-7.911l-.012-16.944ZM234.071 54.778a4.424 4.424 0 0 1-3.212 1.357c-1.975 0-2.772-.976-2.772-2.25 0-1.915 1.332-2.83 4.164-2.83.535 0 1.392.059 1.832.142v3.581h-.012Zm-2.689-11.72a8.587 8.587 0 0 0-5.52 1.987l.916 1.595c1.059-.619 2.356-1.238 4.224-1.238 2.129 0 3.069 1.095 3.069 2.927v.94c-.416-.083-1.273-.142-1.797-.142-4.544 0-6.852 1.594-6.852 4.925 0 2.987 1.832 4.486 4.604 4.486 1.868 0 3.664-.857 4.283-2.249l.476 1.892h1.832v-9.9c-.012-3.128-1.368-5.223-5.235-5.223ZM244.984 56.223c-.975 0-1.832-.119-2.474-.416V46.87c.88-.738 1.975-1.273 3.367-1.273 2.51 0 3.473 1.773 3.473 4.64 0 4.07-1.558 5.985-4.366 5.985Zm1.095-13.16c-2.32 0-3.569 1.583-3.569 1.583v-2.498l-.012-3.308h-2.534l.012 18.859c1.273.535 3.01.82 4.901.82 4.842 0 7.174-3.093 7.174-8.435-.012-4.224-2.165-7.02-5.972-7.02ZM187.911 40.934c2.296 0 3.783.762 4.747 1.535l1.118-1.94c-1.511-1.332-3.557-2.046-5.746-2.046-5.52 0-9.386 3.367-9.386 10.161 0 7.116 4.175 9.888 8.946 9.888 2.391 0 4.426-.56 5.758-1.118l-.059-7.604v-2.392h-7.079v2.392h4.521l.059 5.771c-.595.298-1.618.535-3.01.535-3.83 0-6.4-2.415-6.4-7.495-.012-5.176 2.641-7.687 6.531-7.687ZM206.177 38.834h-2.534l.011 3.248V53.302c0 3.13 1.357 5.224 5.223 5.224.536 0 1.059-.048 1.559-.143V56.11c-.369.06-.762.084-1.178.084-2.13 0-3.069-1.095-3.069-2.927v-7.734h4.247v-2.118h-4.247l-.012-4.581ZM197.197 58.172h2.534V43.418h-2.534v14.754ZM197.197 41.383h2.534v-2.535h-2.534v2.535ZM151.083 67l7.4-22.764h-14.789L151.083 67Z" fill="#1274CC"/>
  <path d="m133.328 44.236-2.253 6.916a1.532 1.532 0 0 0 .555 1.712L151.082 67l-17.754-22.764Z" fill="#B3DAFA"/>
  <path d="M133.329 44.236h10.365l-4.461-13.71c-.228-.701-1.223-.701-1.46 0l-4.444 13.71Z" fill="#1274CC"/>
  <path d="m168.847 44.236 2.246 6.916a1.533 1.533 0 0 1-.555 1.712L151.083 67l17.764-22.764Z" fill="#B3DAFA"/>
  <path d="M168.846 44.236h-10.365l4.453-13.71c.228-.701 1.223-.701 1.46 0l4.452 13.71Z" fill="#1274CC"/>
  <path d="m151.083 67 7.4-22.764h10.364L151.083 67ZM151.083 67l-17.754-22.764h10.365L151.083 67Z" fill="#76BBF4"/>
</svg>
