<svg width="383" height="96" fill="none" xmlns="http://www.w3.org/2000/svg">
  <path fill="#fff" d="M0 0h383v96H0z"/>
  <path d="M155.494 47.275c0 7.925-6.28 14.35-14.028 14.35s-14.029-6.425-14.029-14.35 6.281-14.349 14.029-14.349 14.028 6.425 14.028 14.35" fill="#1274CC"/>
  <path d="M128.009 50.83s-1.015-14.965 12.773-15.392l-.962-1.604-7.482 2.512-2.138 2.459-1.87 3.58-1.069 4.169.32 2.779" fill="#1274CC"/>
  <path d="M131.856 37.485a14.036 14.036 0 0 0-3.984 9.843c0 3.846 1.523 7.323 3.984 9.842 2.463 2.517 5.856 4.071 9.608 4.071 3.752 0 7.146-1.553 9.609-4.071a14.035 14.035 0 0 0 3.984-9.842c0-3.847-1.523-7.324-3.984-9.843-2.463-2.517-5.856-4.07-9.609-4.071-3.752 0-7.145 1.554-9.608 4.071Zm-.623 20.294A14.906 14.906 0 0 1 127 47.328c0-4.08 1.617-7.776 4.233-10.451 2.615-2.676 6.235-4.335 10.231-4.334 3.996 0 7.617 1.658 10.231 4.334a14.904 14.904 0 0 1 4.234 10.451c0 4.078-1.617 7.775-4.234 10.45-2.614 2.676-6.235 4.335-10.231 4.335-3.996 0-7.616-1.659-10.231-4.334" fill="#1274CC"/>
  <path d="m147.371 47.354-2.138.321-2.885.32-1.871.054-1.817-.053-1.39-.428-1.229-1.336-.962-2.726-.213-.588-1.283-.427-.748-1.23-.535-1.763.588-1.55 1.39-.48 1.122.534.534 1.175.642-.106.213-.267-.213-1.23-.054-1.55.321-2.137-.012-1.221.974-1.558 1.71-1.23 2.993-1.282 3.313.48 2.886 2.085 1.336 2.138.856 1.55.213 3.848-.641 3.313-1.176 2.94-1.122 1.55" fill="#fff"/>
  <path d="m145.554 56.6-7.642.322v1.282l.641 4.49-.32.373-5.345-1.817-.374-.64-.534-6.04-1.229-3.634-.268-.855 4.276-2.94 1.336-.534 1.176 1.443 1.015.909 1.176.374.534.16.642 2.78.481.587 1.229-.428-.855 1.657 4.649 2.191-.588.321M132.887 37.95l1.39-.482 1.122.535.534 1.175.642-.107.16-.64-.321-1.23.321-2.94-.267-1.603.962-1.122 2.084-1.657-.588-.801-2.939 1.443-1.229.962-.695 1.496-1.069 1.443-.321 1.71.214 1.817" fill="#1274CC"/>
  <path d="M135.078 32.924s.802-1.977 4.009-2.939c3.206-.962.16-.695.16-.695l-3.474 1.337-1.336 1.335-.588 1.07 1.229-.108Zm-1.603 4.65s-1.122-3.741 3.153-4.276l-.16-.641-2.94.695-.855 2.779.214 1.817.588-.374" fill="#F2F9FF"/>
  <path d="m135.184 42.544.7-.678s.316.037.369.41c.054.375.214 3.742 2.512 5.559.21.166-1.71-.267-1.71-.267l-1.71-2.672-.161-2.352Zm9.834-1.015s.125-1.62.561-1.496c.437.125.437.561.437.561s-1.06.685-.998.935Zm4.436-5.933s-.881.187-.962.963c-.081.776.962.16 1.122.106l-.16-1.069Zm-6.467.054s-1.175.16-1.175.909c0 .748 1.336.694 1.71.374l-.535-1.283Zm-7.268 3.474s-2.031-1.23-2.245-.054c-.214 1.176-.695 2.031.321 3.26l-.695-.214-.641-1.656-.214-1.604 1.229-1.282 1.39.107.801.64.054.803Zm.962-3.367s.908-4.703 5.505-5.612c3.784-.748 5.771.16 6.52 1.016 0 0-3.367-4.009-6.574-2.78-3.206 1.23-5.558 3.474-5.505 4.917.091 2.458.054 2.459.054 2.459Zm12.399-4.062s-1.55-.053-1.604 1.336c0 0 0 .214.107.428 0 0 1.23-1.39 1.978-.642" fill="#F2F9FF"/>
  <path d="M142.293 33.605s-.267-2.133-2.085-.893c-1.176.802-1.069 1.924-.855 2.138.213.214.155.644.318.349.163-.296.109-1.258.697-1.525.588-.267 1.552-.566 1.925-.07Z" fill="#F2F9FF"/>
  <path d="m137.271 48.05-5.024 2.245s2.084 8.283 1.015 10.849l-.748-.267-.053-3.154-1.39-5.985-.588-1.657 5.238-3.527 1.55 1.496Zm.516 4.582.713.87v3.206h-.855s-.107-2.245-.107-2.512c0-.267.107-1.23.107-1.23l.142-.334Zm.018 4.557-2.405.107.695.48 1.71.268M146.037 56.653l1.977-.053.481 4.916-2.031.267-.427-5.13" fill="#1274CC"/>
  <path d="m146.569 56.653 2.992-.16s1.23-3.1 1.23-3.26c0-.16 1.069-4.49 1.069-4.49l-2.405-2.512-.481-.427-1.283 1.283v4.97l-1.122 4.596Z" fill="#1274CC"/>
  <path d="m147.907 56.279-1.87.374.267 1.496c.695.321 1.871-.534 1.871-.534l-.268-1.336Zm.054-9.353 3.741 2.78.107-1.283-2.833-2.619-1.015 1.122Z" fill="#1274CC"/>
  <path d="m139.657 67.182-1.106-4.49-.55-3.313-.091-2.459 5.007-.266h3.116l-.283 5.611.481 4.329-.054.802-4.061.32-2.459-.534Z" fill="#F2F9FF"/>
  <path d="M145.34 56.6s-.267 5.559.534 9.514c0 0-1.603 1.015-3.955 1.282l4.49-.16.534-.32-.641-8.765-.16-1.87M148.585 61.09l2.084-.588 3.955-.214.588-1.817-1.069-3.153-1.229-.16-1.711.534-1.64.801-.871-.16-.679.267" fill="#F2F9FF"/>
  <path d="M148.544 60.021s1.39-.641 1.604-.588l-.588-2.94.695-.266s.481 2.779.481 3.1c0 0 2.992.16 3.26.16 0 0 .641-1.23.481-2.512l.587 1.71.054.962-.855 1.283-.962.214-1.603-.054-.535-.695-1.87.267-.588.214M146.444 56.226l-1.176-2.993-1.229-1.764s.267-.748.641-.748h1.229l1.176.428-.107 1.977-.534 3.1Z" fill="#F2F9FF"/>
  <path d="M146.676 55.21s-1.497-2.886-1.497-3.313c0 0 .268-.642.642-.481.374.16 1.175.587 1.175.587v-1.015l-1.817-.374-1.229.16 2.084 4.917.428.053M140.141 48.157l-1.481-.16-1.389-.428v.48l.679.75 2.137.962" fill="#F2F9FF"/>
  <path d="M137.749 48.317s1.656.695 2.191.535l.053.64-1.496-.32-.909-.64.161-.215Z" fill="#F2F9FF"/>
  <path d="M148.58 50.904c-.907-.027-1.726-.135-2.444-.337.049-.294-.042-.583.031-.795.2-.144.535-.141.837-.175a1.457 1.457 0 0 0-.93-.105c-.007-.204-.099-.33-.154-.49.51-.183 1.713-1.376 2.39-.98.323.188.46 1.26.485 1.782.021.434-.039.87-.215 1.1M144.242 49.421l-.008.207c-.283.186-.74.184-1.051.34.458.02.819.13 1.13.286l-.02.518c-.519.356-.993.885-1.604 1.218-.289.158-1.303.563-1.61.491-.174-.04-.19-.256-.259-.46-.148-.435-.489-1.128-.519-1.784-.038-.828-.122-2.216.771-2.046.72.138 1.558.47 2.115.774.341.186.538.416 1.055.456M144.758 50.41c-.08-.45-.171-.58-.136-.973 1.204-.802 1.429 1.378.136.974" fill="#1274CC"/>
  <path d="M146.497 50.776s-.374-.534-.107-.695c.267-.16.535 0 .695-.267.16-.267 0-.427.053-.748.054-.32.321-.374.588-.428.268-.053 1.016-.16 1.123.108l-.321-.963-.641-.213-2.031 1.175-.107.588v1.176l.748.267Zm-5.612 1.764c-.064-.834-.132-1.667-.207-2.5-.113-1.245.299-1.027 1.377-1.027.165 0 1.014.196 1.075.32.292.596-.487.463.336.912.695.379 1.922-.23 1.642-1.072-.157-.187-.819-.059-1.056-.181l-1.253-.65c-.531-.275-1.758-.677-2.325-.292-1.435.976.091 3.415.603 4.433M142.294 33.605c-1.456-.34-2.18.61-2.622 1.594-.394-.096-.237-.632-.137-.905.26-.717 1.311-1.672 2.17-1.542.369.055.869.393.589.853Zm7.098 1.659.069.002c.329.684.614 1.409 1.029 2.012-.278.648-2.106 1.221-2.078.058.395-.173 1.077-.035 1.428-.256-.203-.556-.495-1.03-.448-1.816Zm-6.352.017c.312.573.414 1.175.858 1.607.2.195.589.433.396.974-.045.128-.374.413-.564.469-.694.205-2.312.042-1.764-.823.574.027 1.346.372 1.775-.044-.33-.527-.917-1.569-.701-2.183Zm6.091 5.82c-1.045.67-2.21 1.4-3.923 1.231-.365-.318-.505-1.026-.149-1.493.185.318.068.903.584.991.971.166 2.102-.594 2.801-.86.434-.73-.037-1-.427-1.47-.8-.963-1.872-2.157-1.833-3.6.323-.234.351.358.397.466.418.976 1.468 2.226 2.235 3.061.188.206.498.404.532.54.1.396-.258.87-.217 1.133Zm-13.777-.707c-.327-.187-.405-1.01-.79-1.034-.549-.034-.449 1.068-.447 1.712-.378-.343-.445-1.4-.167-1.944-.317-.155-.458.172-.634.287.226-1.64 2.4-.76 2.038.979Zm14.442 1.39c-.486.925-1.174 1.945-2.602 1.975-.029-.3-.051-.754.002-.935 1.091-.104 1.765-.66 2.6-1.04Zm-6.838.6c.91.479 2.583.53 3.821.494.066.27.065.606.067.936-1.59.08-3.471-.314-3.888-1.43Zm-.173.892c.629 1.581 2.793 1.4 4.618 1.355-.08.206-.255.448-.471.536-.585.238-2.197.418-3.009-.013-.515-.274-.846-.892-1.128-1.254-.136-.175-.814-.623-.01-.624M149.054 51.994c-.739 1.266-1.446 2.565-2.323 3.681.368-1.08.525-2.889.581-4.267.769-.36 1.427.08 1.742.586ZM153.029 56.544c-.827.165-1.409.969-2.216.917.444-.625 1.221-.888 2.216-.917Zm.365 1.294c-.675.071-1.466.18-2.15.124.323-.494 1.571-.324 2.15-.124Zm.233 1.116c-.757.017-1.699.001-2.419-.059.426-.458 1.928-.17 2.419.06Z" fill="#1274CC"/>
  <path d="M147.632 62.008c.109.951.486 1.916.439 2.958-.419.141-.66.265-1.221.264-.04-.886-.158-2.24-.123-3.084.276.018.684-.197.905-.138" fill="#F2F9FF"/>
  <path d="M146.405 47.982c-.38.248-.704.559-1.069.824-.811.04-1.253-.056-1.848-.522.01-.037.069-.02.072-.066.867.386 1.97-.158 2.845-.236" fill="#fff"/>
  <path d="M141.853 53.896c.238-1.033 1.172-1.568 2.02-2.137.875 1.111 1.408 2.54 1.994 3.918-1.385-.417-2.8-1.095-4.014-1.781" fill="#1274CC"/>
  <path d="M146.723 62.145c-.036.845.083 2.199.122 3.084.562.001.802-.122 1.221-.264.048-1.042-.33-2.006-.438-2.958-.222-.059-.629.157-.905.138Zm-8.74-4.801c.37 3.402.906 6.262 1.889 9.276 2.182.662 4.813.72 6.742.122-.354-1.7-.199-3.77-.406-5.586-.156-1.364-.077-2.736-.291-4.128-2.337-.486-5.641-.114-7.934.316Zm8.487-.294c-.02 1.46.065 2.902.177 4.366.561-.085.942-.14 1.463-.255-.169-1.409-.148-2.994-.493-4.24-.399.004-.75-.005-1.147.129Zm2.847-.236c-.267-.06-.577-.002-.831.002.119 1.192.409 2.506.512 3.757.4.012.614-.176.943-.24.018-1.098-.096-2.61-.624-3.519Zm4.31 3.938c.834-.202 1.359-1.224 1.126-2.274-.157-.706-.436-2.034-.735-2.485-.22-.334-.818-.771-1.296-.465-.777.497-2.146.642-2.712 1.244.284.946.372 2.245.489 3.444.971.06 2.165-.267 2.972.08-.563.183-1.295.184-1.781.45.398.192 1.329.154 1.937.006Zm-7.761-5.075c-.586-1.378-1.118-2.807-1.993-3.918-.848.57-1.782 1.104-2.02 2.136 1.213.687 2.628 1.365 4.013 1.782Zm1.445-4.269c-.055 1.379-.213 3.187-.58 4.268.877-1.116 1.583-2.416 2.322-3.681-.315-.506-.973-.946-1.742-.587Zm-1.638-.582c-.332-.035-.614.382-1.045.202-.099.109-.189.227-.29.334.954 1.15 1.387 2.78 2.124 4.13.395-1.297.349-2.718.436-4.134-.543.034-.844-.491-1.225-.532Zm-1.053-1.39c-.035.394.056.523.136.974 1.293.404 1.067-1.776-.136-.974Zm-1.435-.47c-.557-.305-1.395-.637-2.115-.775-.892-.17-.809 1.218-.771 2.046.03.656.371 1.35.519 1.785.07.203.085.42.259.46.308.071 1.321-.334 1.611-.492.611-.333 1.085-.862 1.604-1.217l.02-.519a2.737 2.737 0 0 0-1.131-.286c.311-.156.768-.154 1.051-.34l.008-.207c-.517-.04-.714-.27-1.055-.456Zm-5.325-.968c-.462.47 1.298 1.11 1.859 1.144-.003-.297.169-.577.134-.79-.666-.117-1.54-.04-1.993-.354Zm5.7.22c-.002.046-.062.03-.071.067.595.465 1.037.562 1.847.521.366-.265.69-.575 1.07-.823-.876.078-1.978.622-2.846.235Zm5.232 1.587c-.025-.522-.162-1.595-.485-1.783-.677-.395-1.88.798-2.39.98.055.16.147.286.154.49.302-.074.669-.023.93.105-.302.034-.637.032-.837.176-.073.212.018.5-.031.794.717.203 1.537.31 2.444.337.176-.23.236-.666.215-1.1v.001Zm-11.711-1.353c-.145-.103-1.128-1.382-1.262-1.33-1.779.702-3.442 1.915-4.928 3.062 1.417 3.04 1.989 6.766 2.09 10.356 1.623.76 3.049 1.854 5.251 1.968-.255-1.803-.487-3.412-.632-5.11-.553-.234-1.347.01-1.865-.073-.005-.624.791-.273.857-.693.05-.317-.438-.341-.279-.841.405.147.618.472 1.049.594.395-.863-.005-2.39.052-3.112.01-.135.067-.75.371-.642.268.095-.016 1.635.014 2.318.027.63-.076 1.238.179 1.633a60.737 60.737 0 0 1 6.594-.54c-.507-.218-1.109-.423-1.769-.795-.357-.202-1.485-.621-1.588-.961-.165-.542.432-.83.534-1.294-1.074.586-1.284-.562-1.538-1.375-.23-.736-.362-1.286-.418-1.71-.926-.442-1.915-.889-2.712-1.455Zm10.771-1.174c1.482-.719 1.749 2.685 1.168 3.782.09.327.399.452.525.746-.827 1.482-1.746 2.865-2.589 4.328.627-.39 1.524-.07 2.263-.362.27-.107.465-.725.669-1.219.563-1.36 1.153-3.075 1.416-4.374.059-.296.22-.94.184-1.203-.064-.472-.704-.821-1.029-1.113-.6-.538-.977-1.012-1.602-1.515-.253.374-.798.625-1.005.93Zm-14.16-13.142c-.706.777-.558 2.233-.473 3.268 1.277-.803 2.971.064 2.955 1.43.609-.017.227-.762.117-1.242-.36-1.567.607-3.27.044-4.703-1.093.083-1.991.53-2.643 1.247Zm5.053-4.51c-1.599.453-3.648 1.615-4.304 3.051.508-.074.861-.33 1.363-.362.19-.012.438.08.656.025.434-.108.801-1.081 1.129-1.444.319-.354.703-.505.966-.827.168-.082.418-.076.428-.33-.074-.078-.151-.137-.238-.113Zm8.321.426c-1.659-.935-4.467-1.64-6.232-.76-1.424.71-3.35 1.885-4.006 3.374.613 1.437-.182 2.753-.232 4.212-.027.776.365 1.453.395 2.298-.21.347-.851.39-1.294.365-.15-.747-.411-1.587-1.181-1.671-1.089-.12-1.885.782-1.935 1.724-.058 1.108.851 2.943 2.14 2.816.498-.05.62-.548 1.162-.543.294.587-.453.77-.53 1.19-.02.109.062.532.11.731.234.967.756 2.219 1.269 2.955.652.935 1.933 1.075 3.311 1.167.246-.53 1.153-.487 1.744-.348-.708-.28-1.367-.96-1.912-1.562-.627-.69-1.261-1.43-1.293-2.333 1.184 1.643 2.162 3.077 4.315 3.8 1.63.546 3.532-.25 4.784-1.13.519-.365.83-.945 1.199-1.476 1.381-1.987 2.026-4.823 1.884-7.572-.058-1.135-.056-2.264-.436-3.027-.398-.798-1.742-1.511-2.53-.79-.146-.776.655-1.255 1.595-.976-.67-.866-1.374-1.906-2.327-2.444Zm3.092 25.584c1.296-.645 3.719-1.735 4.532.002.3.64.651 1.723.807 2.384.219.933-.238 2.893-1.197 3.206-.846.276-1.834.26-2.854.055a1.55 1.55 0 0 1-.347-.456c-.729-.028-1.411.04-1.986.339.055.538-.31.625-.651.736-.253 1.003.506 2.314.325 3.23-.13.652-.932.753-1.522.875-.019.362.026.664.066.971-.135.497-.74.78-1.313.849-1.885.226-4.748.328-6.561-.324-.506-1.241-.905-2.751-1.326-4.168-1.769.189-3.199-.763-4.548-1.387-.467-.216-1.113-.336-1.287-.707-.169-.36-.1-1.05-.142-1.701-.107-1.664-.198-3.269-.637-4.972-.198-.765-.542-1.44-.781-2.176-.222-.682-.609-1.526-.71-2.207-.15-1.009.8-1.065 1.407-1.502.939-.676 1.677-1.05 2.694-1.66.301-.181 1.209-.638 1.313-.85.205-.417-.353-1.006-.502-1.333-.236-.518-.359-.958-.393-1.469a2.835 2.835 0 0 1-1.891-1.215c-.646-.947-1.094-2.7-.535-4.034.044-.105.263-.311.295-.472.063-.318-.12-.74-.131-1.078-.059-1.733.293-3.226 1.46-3.75.473-1.886 2.169-2.514 3.766-3.451.597-.35 1.255-.575 1.935-.825 2.438-.897 6.179-.728 8.203.802.858.65 2.229 2.02 2.72 3.012 1.296 2.619 1.204 6.996.297 10.182-.121.428-.298 1.057-.545 1.571-.172.359-.707 1.077-.642 1.394.067.327 1.22 1.202 1.466 1.44.446.43 1.291 1 1.359 1.54.074.577-.254 1.366-.42 1.922-.554 1.856-1.095 3.572-1.724 5.227" fill="#1274CC"/>
  <path d="M141.508 42.787c.071-.094.457-.236.999.025 0 0-.642.106-.588 1.176l-.267-.054s-.277-.97-.144-1.147" fill="#F2F9FF"/>
  <path d="M146.196 51.977a.294.294 0 1 1-.589 0 .294.294 0 0 1 .589 0Zm.294 1.363a.295.295 0 1 1-.59 0 .295.295 0 0 1 .59 0M177.295 41.384c-.301.038-.557.075-.767.113a9.826 9.826 0 0 0-.71.158c-.308.083-.506.23-.592.44-.086.21-.13.451-.13.722v8.822c0 .812-.163 1.557-.49 2.234a4.872 4.872 0 0 1-1.347 1.703 6.217 6.217 0 0 1-1.939 1.021 7.44 7.44 0 0 1-2.289.344c-1.405 0-2.538-.338-3.398-1.014-.861-.677-1.291-1.605-1.291-2.785 0-.699.197-1.277.592-1.736.394-.458.937-.688 1.629-.688.653 0 1.174.192 1.561.575.387.384.58.857.58 1.42 0 .482-.167.927-.501 1.337a7.76 7.76 0 0 1-1.145 1.133v.146c.068.15.215.278.441.383.226.106.456.158.69.158.904 0 1.614-.323 2.131-.97.516-.647.774-1.625.774-2.933V42.93c0-.27-.041-.496-.124-.677-.084-.18-.284-.339-.601-.474-.226-.098-.5-.18-.821-.248a12.58 12.58 0 0 0-.799-.147v-.879h8.545v.88h.001Zm13.369 12.423c-.263.429-.58.833-.952 1.212a5.78 5.78 0 0 1-1.269.976 6.938 6.938 0 0 1-1.527.648c-.515.146-1.107.22-1.776.22-1.112 0-2.072-.158-2.88-.474-.808-.316-1.475-.74-2.001-1.274a5.094 5.094 0 0 1-1.178-1.888 6.971 6.971 0 0 1-.389-2.362 5.914 5.914 0 0 1 1.624-4.08c.511-.534 1.155-.966 1.933-1.297.778-.33 1.648-.496 2.61-.496 1.052 0 1.916.128 2.593.383.676.256 1.236.61 1.679 1.06.429.428.741.934.936 1.516.195.583.293 1.193.293 1.832v.733h-7.621c0 1.54.297 2.713.891 3.517.594.804 1.537 1.206 2.83 1.206.706 0 1.341-.193 1.905-.58a5.425 5.425 0 0 0 1.443-1.471l.856.62Zm-4.306-4.283c0-.451-.022-.914-.067-1.387-.045-.473-.124-.86-.237-1.161-.128-.353-.303-.62-.524-.8-.222-.18-.502-.271-.84-.271-.579 0-1.041.293-1.387.88-.346.585-.534 1.514-.564 2.784l3.619-.045Zm20.269 6.977h-6.775v-.822l.519-.057c.203-.023.356-.06.462-.113a.717.717 0 0 0 .338-.36c.068-.158.101-.391.101-.7v-5.275c0-.767-.141-1.343-.424-1.73-.282-.387-.699-.581-1.249-.581-.301 0-.582.045-.842.135a3.15 3.15 0 0 0-.763.395c-.219.15-.394.304-.526.462-.114.136-.225.276-.333.417v6.054c0 .263.038.483.113.66.075.176.199.31.372.4.12.067.27.127.45.18.181.053.357.09.53.113v.822h-6.854v-.822c.191-.016.38-.036.57-.063.191-.026.355-.062.49-.107.241-.082.406-.21.496-.383.09-.173.135-.398.135-.676v-6.562c0-.232-.06-.462-.18-.687a1.613 1.613 0 0 0-.473-.552 1.886 1.886 0 0 0-.513-.226 3.633 3.633 0 0 0-.682-.124v-.823l5.377-.293.169.17v1.634h.045c.255-.227.51-.452.767-.677a7.3 7.3 0 0 1 .834-.642c.278-.18.643-.334 1.093-.462a5.275 5.275 0 0 1 1.443-.192c1.225 0 2.144.348 2.757 1.043.612.695.918 1.617.918 2.767v5.524c0 .279.041.5.124.665.083.166.237.297.462.395.12.053.269.105.446.158.176.052.377.09.603.112v.823Zm15.512 0h-5.314a45.168 45.168 0 0 0-1.79-2.917 152.372 152.372 0 0 0-1.532-2.221l-.664.562v2.457c0 .27.039.492.118.665.079.173.231.301.457.384a3.39 3.39 0 0 0 1.014.248v.822h-7v-.823c.189-.015.378-.035.567-.062.189-.026.356-.062.499-.107.242-.082.407-.21.494-.383.087-.173.131-.398.131-.676V41.88c0-.248-.055-.505-.164-.772a1.258 1.258 0 0 0-.479-.603c-.143-.09-.357-.165-.643-.226a5.53 5.53 0 0 0-.778-.112v-.823l5.614-.294.169.18v11.634a95.51 95.51 0 0 0 1.875-1.724 61.184 61.184 0 0 0 1.672-1.624c.248-.255.385-.448.412-.58a1.89 1.89 0 0 0 .039-.242c0-.136-.119-.248-.356-.339-.237-.09-.594-.169-1.071-.236v-.8h5.727v.777c-.751.21-1.323.408-1.717.592-.394.184-.823.43-1.289.738-.305.202-.604.415-.894.638-.288.223-.62.5-.995.831.736 1.067 1.414 2.055 2.037 2.964.623.909 1.276 1.87 1.958 2.884.233.353.522.59.867.71s.691.195 1.036.225v.824Zm7.249 0h-7.125v-.822c.195-.015.387-.034.575-.057.188-.023.349-.06.485-.113.24-.09.409-.22.507-.389.097-.169.146-.392.146-.67v-6.562c0-.262-.06-.494-.18-.693a1.498 1.498 0 0 0-.451-.479c-.135-.09-.34-.176-.614-.259a3.982 3.982 0 0 0-.75-.158v-.823l5.524-.293.169.17v8.95c0 .263.057.487.169.671.113.184.275.321.485.411.15.068.316.128.496.18.18.053.368.09.564.114v.822Zm-1.646-15.376c0 .572-.22 1.058-.66 1.46-.44.402-.96.603-1.561.603a2.251 2.251 0 0 1-1.573-.603c-.439-.402-.659-.889-.659-1.46s.22-1.06.659-1.465a2.24 2.24 0 0 1 1.573-.61c.609 0 1.131.204 1.567.61.436.406.654.894.654 1.465Zm17.563 15.377h-6.775v-.824c.143-.014.316-.033.519-.056a1.43 1.43 0 0 0 .462-.113.713.713 0 0 0 .338-.36c.067-.158.101-.391.101-.7v-5.275c0-.767-.141-1.343-.424-1.73-.282-.387-.699-.581-1.249-.581-.301 0-.582.045-.842.135a3.15 3.15 0 0 0-.763.395c-.219.15-.394.304-.525.462-.115.136-.226.276-.334.417v6.054c0 .263.037.483.113.66.075.176.199.31.372.4.12.067.27.127.45.18.181.053.357.09.53.113v.822h-6.854v-.822c.191-.016.381-.036.57-.063.191-.026.355-.062.49-.107.241-.082.406-.21.496-.383.09-.173.135-.398.135-.676v-6.562c0-.232-.06-.462-.18-.687a1.613 1.613 0 0 0-.473-.552 1.886 1.886 0 0 0-.513-.226 3.633 3.633 0 0 0-.682-.124v-.823l5.377-.293.169.17v1.634h.045c.255-.227.51-.452.767-.677a7.3 7.3 0 0 1 .834-.642c.278-.18.643-.334 1.093-.462a5.275 5.275 0 0 1 1.443-.192c1.225 0 2.144.348 2.757 1.043.612.695.918 1.617.918 2.767v5.524c0 .279.041.5.124.665.083.166.237.297.462.395.121.053.269.105.446.158.176.052.377.09.603.112v.823Zm6.268.383a7.215 7.215 0 0 1-2.136-.321c-.695-.215-1.234-.442-1.618-.682l-.338.766h-.879l-.147-4.205h.823c.113.338.301.72.564 1.144.263.425.564.806.902 1.145.353.338.757.623 1.212.857.454.233.941.349 1.46.349.683 0 1.193-.133 1.527-.4.334-.267.502-.678.502-1.235 0-.3-.075-.548-.226-.744a1.922 1.922 0 0 0-.62-.507 5.722 5.722 0 0 0-.964-.383c-.349-.105-.779-.233-1.29-.384-.512-.15-.949-.302-1.314-.456-.364-.154-.742-.397-1.133-.727a3.325 3.325 0 0 1-.811-1.06c-.203-.413-.305-.905-.305-1.477 0-1.06.446-1.916 1.336-2.57.891-.654 2.058-.98 3.501-.98.683 0 1.313.069 1.888.208.575.14 1.058.291 1.449.456l.236-.665h.857l.18 3.844h-.789a4.659 4.659 0 0 0-1.353-2.023c-.638-.567-1.326-.851-2.063-.851-.578 0-1.033.12-1.364.36-.33.241-.496.576-.496 1.004 0 .571.242.985.726 1.24.484.256 1.161.496 2.031.721 1.343.346 2.326.818 2.949 1.415.623.598.934 1.359.934 2.283 0 1.233-.483 2.187-1.449 2.863-.965.677-2.226 1.015-3.782 1.015Z" fill="#1274CC"/>
</svg>
