<svg width="382" height="96" fill="none" xmlns="http://www.w3.org/2000/svg">
  <path fill="#fff" d="M0 0h382v96H0z"/>
  <path d="M120.686 56.75v2.477a.675.675 0 0 1-1.03.573l-1.152-.74-.276-.156c-.02-.01-1.613-.932-5.076-2.935l-.275-.157a1.743 1.743 0 0 1-.876-1.527L112 41.932c0-.328.093-.648.265-.924.171-.276.418-.503.675-.627l5.006-2.894.274-.16.276-.158 4.795-2.769.28-.166a1.748 1.748 0 0 1 1.827.05l4.99 2.884.276.156 5.073 2.934.277.158a1.744 1.744 0 0 1 .875 1.526l.001 5.62c0 .52-.563.844-1.012.584l-2.153-1.245a.673.673 0 0 1-.337-.584v-3.376l-4.384-2.535a10.166 10.166 0 0 1-.36-.205l-4.199-2.431-4.369 2.523-.067.044-.309.18-4.198 2.424v10.346l4.386 2.536c.028.014.088.048.368.21l.09.08.075.1a.675.675 0 0 1 .265.536Zm12.702-6.37a.674.674 0 0 1 1.011-.585l2.153 1.24c.209.121.338.344.338.585v2.053a.675.675 0 0 1-.192.471l-1.015 1.035c-.381.487-.94.68-1.438.393l-8.001-4.638-.002 8.752a.99.99 0 0 1-.365.857l-1.476 1.192a.99.99 0 0 1-1.665-.727l.001-12.102-1.348-.78-.682.393c-.032.022-.021.016-.709.413a.994.994 0 0 1-1.374-.348l-.38-.656-.376-.65a.995.995 0 0 1 .35-1.374l.662-.38 1.641-.945.296-.167a.992.992 0 0 1 1.072-.05l.374.218 11.125 6.43v-.63Z" fill="#1274CC"/>
  <path fill-rule="evenodd" clip-rule="evenodd" d="M144.069 53.738a.456.456 0 0 1-.331-.14.45.45 0 0 1-.142-.331V41.008a.47.47 0 0 1 .473-.471h2.651c.139 0 .252.044.341.132a.46.46 0 0 1 .132.339v9.77h5.68c.139 0 .256.047.35.14.095.095.142.212.142.35v1.999a.441.441 0 0 1-.142.34.493.493 0 0 1-.35.131h-8.804Zm10.148 0a.379.379 0 0 1-.274-.122.378.378 0 0 1-.123-.274c0-.075.006-.132.019-.17l4.411-12.088c.126-.365.379-.547.757-.547h2.954c.379 0 .631.182.757.547l4.412 12.089a.557.557 0 0 1 .019.17c0 .1-.041.191-.123.273a.381.381 0 0 1-.275.122h-2.461a.657.657 0 0 1-.644-.415l-.682-1.829h-4.96l-.682 1.83a.656.656 0 0 1-.643.414h-2.462Zm4.582-5.073h3.37l-1.685-4.81-1.685 4.81Zm10.281 5.073a.493.493 0 0 1-.35-.132.441.441 0 0 1-.142-.339v-12.24c0-.138.047-.255.142-.349a.475.475 0 0 1 .35-.141h2.139c.316 0 .543.138.682.414l3.256 5.81 3.276-5.81c.139-.276.366-.414.681-.414h2.14c.139 0 .256.047.35.141.095.094.142.21.142.349v12.24a.441.441 0 0 1-.142.34.493.493 0 0 1-.35.131h-2.405a.456.456 0 0 1-.331-.14.455.455 0 0 1-.142-.331v-6.865l-2.045 3.734c-.164.29-.385.434-.662.434h-1.023c-.252 0-.473-.145-.662-.434l-2.026-3.734v6.865a.445.445 0 0 1-.142.34.497.497 0 0 1-.35.131h-2.386Zm15.714 0a.456.456 0 0 1-.331-.14.455.455 0 0 1-.142-.331v-12.24c0-.138.044-.255.133-.349a.445.445 0 0 1 .34-.141h5.851c1.603 0 2.796.327 3.578.98.783.654 1.174 1.584 1.174 2.792 0 .603-.161 1.125-.483 1.565-.321.44-.678.76-1.069.962.517.226.953.6 1.306 1.122.353.522.53 1.11.53 1.763 0 1.27-.42 2.257-1.259 2.961-.839.704-2.042 1.056-3.607 1.056h-6.021Zm5.453-7.977c.467 0 .827-.126 1.08-.378.252-.251.378-.578.378-.98 0-.39-.123-.707-.369-.953-.246-.245-.609-.367-1.089-.367h-2.366v2.678h2.366Zm.171 5.431c.492 0 .874-.141 1.145-.424.271-.283.407-.632.407-1.047 0-.427-.139-.782-.416-1.065-.278-.283-.657-.425-1.136-.425h-2.537v2.961h2.537Zm7.762 2.546a.456.456 0 0 1-.331-.14.45.45 0 0 1-.142-.331v-12.24c0-.138.044-.255.132-.349a.447.447 0 0 1 .341-.141h4.98c1.868 0 3.319.443 4.354 1.33 1.035.886 1.578 2.159 1.628 3.818.013.365.02.849.02 1.453 0 .603-.007 1.08-.02 1.433-.126 3.445-2.089 5.167-5.888 5.167h-5.074Zm4.98-2.828c.795 0 1.382-.189 1.761-.566.378-.377.58-.981.605-1.81.026-.365.038-.837.038-1.415 0-.579-.012-1.044-.038-1.396-.025-.805-.243-1.399-.653-1.782-.41-.384-1.013-.576-1.808-.576h-1.799v7.544h1.894Zm7.422 2.828a.381.381 0 0 1-.275-.122.378.378 0 0 1-.123-.274c0-.075.006-.132.019-.17l4.411-12.088c.127-.365.379-.547.758-.547h2.953c.379 0 .631.182.757.547l4.412 12.089a.557.557 0 0 1 .019.17c0 .1-.041.191-.123.273a.38.38 0 0 1-.275.122h-2.461a.657.657 0 0 1-.644-.415l-.681-1.829h-4.961l-.682 1.83a.656.656 0 0 1-.643.414h-2.461Zm4.581-5.073h3.37l-1.685-4.81-1.685 4.81ZM227.445 53.927a.495.495 0 0 1-.35-.132.441.441 0 0 1-.142-.34V43.8h-3.332a.498.498 0 0 1-.351-.132.445.445 0 0 1-.142-.34v-2.112c0-.138.048-.254.142-.348a.479.479 0 0 1 .351-.142h10.28c.139 0 .256.047.351.142.094.094.142.21.142.348v2.113a.445.445 0 0 1-.142.34.498.498 0 0 1-.351.131h-3.332v9.656a.441.441 0 0 1-.142.34.495.495 0 0 1-.35.132h-2.632Zm9.088 0a.454.454 0 0 1-.331-.142.45.45 0 0 1-.142-.33v-12.24c0-.138.044-.254.132-.348a.447.447 0 0 1 .341-.142h8.936c.139 0 .256.047.351.142.095.094.142.21.142.348v1.867a.44.44 0 0 1-.142.34.496.496 0 0 1-.351.132h-5.982v2.395h5.566c.139 0 .255.047.35.142.095.094.142.21.142.349v1.716a.472.472 0 0 1-.142.349.477.477 0 0 1-.35.141h-5.566v2.452h6.134c.139 0 .256.047.35.141.095.095.142.21.142.35v1.866a.441.441 0 0 1-.142.34.493.493 0 0 1-.35.132h-9.088Zm16.699.188c-1.224 0-2.265-.175-3.124-.528-.858-.352-1.508-.817-1.95-1.396-.442-.578-.675-1.206-.7-1.885 0-.113.041-.208.123-.283a.417.417 0 0 1 .293-.113h2.518c.151 0 .275.025.369.075.095.05.199.138.313.264.164.302.419.55.767.745.347.195.81.292 1.391.292.682 0 1.206-.104 1.572-.31.366-.208.549-.494.549-.859a.836.836 0 0 0-.284-.65c-.19-.17-.492-.321-.909-.453a19.705 19.705 0 0 0-1.799-.443c-1.527-.302-2.669-.761-3.427-1.377-.757-.616-1.135-1.496-1.135-2.64 0-.78.217-1.475.653-2.084.435-.61 1.053-1.085 1.855-1.424.801-.34 1.733-.51 2.793-.51 1.11 0 2.073.192 2.887.575.814.384 1.439.862 1.875 1.434.435.572.665 1.135.69 1.688 0 .113-.037.21-.113.292a.372.372 0 0 1-.284.123h-2.651a.729.729 0 0 1-.643-.34c-.077-.264-.272-.487-.587-.67-.316-.181-.707-.273-1.174-.273-.53 0-.941.095-1.231.283-.29.189-.436.465-.436.83 0 .365.19.65.569.858.378.208 1.085.418 2.12.632 1.187.214 2.13.48 2.83.802.701.32 1.218.735 1.553 1.244.335.51.502 1.154.502 1.933 0 .855-.246 1.597-.739 2.226-.492.628-1.173 1.11-2.044 1.443-.871.333-1.869.5-2.992.5Zm11-.188a.495.495 0 0 1-.35-.132.441.441 0 0 1-.142-.34V43.8h-3.332a.493.493 0 0 1-.35-.132.442.442 0 0 1-.142-.34v-2.112c0-.138.047-.254.142-.348a.475.475 0 0 1 .35-.142h10.28c.139 0 .256.047.351.142.094.094.142.21.142.348v2.113a.445.445 0 0 1-.142.34.498.498 0 0 1-.351.131h-3.332v9.656a.441.441 0 0 1-.142.34.493.493 0 0 1-.35.132h-2.632Z" fill="#1274CC"/>
</svg>
