<svg width="382" height="96" fill="none" xmlns="http://www.w3.org/2000/svg">
  <path fill="#fff" d="M0 0h382v96H0z"/>
  <path d="M156.42 41.238h-5.252V37.73h14.295v3.508h-5.251v13.747h-3.792V41.238Z" fill="#1274CC"/>
  <path d="M161.53 48.456v-.04c0-3.772 2.676-6.874 6.529-6.874 4.4 0 6.427 3.427 6.427 7.178 0 .304-.02.649-.04.993h-9.185c.365 1.704 1.561 2.596 3.224 2.596 1.257 0 2.169-.385 3.203-1.359l2.15 1.906c-1.237 1.521-3.001 2.474-5.394 2.474-3.974-.04-6.914-2.839-6.914-6.874Zm9.327-1.115c-.223-1.683-1.217-2.818-2.778-2.818s-2.555 1.115-2.859 2.818h5.637ZM174.75 51.194v-.041c0-2.88 2.19-4.218 5.312-4.218 1.339 0 2.292.223 3.224.548v-.223c0-1.561-.953-2.413-2.838-2.413-1.42 0-2.433.264-3.65.71l-.933-2.86c1.46-.648 2.879-1.054 5.13-1.054 2.048 0 3.528.548 4.461 1.48.994.994 1.419 2.434 1.419 4.218v7.664h-3.629v-1.419c-.913 1.014-2.17 1.683-3.995 1.683-2.473-.04-4.501-1.46-4.501-4.075Zm8.597-.872v-.67c-.649-.304-1.48-.486-2.392-.486-1.602 0-2.596.649-2.596 1.825v.04c0 1.014.832 1.602 2.048 1.602 1.744.02 2.94-.953 2.94-2.311ZM187.646 41.785h3.751v1.866c.872-1.116 1.988-2.109 3.893-2.109 1.724 0 3.022.77 3.711 2.088 1.156-1.358 2.535-2.088 4.339-2.088 2.778 0 4.461 1.683 4.461 4.846v8.597h-3.751v-7.36c0-1.764-.791-2.677-2.19-2.677s-2.271.913-2.271 2.677v7.36h-3.751v-7.36c0-1.764-.791-2.677-2.19-2.677s-2.271.913-2.271 2.677v7.36h-3.751v-13.2h.02ZM208.227 46.408v-.04c0-4.907 3.69-8.922 8.982-8.922 3.244 0 5.191 1.075 6.793 2.656l-2.393 2.778c-1.338-1.216-2.676-1.946-4.4-1.946-2.899 0-5.008 2.413-5.008 5.373v.04c0 2.96 2.048 5.414 5.008 5.414 1.967 0 3.183-.79 4.542-2.027l2.413 2.433c-1.764 1.906-3.751 3.082-7.077 3.082-5.089.04-8.86-3.893-8.86-8.84ZM224.529 37h3.934v3.325h-3.934V37Zm.102 4.785h3.751v13.2h-3.751v-13.2ZM230.592 51.234V44.99h-1.582v-3.204h1.582V38.4h3.751v3.366h3.102v3.204h-3.102v5.637c0 .871.365 1.277 1.217 1.277.689 0 1.297-.182 1.845-.466v3.02c-.791.467-1.704.771-2.961.771-2.291 0-3.852-.912-3.852-3.974ZM247.685 41.785h3.893l-5.069 13.525c-1.014 2.676-2.089 3.69-4.339 3.69-1.359 0-2.373-.345-3.326-.913l1.258-2.717c.486.305 1.115.528 1.601.528.649 0 .994-.203 1.298-.872l-5.17-13.261h3.974l3.001 8.982 2.879-8.962ZM147.235 37.75H130v17.235h17.235V37.75Z" fill="#1274CC"/>
  <path d="M132.92 40.772h-1.318V39.9h3.569v.872h-1.318v3.426h-.933v-3.426ZM135.231 42.07c0-1.238.933-2.252 2.251-2.252.811 0 1.298.264 1.703.67l-.608.689c-.324-.304-.669-.487-1.095-.487-.73 0-1.257.608-1.257 1.339v.02c0 .73.507 1.358 1.257 1.358.487 0 .791-.202 1.136-.507l.608.609c-.446.466-.933.77-1.764.77-1.298 0-2.231-.973-2.231-2.21M138.07 51.761h-6.468v1.075h6.468V51.76Z" fill="#fff"/>
</svg>
