<svg width="383" height="96" fill="none" xmlns="http://www.w3.org/2000/svg">
  <path fill="#fff" d="M0 0h383v96H0z"/>
  <path d="M181.268 44.627h-4.264V42.42h11.123v2.207h-4.247v12.551h-2.613v-12.56l.001.009Zm6.615 1.47h2.156l.181 1.962h.082c.792-1.446 1.961-2.23 3.145-2.23.571 0 .923.064 1.266.229l-.458 2.254a3.576 3.576 0 0 0-1.144-.18c-.882 0-1.943.605-2.614 2.287v6.753h-2.615V46.089l.001.008ZM201.79 50.1c-.024-1.183-.533-2.172-2.009-2.172-1.102 0-2.139.49-3.102 1.076l-.955-1.74c1.226-.767 2.777-1.445 4.532-1.445 2.777 0 4.125 1.69 4.125 4.778v6.565h-2.123l-.196-1.226h-.082c-.981.832-2.123 1.486-3.43 1.486-1.936 0-3.291-1.306-3.291-3.25 0-2.369 1.984-3.61 6.516-4.108l.015.036Zm-2.425 5.3c.915 0 1.61-.442 2.425-1.21v-2.483c-3.005.392-4.001 1.183-4.001 2.286 0 .981.653 1.421 1.584 1.421l-.008-.015Zm5.756-9.31h2.638l1.764 5.75.923 3.346h.082l.955-3.347 1.764-5.74h2.507l-3.756 11.074h-3.023l-3.854-11.083Zm11.597-3.405c0-.882.678-1.486 1.609-1.486.923 0 1.601.604 1.601 1.486 0 .849-.678 1.47-1.601 1.47-.923 0-1.609-.62-1.609-1.47Zm.294 3.405h2.614v11.09h-2.614v-11.09Zm5.308 8.143c.997.768 1.943 1.242 3.07 1.242 1.194 0 1.755-.571 1.755-1.332 0-.93-1.183-1.34-2.368-1.797-1.454-.531-3.102-1.365-3.102-3.22 0-1.943 1.552-3.314 4.042-3.314 1.527 0 2.777.64 3.675 1.332l-1.2 1.578c-.767-.572-1.552-.949-2.449-.949-1.102 0-1.617.533-1.617 1.226 0 .85 1.102 1.226 2.286 1.633 1.519.57 3.185 1.306 3.185 3.372 0 1.878-1.519 3.43-4.312 3.43-1.51 0-3.101-.653-4.197-1.552l1.226-1.666.006.017Zm20.007-12.087c1.797 0 3.267.874 4.197 1.878l-1.445 1.61c-.768-.746-1.601-1.226-2.729-1.226-2.417 0-4.148 2.041-4.148 5.349 0 3.346 1.601 5.39 4.059 5.39 1.306 0 2.286-.547 3.119-1.471l1.446 1.6c-1.183 1.373-2.718 2.14-4.59 2.14-3.741 0-6.696-2.712-6.696-7.594 0-4.835 3.022-7.701 6.822-7.701l-.035.025Zm6.091.27h2.614v14.764h-2.614V42.412v.003Z" fill="#1274CC"/>
  <path d="M140.876 45.894s-6.432 4.528-6.683 6.252l.483-.099s7.702-5.105 13.807-5.725l.139-.776-7.745.35-.001-.002Zm10.098-.647-5.065 3.594.274.22c.207-.167 9-2.853 9-2.853l1.854-1.162c-1.244.155-6.061.201-6.061.201h-.002Zm4.403 4.347c3.597 0 8.99-3.524 8.99-3.524l-1.743-.331c-.087.086-2.811-.096-2.811-.096l-1.294-.36-3.09 3.522-.252.611c.223-.09.2.178.2.178Zm11.739 11.236-1.111.313-5.135-.11-3.212-2.499-3.883.972-4.491-.389-2.514 2.748-4.719 1.41-2.356-.73-.118-.103 1.057 2.59s2.395 2.567 3.733 2.87c1.338.301 3.755-.023 5.567-.303 1.813-.28 3.259-.93 3.841-1.985.583-1.055.669-1.36.669-1.36s1.727 2.439 3.216 2.72c1.488.28 5.912-1.23 5.912-1.23s2.698-.735 3.172-1.662c.475-.928 1.727-3.969 1.727-3.969l-1.355.72v-.003Zm-26.927 2.11-.074-.035-.416-.358.491.393h-.001Z" fill="#76BBF4"/>
  <path d="m171.478 42.486-.041-.415-.044-.295a8.446 8.446 0 0 0-1.231-.84 16.26 16.26 0 0 0-1.48-.758l-1.542-.663-.785-.305-.792-.294 1.656.36 1.063.304c-2.504-6.543-8.489-10.804-15.024-10.804-6.536 0-12.521 4.261-15.024 10.804.352-.11.706-.212 1.061-.305a19.398 19.398 0 0 1 1.658-.36l-.794.295-.787.305c-.521.21-1.037.425-1.542.663-.507.23-1.004.48-1.479.757a8.55 8.55 0 0 0-1.232.841 5.42 5.42 0 0 0-.041.294 7.199 7.199 0 0 0-.041.416 12.14 12.14 0 0 0 .066 2.514c.077.556.179 1.108.33 1.643a7.29 7.29 0 0 0 .5 1.341l.035.067.126.063.249.118.489.228a.294.294 0 0 0 .025-.024l-.462-1.76a39.01 39.01 0 0 1 2.487-.54 7.415 7.415 0 0 1-1.379-.402 4.463 4.463 0 0 1-.477-.23 1.647 1.647 0 0 1-.421-.32c1.661.541 5.093.296 8.144-.02 2.79-.287 5.587-.473 8.398-.479 2.811.006 5.609.192 8.398.48 3.052.315 6.484.56 8.145.018a1.623 1.623 0 0 1-.421.32 4.632 4.632 0 0 1-.477.23 7.487 7.487 0 0 1-1.013.324l-.153.034c1.657.308 2.623.558 2.726.585l-.442 1.674.268-.118.249-.119.125-.062.035-.068a6.501 6.501 0 0 0 .244-.554 8.59 8.59 0 0 0 .256-.787c.151-.534.254-1.087.33-1.643a12.185 12.185 0 0 0 .066-2.514l-.005.001ZM155.14 65.755l-.659.078-.426.02-.05.002.397-.898.738.798Zm.478.487a3.853 3.853 0 0 0 2.46 1.133 13.58 13.58 0 0 1-4.174.957 10.29 10.29 0 0 1-3.405-.366c.081-.015.164-.028.246-.04.093-.01 2.11-.273 3.019-1.625h.309c.15 0 .288-.013.432-.018.339-.03.676-.078 1.009-.146l.104.104v.001Z" fill="#F2F9FF"/>
  <path d="m157.553 45.997-.217.278a17.845 17.845 0 0 1-1.611 1.783l-2.357-.037c-1.335 0-2.616.035-3.831.095 1.715-.713 3.781-1.41 6.014-1.828a23.533 23.533 0 0 1 2-.29h.002Zm-10.055.77c-.613.43-1.305.98-1.977 1.647-1.72.172-3.22.38-4.458.578 1.903-.874 4.075-1.68 6.435-2.228v.002Zm21.013 3.55-.699 4.895-3.351 2.347-8.74-.994-1.316-4.332a.288.288 0 0 0-.229-.2 5.457 5.457 0 0 0-.849-.08c-.239 0-.525.027-.85.08a.288.288 0 0 0-.229.2l-1.282 4.227-8.69 1.934-3.447-2.413-.678-5.493.45-.248.718-.145.639 5.182a.285.285 0 0 0 .122.2l2.369 1.66a.293.293 0 0 0 .227.044l7.146-1.59a.296.296 0 0 0 .159-.097.29.29 0 0 0 .053-.1l1.287-4.236c.345-.089 1.229-.296 2.006-.296.775 0 1.66.207 2.005.296l1.286 4.237c.033.11.129.188.243.202l7.146.811c.069.008.14-.01.197-.05l2.371-1.658a.3.3 0 0 0 .118-.196l.633-4.427 1.185.242v-.002Zm.883-3.07-.615 2.336c-1.258-.277-4.022-.821-7.783-1.188 1.229-.524 2.48-1.18 3.623-2.005 2.239.317 3.882.656 4.775.858Z" fill="#76BBF4"/>
  <path d="M144.196 54.548c.487-.263 1.038-.224 1.902-.223l.289-.001.26-.005c.888-.008 1.627.076 1.614-1.318-.014-1.395-.633-2.521-1.52-2.513-.889.008-1.748 1.15-1.695 2.544.015.363.068.625.154.814-.774.194-.988.672-1 .703h-.004Zm10.678-5.736a9.866 9.866 0 0 1-1.086.768l-1.26.76c-.79.097-1.476.292-1.515.304a.291.291 0 0 0-.196.193l-1.283 4.229-6.86 1.525-2.16-1.513-.628-5.092a69.071 69.071 0 0 1 4.836-.707c-.211.254-.416.519-.61.797l-1.174 1.685 1.709-1.14c.025-.017 1.113-.733 2.893-1.603a78.027 78.027 0 0 1 5.827-.22l1.504.015h.003ZM162.384 53.977c-.008-.033-.195-.594-1.021-.496.095-.207.138-.487.107-.868-.109-1.39-.918-2.497-1.805-2.466-.887.031-1.456 1.185-1.407 2.58.049 1.393.794 1.383 1.681 1.352 1.193-.022 1.848-.389 2.445-.1v-.002Zm4.378-4.007-.618 4.33-2.179 1.525-6.85-.779-1.278-4.209a.29.29 0 0 0-.195-.193c-.042-.012-.89-.254-1.79-.332l.164-.011c.142-.01 2.505-.3 5.326-1.273 3.125.24 5.676.625 7.42.942Z" fill="#F2F9FF"/>
  <path d="M144.196 54.548c.487-.263 1.038-.224 1.902-.223l.289-.001.26-.005c.888-.008 1.627.076 1.614-1.318-.014-1.395-.633-2.521-1.52-2.513-.889.008-1.748 1.15-1.695 2.544.015.363.068.625.154.814-.774.194-.988.672-1 .703h-.004Zm10.678-5.736a9.866 9.866 0 0 1-1.086.768l-1.26.76c-.79.097-1.476.292-1.515.304a.291.291 0 0 0-.196.193l-1.283 4.229-6.86 1.525-2.16-1.513-.628-5.092a69.071 69.071 0 0 1 4.836-.707c-.211.254-.416.519-.61.797l-1.174 1.685 1.709-1.14c.025-.017 1.113-.733 2.893-1.603a78.027 78.027 0 0 1 5.827-.22l1.504.015h.003ZM162.384 53.977c-.008-.033-.195-.594-1.021-.496.095-.207.138-.487.107-.868-.109-1.39-.918-2.497-1.805-2.466-.887.031-1.456 1.185-1.407 2.58.049 1.393.794 1.383 1.681 1.352 1.193-.022 1.848-.389 2.445-.1v-.002Zm4.378-4.007-.618 4.33-2.179 1.525-6.85-.779-1.278-4.209a.29.29 0 0 0-.195-.193c-.042-.012-.89-.254-1.79-.332l.164-.011c.142-.01 2.505-.3 5.326-1.273 3.125.24 5.676.625 7.42.942Z" fill="#F2F9FF"/>
  <path d="M169.752 51.874c.105.087.186.31.095 1.355-.116 1.28-.653 3.525-.986 3.886-.368.071-1.138-.013-1.608-.123.081-.322.104-.476.17-.806l.822-.574a.286.286 0 0 0 .119-.195l.575-4.023c.348.188.707.392.814.48h-.001Zm-30.29 5.251.129.434c-.442.13-1.342.255-1.749.184-.338-.34-.968-2.68-1.105-3.923-.112-1.007-.034-1.225.069-1.31.119-.1.564-.352.949-.559l.521 4.227c.01.081.053.153.121.2l1.066.748h-.001Zm16.619.06-.031.27s-.947.877-2.471 1.074c-1.525.197-2.723-.74-2.723-.74.05.162.122.53.467.844a10.23 10.23 0 0 0-1.801-.069c-.939.05-2.258 1.468-3.186 2.897l-3.527 1.083a18.715 18.715 0 0 1-2.371-4.534h.002l-.091-.263.395.277.977.683.326.227a.287.287 0 0 0 .228.046l8.977-1.999a.286.286 0 0 0 .212-.196l1.281-4.217a4.4 4.4 0 0 1 .581-.045c.167 0 .361.015.582.045l1.318 4.34c.033.11.129.19.241.202l.614.07v.004Zm10.25-.234.29-.203-.155.598a20.723 20.723 0 0 1-1.406 3.443 5.375 5.375 0 0 1-.372.013c-.408 0-.824-.035-1.285-.077l-2.469-.265-2.509-1.987-.105-.087c-.173-.146-.372-.313-.768-.313-.362 0-.89.132-2.17.519.664-.496.668-1.137.668-1.137l.031-.27 8.422.957c.07.008.14-.01.198-.05l1.627-1.14h.003ZM160.132 39.232c.025.749.006 2.107-.343 3.378a.276.276 0 0 0 0 .146l-1.332-.124c.499-1.045.607-2.157.631-2.55.383-.272.764-.598 1.044-.852v.002Zm-12.708.852c.023.392.132 1.502.629 2.546l-1.331.123a.269.269 0 0 0 0-.143c-.348-1.27-.366-2.628-.342-3.379.28.255.662.58 1.044.853Z" fill="#F2F9FF"/>
  <path d="M162.384 53.977c-.599-.289-1.252.078-2.444.1-.887.03-1.632.04-1.681-1.353-.049-1.394.519-2.547 1.406-2.579.888-.031 1.697 1.075 1.806 2.466.03.383-.013.663-.108.868.826-.098 1.013.462 1.021.495v.003Zm-2.787-2.042a.453.453 0 1 0-.016-.908.453.453 0 0 0 .016.908Z" fill="#1274CC"/>
  <path d="M159.596 51.933a.453.453 0 1 0-.017-.907.453.453 0 0 0 .017.907Z" fill="#F2F9FF"/>
  <path d="M148.256 53c.013 1.395-.726 1.31-1.614 1.32l-.26.004a5.965 5.965 0 0 1-.287 0c-.862 0-1.412-.04-1.902.224.012-.03.228-.509 1-.703-.086-.189-.139-.45-.154-.814-.053-1.393.806-2.536 1.695-2.543.888-.008 1.506 1.118 1.52 2.512h.002Zm-1.371-.73a.452.452 0 1 0-.025-.906.453.453 0 1 0 .024.907h.001Z" fill="#1274CC"/>
  <path d="M146.884 52.272a.454.454 0 1 0-.023-.907.454.454 0 0 0 .023.907Z" fill="#F2F9FF"/>
  <path opacity=".8" d="M141.48 43.535s.137-1.797.419-2.486c.145-.355 1.033-.578 1.711-.744.678-.165 1.758-.484 1.968.468.21.952.549 1.646.775 1.953l-.291-3.921-4.665 1.13-.307 3.47.146.275.241-.146h.003Zm23.595 0s-.138-1.797-.42-2.486c-.145-.355-1.032-.578-1.71-.744-.678-.165-1.757-.484-1.969.468-.212.952-.549 1.646-.775 1.953l.291-3.921 4.664 1.13.306 3.469-.145.274-.242-.145" fill="#F2F9FF"/>
  <path opacity=".75" d="M158.484 31.799s-.124 9.404-2.32 9.404h-5.711c-2.196 0-2.373-9.398-2.373-9.398l-1.081 3.189.017 4.378.766.61.349 1.88.487 1.096 9.401.018.435-.785.366-1.323.052-.836 1.038-2.964-1.428-5.27h.002Zm6.917 8.767s.452 3.243 1.648 3.828l-1.675-.505.027-3.323Zm-24.292 0s-.452 3.243-1.648 3.828l1.675-.505-.027-3.323Z" fill="#F2F9FF"/>
  <path d="M165.722 43.874c.569.187 1.142.384 1.661.688a6.565 6.565 0 0 0-.853-.26l-.868-.191-1.756-.274-1.767-.192-1.772-.134c-2.366-.145-4.738-.182-7.11-.184-2.374.001-4.746.045-7.111.185-.591.035-1.181.083-1.771.135-.591.05-1.18.113-1.767.19-.588.072-1.174.165-1.756.275-.292.054-.582.118-.87.19-.289.07-.575.15-.853.26.517-.304 1.092-.502 1.662-.689l.146-.044a.222.222 0 0 1-.009-.037c-.01-.065-.222-1.624.144-3.854a.278.278 0 0 1 .199-.222l.603-.171c.131-4.677 2.057-6.876 2.117-6.944-1.721 2.769-1.705 6.053-1.675 6.818l3.747-1.065c.003 0 .005 0 .009-.002a.317.317 0 0 1 .046-.007h.016c.02-.002.041 0 .061.005l.011.003a.23.23 0 0 1 .046.016l.018.01a.37.37 0 0 1 .037.023c.003.002.007.003.01.007l.007.007.011.009c.086.084.172.168.261.25-.038-1.235.021-4.777 1.707-7.71-.035.103-1.373 4.016-.912 8.401.149.12.302.234.461.34a.283.283 0 0 1 .121.226c.001.015.033 1.413.65 2.602.009.017.015.036.021.055a69.98 69.98 0 0 1 4.612-.148 67.97 67.97 0 0 1 4.611.151.254.254 0 0 1 .023-.059c.617-1.189.649-2.587.649-2.601a.286.286 0 0 1 .124-.227c.158-.108.311-.222.46-.341.462-4.386-.877-8.299-.91-8.402 1.685 2.936 1.746 6.478 1.708 7.71l.26-.248c.004-.003.009-.005.011-.009l.007-.007.011-.006c.012-.01.024-.017.036-.025a.379.379 0 0 1 .065-.025l.011-.002a.23.23 0 0 1 .061-.006l.014.001a.36.36 0 0 1 .048.007l.009.002 3.747 1.065c.03-.765.046-4.051-1.675-6.818.062.068 1.984 2.267 2.116 6.944l.604.171a.284.284 0 0 1 .132.082c.035.04.058.088.067.14.367 2.23.155 3.789.146 3.854a.248.248 0 0 1-.009.038l.147.044h-.007Zm-.682-.2c.029-.25.166-1.612-.124-3.472l-4.239-1.206c.038.719.055 2.276-.353 3.762a.264.264 0 0 1-.021.053c.042.005.085.008.126.014 1.192.136 2.377.327 3.555.585.354.082.708.17 1.059.265h-.003Zm-5.25-1.064c.349-1.271.368-2.63.342-3.379-.279.255-.66.58-1.043.853-.024.392-.133 1.504-.631 2.549l1.332.124a.276.276 0 0 1 0-.145v-.002Zm-11.736.02c-.498-1.044-.606-2.154-.629-2.546a11.61 11.61 0 0 1-1.044-.853c-.025.75-.007 2.11.342 3.379a.279.279 0 0 1 0 .143l1.331-.123Zm-1.846.179a.447.447 0 0 1-.021-.051c-.408-1.486-.392-3.044-.353-3.762l-4.242 1.205c-.286 1.857-.153 3.221-.124 3.472.352-.095.703-.183 1.061-.265a35.54 35.54 0 0 1 1.768-.339 40.418 40.418 0 0 1 1.783-.246l.126-.015h.002Zm11.518-10.887v3.519h-2.494v-1.028h-.563v4.75h.848v2.656h-4.361v-2.656h.845v-4.75h-.558v1.028h-2.492v-3.52h8.777-.002Zm-.749 2.771v-2.025h-7.283v2.025h.995v-1.028h2.06v6.248h-.848v1.158h2.866v-1.158h-.847v-6.248h2.059v1.028h.998Z" fill="#1274CC"/>
  <path d="M151.902 41.071v-1.159h.848v-6.247h-2.06v1.028h-.995v-2.026h7.281v2.026h-.996v-1.028h-2.059v6.247h.847v1.16h-2.866ZM137.345 47.247l1.457-.303-1.286.95-.172-.647h.001Z" fill="#76BBF4"/>
  <path d="M150.657 56.892s.101.654-.814.934c-.916.28-6.714 2.009-7.376 1.915-.661-.094-2.34-1.214-2.34-1.214l-.407-1.448 2.484 1.549 8.452-1.736h.001Zm5.194-.127s-.073.658.854.898c.927.24 6.795 1.715 7.451 1.593.657-.122 2.285-1.315 2.285-1.315l.344-1.464-2.283 1.362-8.651-1.073Z" fill="#F2F9FF"/>
  <path d="M136.873 55.688s.803 1.607 2.101 1.05l.927.34-.092.683-1.947.247-.525-.309-.464-2.009v-.002Zm32.893-.44s-1.313 1.676-2.611 1.12l-.417.27.092.681 1.948.248.525-.31.463-2.008v-.002Zm-20.312 12.625s4.76 2.397 10.15-.866l-1.731-.118s-3.776 1.495-6.766.669l-1.653.315Z" fill="#F2F9FF"/>
  <path d="m154.279 63.45.33.393c.007.01.739.88 1.634 1.768.595.59 1.314.888 2.138.888.281 0 .577-.036.875-.108l.886-.213 2.985-.74c.121-.034.256-.064.398-.097.813-.188 1.928-.447 2.519-1.63l1.487-2.886a27.75 27.75 0 0 0-1.075.52c-.442.233-1.021.345-1.769.345-.445 0-.882-.037-1.365-.08-.967-.09-2.602-.281-2.619-.284l-.125-.014-.099-.079c-.014-.01-1.447-1.152-2.605-2.063l-.128-.106c-.124-.104-.124-.104-.195-.104-.372 0-1.451.335-3.816 1.068l-.146.046-.142-.053c-.016-.006-1.568-.58-3.427-.58-.151 0-.301.005-.452.012-.186.01-1.231.506-2.568 2.621l-.087.136-.153.05c-.022.007-2.323.75-4.762 1.447l-.159.045-.15-.07c-.016-.006-.97-.449-1.879-.866a47.122 47.122 0 0 0 1.687 2.36c.974 1.255 2.201 2.414 4.554 2.414a8.3 8.3 0 0 0 .931-.055c2.394-.27 3.01-.38 3.342-.438.112-.019.201-.035.315-.049.018-.002 1.978-.256 2.528-1.49l.686-1.58.2-.535s.025-.138.066-.18l.005.003a.979.979 0 0 1 .156.187l-.001-.002Zm-14.908-23.937a29.6 29.6 0 0 0-1.542.663c-.506.232-1.003.48-1.479.757-.438.253-.859.53-1.23.843a8.568 8.568 0 0 0-.044.294l-.043.415c-.025.278-.034.559-.037.84a12.36 12.36 0 0 0 .433 3.32c.075.267.159.531.257.786a5.514 5.514 0 0 0 .243.554l.036.068.125.062.249.118.489.226c.01-.007.018-.016.026-.023l-.461-1.76c.097-.026.975-.253 2.487-.54a7.56 7.56 0 0 1-1.38-.402 4.81 4.81 0 0 1-.477-.232 1.61 1.61 0 0 1-.421-.32c1.661.544 5.092.298 8.143-.016 2.791-.288 5.587-.474 8.398-.48 2.811.006 5.609.192 8.398.48 3.053.315 6.485.56 8.145.018a1.608 1.608 0 0 1-.42.32 4.557 4.557 0 0 1-.478.232 7.604 7.604 0 0 1-1.013.323l-.153.034c1.658.307 2.623.557 2.725.585l-.441 1.676.266-.119.249-.118.125-.062.035-.068a6.156 6.156 0 0 0 .245-.554 8.35 8.35 0 0 0 .255-.786 12.03 12.03 0 0 0 .33-1.644 12.203 12.203 0 0 0 .067-2.516 8.286 8.286 0 0 0-.088-.71 8.442 8.442 0 0 0-1.23-.842 16.87 16.87 0 0 0-1.48-.756 29.404 29.404 0 0 0-1.542-.664l-.786-.305-.792-.294c.557.092 1.11.219 1.656.36.357.092.711.195 1.063.306-2.501-6.544-8.489-10.805-15.024-10.805-6.536 0-12.521 4.261-15.024 10.805.352-.11.706-.214 1.062-.306.547-.14 1.1-.268 1.657-.36l-.794.294c-.263.098-.525.2-.785.305v-.002Zm32.954 3.786a11.477 11.477 0 0 1-.388 3.584c-.083.293-.18.583-.29.867a6.336 6.336 0 0 1-.295.64l-.058.106a2.304 2.304 0 0 1-.072.118l-.061.095-.095.049a7.847 7.847 0 0 1-.277.135l-.269.12c-.179.077-.36.15-.541.221l-.344.14-.298 1.133-.266-.065-.016.119c.33.172.977.521 1.198.703.444.367.475.948.377 2.034-.051.558-.236 1.643-.492 2.64-.444 1.714-.679 1.916-.983 1.994-.203.05-.412.077-.622.079-.468 0-1.106.013-1.535-.091-.11.39-.425 1.408-1.048 2.68.031-.016.062-.029.09-.044.768-.403 2.245-1.046 2.307-1.074l1.167-.507-.6 1.123a208.6 208.6 0 0 0-2.079 4.007c-.779 1.558-2.24 1.897-3.114 2.097l-.358.088c-.628.177-1.898.48-3.018.75l-.041.008a13.21 13.21 0 0 1-2.264 1.118c-3.011 1.14-6.185 1.077-9.063.02l-1.9.226c-.342.039-.686.059-1.03.06-2.742 0-4.195-1.392-5.255-2.755-1.136-1.46-2.525-3.627-2.583-3.718l-.801-1.253 1.361.612 3.143 1.447.132-.039a16.642 16.642 0 0 1-2.21-4.471 6.629 6.629 0 0 1-1.697.243 2.34 2.34 0 0 1-.513-.047c-.304-.07-.651-.363-1.122-2.025-.274-.965-.479-2.018-.538-2.56-.118-1.059-.097-1.626.343-1.992.265-.221 1.16-.691 1.345-.788l-.04-.326c-2.842 1.67-4.545 3.146-4.579 3.176L131 55.76l1.448-2.284a22.286 22.286 0 0 1 3.687-4.399l-.144-.06-.269-.122a7.16 7.16 0 0 1-.277-.135l-.095-.049-.061-.094c-.034-.052-.049-.08-.072-.119l-.062-.105-.107-.212a6.624 6.624 0 0 1-.184-.428 9.149 9.149 0 0 1-.29-.868 11.31 11.31 0 0 1-.335-1.779c-.066-.6-.083-1.203-.054-1.805a10.853 10.853 0 0 1 .161-1.348c.03-.155.066-.308.107-.46l.032-.116.084-.066c.474-.372.985-.653 1.505-.903.427-.199.862-.38 1.305-.54 1.228-3.41 3.34-6.433 6.116-8.54 2.87-2.177 6.245-3.328 9.76-3.328 3.515 0 6.89 1.151 9.76 3.33 2.776 2.106 4.888 5.13 6.116 8.537.44.163.876.34 1.305.542.52.249 1.034.53 1.505.903l.084.065.032.117a6.792 6.792 0 0 1 .181.908c.042.298.071.598.086.9l.001-.003Zm-2.479 9.928c.094-1.045.012-1.27-.094-1.355-.107-.09-.465-.292-.814-.482l-.574 4.023a.295.295 0 0 1-.12.195l-.822.575c-.065.329-.089.484-.169.806.47.11 1.24.194 1.607.123.333-.36.871-2.604.985-3.886h.001Zm-1.067-3.648.615-2.336a59.983 59.983 0 0 0-4.774-.857c-1.143.822-2.394 1.479-3.624 2.003 3.762.365 6.526.91 7.783 1.188v.002Zm-.967 5.63.699-4.894-1.184-.242-.633 4.428a.289.289 0 0 1-.118.195l-2.372 1.658a.286.286 0 0 1-.195.05l-7.146-.812a.287.287 0 0 1-.243-.201l-1.287-4.237c-.345-.09-1.23-.296-2.005-.296-.778 0-1.661.207-2.006.296l-1.287 4.237a.29.29 0 0 1-.212.196l-7.145 1.592a.281.281 0 0 1-.227-.045l-2.37-1.66a.292.292 0 0 1-.121-.2l-.638-5.182-.72.146-.449.25.678 5.492 3.445 2.413 8.691-1.933 1.283-4.227a.287.287 0 0 1 .229-.202c.325-.052.609-.079.85-.079.239 0 .525.027.849.08a.284.284 0 0 1 .229.2l1.316 4.332 8.739.994 3.351-2.347-.001-.002Zm-1.668-.912.618-4.33a72.994 72.994 0 0 0-7.42-.941c-2.821.973-5.183 1.262-5.325 1.272l-.165.012c.9.077 1.747.319 1.79.332a.29.29 0 0 1 .195.192l1.279 4.21 6.849.778 2.179-1.525Zm.476 2.448-.291.204-1.627 1.14a.293.293 0 0 1-.197.05l-9.035-1.027a.288.288 0 0 1-.242-.202l-1.319-4.34a4.397 4.397 0 0 0-.578-.045c-.168 0-.362.015-.583.045l-1.279 4.215a.287.287 0 0 1-.212.196l-8.981 2.003a.285.285 0 0 1-.228-.046l-.326-.227-.977-.684v-.002l-.392-.276c.028.09.06.176.091.262l-.002.002c.076.225.833 2.402 2.371 4.532l3.525-1.081c.928-1.43 2.248-2.848 3.187-2.897.165-.008.331-.012.496-.013a11.1 11.1 0 0 1 1.305.082c-.345-.314-.416-.682-.467-.845 0 0 1.198.937 2.723.741 1.525-.197 2.472-1.076 2.472-1.076s-.004.641-.669 1.138c1.278-.387 1.806-.519 2.168-.519.399 0 .596.167.768.314l.105.087 2.509 1.987 2.469.265c.461.042.877.077 1.285.077.132 0 .255-.005.372-.013a20.82 20.82 0 0 0 1.407-3.442c.055-.199.106-.399.153-.6l-.001-.005Zm-3.108-10.664-.006-.002-2.031-.135-2.825-.138a16.54 16.54 0 0 1-.325.46c-.513.694-1.529 1.964-2.833 3.045 1.845-.33 5.046-1.15 7.814-3.081l.207-.148h-.001Zm-6.175.192.216-.277c-.67.068-1.337.165-1.999.29-2.235.419-4.299 1.115-6.015 1.827a79.095 79.095 0 0 1 6.189-.057 17.823 17.823 0 0 0 1.611-1.783h-.002Zm.741 21.1a3.853 3.853 0 0 1-2.46-1.132l-.104-.106a9.13 9.13 0 0 1-1.009.146c-.144.005-.281.018-.432.018l-.223.002-.086-.002c-.908 1.352-2.927 1.615-3.019 1.627-.083.01-.151.02-.246.038a10.29 10.29 0 0 0 3.405.366 13.592 13.592 0 0 0 4.175-.957h-.001Zm-3.596-1.542c.218-.017.437-.045.658-.078a28.813 28.813 0 0 1-.738-.797l-.396.897h.05c.136 0 .285-.014.426-.021Zm-.693-16.253a9.91 9.91 0 0 0 1.085-.767l-1.505-.015c-1.944 0-3.887.074-5.826.22-1.778.87-2.868 1.585-2.894 1.604l-1.709 1.14 1.174-1.685c.194-.28.399-.545.611-.798-1.971.22-3.612.482-4.836.708l.628 5.091 2.16 1.513 6.859-1.525 1.284-4.23a.293.293 0 0 1 .195-.193c.04-.01.724-.206 1.516-.302l1.26-.761h-.002Zm.788-3.883-1.434-.013-2.106.023-1.296.614-.018.01c-.195.095-1.896.953-3.498 2.484a35.84 35.84 0 0 1 6.026-2.504 29.84 29.84 0 0 1 2.326-.614Zm-9.057 2.718a15.387 15.387 0 0 1 1.978-1.646c-2.36.547-4.531 1.352-6.434 2.227 1.238-.2 2.737-.408 4.456-.58Zm.447-2.056a30.98 30.98 0 0 1 2.442-.578l-3.595.167-2.081.138-1.035.092a9.15 9.15 0 0 0-.293.033c-.903.54-4.367 2.714-6.744 5.558 2.31-1.606 6.336-4.019 11.306-5.41ZM139.59 57.56a13.174 13.174 0 0 1-.128-.435l-1.067-.746a.29.29 0 0 1-.121-.2l-.52-4.228c-.385.207-.83.46-.949.56-.103.085-.181.302-.07 1.309.138 1.24.767 3.582 1.106 3.923.406.072 1.307-.053 1.749-.183Zm-.788-10.616-1.457.304.171.646c.417-.333.846-.65 1.286-.95Z" fill="#1274CC"/>
</svg>
