<svg width="30" height="30" viewBox="0 0 30 30" fill="none" xmlns="http://www.w3.org/2000/svg">
<rect width="30" height="30" rx="2" fill="#E1EFFE"/>
<path fill-rule="evenodd" clip-rule="evenodd" d="M9 10C8.46957 10 7.96086 10.2107 7.58579 10.5858C7.21071 10.9609 7 11.4696 7 12V20C7 20.5304 7.21071 21.0391 7.58579 21.4142C7.96086 21.7893 8.46957 22 9 22H21C21.5304 22 22.0391 21.7893 22.4142 21.4142C22.7893 21.0391 23 20.5304 23 20V12C23 11.4696 22.7893 10.9609 22.4142 10.5858C22.0391 10.2107 21.5304 10 21 10H19.414C19.1488 9.99994 18.8945 9.89455 18.707 9.707L17.586 8.586C17.211 8.2109 16.7024 8.00011 16.172 8H13.828C13.2976 8.00011 12.789 8.2109 12.414 8.586L11.293 9.707C11.1055 9.89455 10.8512 9.99994 10.586 10H9ZM15 19C15.394 19 15.7841 18.9224 16.1481 18.7716C16.512 18.6209 16.8427 18.3999 17.1213 18.1213C17.3999 17.8427 17.6209 17.512 17.7716 17.1481C17.9224 16.7841 18 16.394 18 16C18 15.606 17.9224 15.2159 17.7716 14.8519C17.6209 14.488 17.3999 14.1573 17.1213 13.8787C16.8427 13.6001 16.512 13.3791 16.1481 13.2284C15.7841 13.0776 15.394 13 15 13C14.2044 13 13.4413 13.3161 12.8787 13.8787C12.3161 14.4413 12 15.2044 12 16C12 16.7956 12.3161 17.5587 12.8787 18.1213C13.4413 18.6839 14.2044 19 15 19V19Z" fill="#1A56DB"/>
</svg>
