<svg width="30" height="30" viewBox="0 0 30 30" fill="none" xmlns="http://www.w3.org/2000/svg">
<rect width="30" height="30" rx="2" fill="#F1F5F9"/>
<path d="M22.414 7.586C22.0389 7.21106 21.5303 7.00043 21 7.00043C20.4697 7.00043 19.9611 7.21106 19.586 7.586L12 15.172V18H14.828L22.414 10.414C22.7889 10.0389 22.9996 9.53033 22.9996 9C22.9996 8.46967 22.7889 7.96106 22.414 7.586Z" fill="#364152"/>
<path fill-rule="evenodd" clip-rule="evenodd" d="M7 11C7 10.4696 7.21071 9.96086 7.58579 9.58579C7.96086 9.21071 8.46957 9 9 9H13C13.2652 9 13.5196 9.10536 13.7071 9.29289C13.8946 9.48043 14 9.73478 14 10C14 10.2652 13.8946 10.5196 13.7071 10.7071C13.5196 10.8946 13.2652 11 13 11H9V21H19V17C19 16.7348 19.1054 16.4804 19.2929 16.2929C19.4804 16.1054 19.7348 16 20 16C20.2652 16 20.5196 16.1054 20.7071 16.2929C20.8946 16.4804 21 16.7348 21 17V21C21 21.5304 20.7893 22.0391 20.4142 22.4142C20.0391 22.7893 19.5304 23 19 23H9C8.46957 23 7.96086 22.7893 7.58579 22.4142C7.21071 22.0391 7 21.5304 7 21V11Z" fill="#364152"/>
</svg>
