<svg xmlns="http://www.w3.org/2000/svg" width="96" height="96" fill="none" viewBox="0 0 96 96">
  <path fill="url(#paint0_linear)" d="M83.42 69.5a35.01 35.01 0 01-15.96 3.84c-16.27-.01-30.43-11.2-30.43-25.55a10.82 10.82 0 015.64-9.4c-14.7.63-18.49 15.96-18.49 24.94 0 25.4 23.4 27.97 28.45 27.97 2.72 0 6.82-.8 9.28-1.57l.45-.15a44.11 44.11 0 0022.89-18.15 1.37 1.37 0 00-1.83-1.94z"/>
  <path fill="url(#paint1_radial)" d="M83.42 69.5a35.01 35.01 0 01-15.96 3.84c-16.27-.01-30.43-11.2-30.43-25.55a10.82 10.82 0 015.64-9.4c-14.7.63-18.49 15.96-18.49 24.94 0 25.4 23.4 27.97 28.45 27.97 2.72 0 6.82-.8 9.28-1.57l.45-.15a44.11 44.11 0 0022.89-18.15 1.37 1.37 0 00-1.83-1.94z" opacity=".35"/>
  <path fill="url(#paint2_linear)" d="M40.34 86.98a27.22 27.22 0 01-7.82-7.34A27.74 27.74 0 0142.67 38.4c1.08-.5 2.9-1.42 5.34-1.38a11.12 11.12 0 0111.02 10.89c0-.08 8.4-27.36-27.5-27.36-15.09 0-27.5 14.32-27.5 26.88a44 44 0 0057.91 42.31A25.97 25.97 0 0140.38 87l-.03-.01z"/>
  <path fill="url(#paint3_radial)" d="M40.34 86.98a27.22 27.22 0 01-7.82-7.34A27.74 27.74 0 0142.67 38.4c1.08-.5 2.9-1.42 5.34-1.38a11.12 11.12 0 0111.02 10.89c0-.08 8.4-27.36-27.5-27.36-15.09 0-27.5 14.32-27.5 26.88a44 44 0 0057.91 42.31A25.97 25.97 0 0140.38 87l-.03-.01z" opacity=".41"/>
  <path fill="url(#paint4_radial)" d="M56.36 55.16c-.28.37-1.14.86-1.14 1.95 0 .9.59 1.76 1.63 2.49 4.94 3.43 14.26 2.98 14.28 2.98a21.1 21.1 0 0020.86-21.05c.1-7.7-2.75-12.82-3.9-15.09C80.82 12.2 65.1 4 48 4A44 44 0 004 47.38c.16-12.56 12.65-22.7 27.5-22.7 1.2 0 8.06.11 14.43 3.46a24.94 24.94 0 0110.6 10.04c2.13 3.66 2.5 8.3 2.5 10.14 0 1.85-.93 4.58-2.67 6.84z"/>
  <path fill="url(#paint5_radial)" d="M56.36 55.16c-.28.37-1.14.86-1.14 1.95 0 .9.59 1.76 1.63 2.49 4.94 3.43 14.26 2.98 14.28 2.98a21.1 21.1 0 0020.86-21.05c.1-7.7-2.75-12.82-3.9-15.09C80.82 12.2 65.1 4 48 4A44 44 0 004 47.38c.16-12.56 12.65-22.7 27.5-22.7 1.2 0 8.06.11 14.43 3.46a24.94 24.94 0 0110.6 10.04c2.13 3.66 2.5 8.3 2.5 10.14 0 1.85-.93 4.58-2.67 6.84z"/>
  <defs>
    <radialGradient id="paint1_radial" cx="0" cy="0" r="1" gradientTransform="matrix(32.7832 0 0 31.144 58.04 65.34)" gradientUnits="userSpaceOnUse">
      <stop offset=".72" stop-opacity="0"/>
      <stop offset=".95" stop-opacity=".53"/>
      <stop offset="1"/>
    </radialGradient>
    <radialGradient id="paint3_radial" cx="0" cy="0" r="1" gradientTransform="rotate(-81.38 56.23 19.77) scale(49.2972 39.8271)" gradientUnits="userSpaceOnUse">
      <stop offset=".76" stop-opacity="0"/>
      <stop offset=".95" stop-opacity=".5"/>
      <stop offset="1"/>
    </radialGradient>
    <radialGradient id="paint4_radial" cx="0" cy="0" r="1" gradientTransform="rotate(92.29 -3.3 16.33) scale(69.6331 148.304)" gradientUnits="userSpaceOnUse">
      <stop stop-color="#35C1F1"/>
      <stop offset=".11" stop-color="#34C1ED"/>
      <stop offset=".23" stop-color="#2FC2DF"/>
      <stop offset=".31" stop-color="#2BC3D2"/>
      <stop offset=".67" stop-color="#36C752"/>
    </radialGradient>
    <radialGradient id="paint5_radial" cx="0" cy="0" r="1" gradientTransform="matrix(9.3679 32.11853 -26.11882 7.61799 86.52 30.6)" gradientUnits="userSpaceOnUse">
      <stop stop-color="#66EB6E"/>
      <stop offset="1" stop-color="#66EB6E" stop-opacity="0"/>
    </radialGradient>
    <linearGradient id="paint0_linear" x1="24.18" x2="85.48" y1="64.85" y2="64.85" gradientUnits="userSpaceOnUse">
      <stop stop-color="#0C59A4"/>
      <stop offset="1" stop-color="#114A8B"/>
    </linearGradient>
    <linearGradient id="paint2_linear" x1="56.5" x2="18.21" y1="38.26" y2="79.97" gradientUnits="userSpaceOnUse">
      <stop stop-color="#1B9DE2"/>
      <stop offset=".16" stop-color="#1595DF"/>
      <stop offset=".67" stop-color="#0680D7"/>
      <stop offset="1" stop-color="#0078D4"/>
    </linearGradient>
  </defs>
</svg>
