<svg width="99" height="98" viewBox="0 0 99 98" fill="none" xmlns="http://www.w3.org/2000/svg">
    <path d="M49.0383 94.9374C74.3556 94.9374 94.8793 74.621 94.8793 49.5594C94.8793 24.4978 74.3556 4.1814 49.0383 4.1814C23.721 4.1814 3.19727 24.4978 3.19727 49.5594C3.19727 74.621 23.721 94.9374 49.0383 94.9374Z" fill="#F5BB60"/>
    <path d="M44.3607 85.7834C67.1517 85.7834 85.6276 67.4942 85.6276 44.9333C85.6276 22.3725 67.1517 4.08325 44.3607 4.08325C21.5696 4.08325 3.09375 22.3725 3.09375 44.9333C3.09375 67.4942 21.5696 85.7834 44.3607 85.7834Z" fill="#E86F32"/>
    <path d="M49.8268 74.9551C69.5972 74.9551 85.6243 59.0899 85.6243 39.5192C85.6243 19.9485 69.5972 4.08325 49.8268 4.08325C30.0564 4.08325 14.0293 19.9485 14.0293 39.5192C14.0293 59.0899 30.0564 74.9551 49.8268 74.9551Z" fill="#E53D42"/>
    <path d="M52.7029 74.9565C70.8807 74.9565 85.6168 60.3693 85.6168 42.3751C85.6168 24.3809 70.8807 9.7937 52.7029 9.7937C34.5251 9.7937 19.7891 24.3809 19.7891 42.3751C19.7891 60.3693 34.5251 74.9565 52.7029 74.9565Z" fill="#BFD141"/>
    <path d="M50.3165 74.9566C67.1764 74.9566 80.844 61.427 80.844 44.7374C80.844 28.0479 67.1764 14.5183 50.3165 14.5183C33.4567 14.5183 19.7891 28.0479 19.7891 44.7374C19.7891 61.427 33.4567 74.9566 50.3165 74.9566Z" fill="#6DB64C"/>
    <path d="M45.4441 65.4082C59.613 65.4082 71.0992 54.0381 71.0992 40.0124C71.0992 25.9866 59.613 14.6165 45.4441 14.6165C31.2752 14.6165 19.7891 25.9866 19.7891 40.0124C19.7891 54.0381 31.2752 65.4082 45.4441 65.4082Z" fill="#AFDBE7"/>
    <path d="M49.6445 57.0414C61.5068 57.0414 71.123 47.5223 71.123 35.7799C71.123 24.0374 61.5068 14.5183 49.6445 14.5183C37.7823 14.5183 28.166 24.0374 28.166 35.7799C28.166 47.5223 37.7823 57.0414 49.6445 57.0414Z" fill="#57BADF"/>
    <path d="M52.3072 57.139C62.7416 57.139 71.2004 48.7657 71.2004 38.4367C71.2004 28.1077 62.7416 19.7344 52.3072 19.7344C41.8728 19.7344 33.4141 28.1077 33.4141 38.4367C33.4141 48.7657 41.8728 57.139 52.3072 57.139Z" fill="#02B2D6"/>
    <path d="M49.5229 57.0416C58.4195 57.0416 65.6316 49.9023 65.6316 41.0955C65.6316 32.2887 58.4195 25.1494 49.5229 25.1494C40.6262 25.1494 33.4141 32.2887 33.4141 41.0955C33.4141 49.9023 40.6262 57.0416 49.5229 57.0416Z" fill="url(#paint0_radial)"/>
    <path d="M49.5229 57.0416C58.4195 57.0416 65.6316 49.9023 65.6316 41.0955C65.6316 32.2887 58.4195 25.1494 49.5229 25.1494C40.6262 25.1494 33.4141 32.2887 33.4141 41.0955C33.4141 49.9023 40.6262 57.0416 49.5229 57.0416Z" fill="#231F20"/>
    <path d="M53.7683 39.0053C55.3656 39.7148 57.5681 38.2872 58.6879 35.817C59.8076 33.3464 59.4205 30.7687 57.8236 30.0595C56.2259 29.3499 54.0238 30.7776 52.904 33.2478C51.7842 35.7183 52.171 38.2961 53.7683 39.0053Z" fill="white"/>
    <defs>
        <radialGradient id="paint0_radial" cx="0" cy="0" r="1" gradientUnits="userSpaceOnUse" gradientTransform="translate(49.5683 41.0964) scale(16.1471 15.984)">
            <stop stop-color="#797979"/>
            <stop offset="1" stop-color="#4C4C4C"/>
        </radialGradient>
    </defs>
</svg>
