<svg width="99" height="98" viewBox="0 0 99 98" fill="none" xmlns="http://www.w3.org/2000/svg">
    <g clip-path="url(#clip0)">
        <g filter="url(#filter0_d)">
            <path d="M49.5 93.9166C74.5599 93.9166 94.875 73.8067 94.875 48.9999C94.875 24.1931 74.5599 4.08325 49.5 4.08325C24.4401 4.08325 4.125 24.1931 4.125 48.9999C4.125 73.8067 24.4401 93.9166 49.5 93.9166Z" fill="url(#paint0_linear)"/>
        </g>
        <path d="M49.4992 90.5477C72.6796 90.5477 91.4711 71.9461 91.4711 48.9998C91.4711 26.0535 72.6796 7.4519 49.4992 7.4519C26.3188 7.4519 7.52734 26.0535 7.52734 48.9998C7.52734 71.9461 26.3188 90.5477 49.4992 90.5477Z" fill="url(#paint1_radial)"/>
        <path d="M49.5708 17.5583C49.2872 17.5583 49.0391 17.3478 49.0391 17.067V9.73298C49.0391 9.45225 49.2872 9.2417 49.5708 9.2417C49.8544 9.2417 50.1025 9.45225 50.1025 9.73298V17.067C50.0671 17.3478 49.8544 17.5583 49.5708 17.5583Z" fill="#F3F3F3"/>
        <path d="M49.5711 17.5933C49.252 17.5933 49.0039 17.3477 49.0039 17.067V9.73291C49.0039 9.45218 49.252 9.20654 49.5711 9.20654C49.8901 9.20654 50.1383 9.45218 50.1383 9.73291V17.067C50.1383 17.3477 49.8547 17.5933 49.5711 17.5933ZM49.5711 9.27673C49.3229 9.27673 49.0748 9.48727 49.0748 9.73291V17.067C49.0748 17.3126 49.2875 17.5231 49.5711 17.5231C49.8192 17.5231 50.0674 17.3126 50.0674 17.067V9.73291C50.0319 9.48727 49.8192 9.27673 49.5711 9.27673Z" fill="white"/>
        <path d="M53.1154 13.628C52.8318 13.5929 52.6191 13.3824 52.6191 13.1017L52.8673 9.83819C52.9027 9.55746 53.1509 9.34691 53.4345 9.382C53.7181 9.41709 53.9308 9.62764 53.9308 9.90837L53.6826 13.1718C53.6472 13.4526 53.399 13.6631 53.1154 13.628Z" fill="#F3F3F3"/>
        <path d="M53.1157 13.6631C52.7967 13.628 52.584 13.3823 52.584 13.1016L52.8321 9.83813C52.8676 9.5574 53.1157 9.31177 53.4348 9.34686C53.7538 9.38195 53.9665 9.62759 53.9665 9.90832L53.7184 13.1718C53.6829 13.4876 53.4348 13.6982 53.1157 13.6631ZM53.4348 9.41704C53.1866 9.41704 52.9385 9.5925 52.9385 9.83813L52.6903 13.1016C52.6903 13.3472 52.8676 13.5578 53.1512 13.5929C53.3993 13.5929 53.6475 13.4174 53.6475 13.1718L53.8956 9.90832C53.8956 9.66268 53.6829 9.45213 53.4348 9.41704Z" fill="white"/>
        <path d="M55.7736 18.19C55.49 18.1198 55.3128 17.8742 55.3482 17.5935L56.8017 10.3998C56.8726 10.119 57.1207 9.94358 57.4043 10.0138C57.6879 10.0839 57.8651 10.3296 57.8297 10.6103L56.3763 17.804C56.3408 18.0496 56.0572 18.2251 55.7736 18.19Z" fill="#F3F3F3"/>
        <path d="M55.7739 18.2249C55.4549 18.1547 55.2776 17.874 55.3131 17.5932L56.7665 10.3995C56.8374 10.1188 57.121 9.90826 57.44 9.97845C57.7591 10.0486 57.9363 10.3294 57.9009 10.6101L56.4474 17.8038C56.3765 18.0845 56.093 18.26 55.7739 18.2249ZM57.44 10.0486C57.1919 10.0135 56.9437 10.1539 56.8728 10.3995L55.4194 17.5932C55.384 17.8389 55.5258 18.0845 55.8094 18.1547C56.0575 18.1898 56.3056 18.0494 56.3765 17.8038L57.83 10.6101C57.8654 10.3294 57.6882 10.1188 57.44 10.0486Z" fill="white"/>
        <path d="M60.0286 15.0317C59.745 14.9615 59.5678 14.6808 59.6387 14.4L60.5249 11.2418C60.5958 10.9611 60.8794 10.8207 61.163 10.8909C61.4466 10.9611 61.6238 11.2418 61.5529 11.5226L60.6667 14.6808C60.5958 14.9615 60.3122 15.1019 60.0286 15.0317Z" fill="#F3F3F3"/>
        <path d="M60.0272 15.067C59.7436 14.9968 59.5309 14.681 59.6372 14.4003L60.5235 11.2421C60.5944 10.9613 60.9134 10.7859 61.197 10.8561C61.4806 10.9262 61.6933 11.2421 61.587 11.5228L60.7007 14.681C60.6298 14.9617 60.3462 15.1372 60.0272 15.067ZM61.197 10.9613C60.9489 10.8911 60.6653 11.0315 60.5944 11.2771L59.7081 14.4353C59.6372 14.681 59.779 14.9266 60.0626 14.9968C60.3108 15.067 60.5944 14.9266 60.6653 14.681L61.5515 11.5228C61.5869 11.2771 61.4452 11.0315 61.197 10.9613Z" fill="white"/>
        <path d="M61.7655 19.9795C61.4819 19.8742 61.3755 19.5584 61.4819 19.3128L64.3178 12.5402C64.4241 12.2945 64.7432 12.1542 64.9913 12.2945C65.2749 12.3998 65.3813 12.7156 65.2749 12.9613L62.439 19.7339C62.3326 19.9795 62.0136 20.1199 61.7655 19.9795Z" fill="#F3F3F3"/>
        <path d="M61.7645 20.0144C61.4809 19.9092 61.3391 19.5933 61.4455 19.3126L64.2814 12.54C64.3877 12.2593 64.7068 12.154 65.0258 12.2593C65.3094 12.3646 65.4512 12.6804 65.3449 12.9611L62.5089 19.7337C62.3671 20.0144 62.0481 20.1548 61.7645 20.0144ZM64.9904 12.3295C64.7422 12.2242 64.4586 12.3295 64.3523 12.5751L61.5164 19.3477C61.41 19.5933 61.5518 19.839 61.8 19.9442C62.0481 20.0495 62.3317 19.9442 62.438 19.6986L65.274 12.926C65.3449 12.7155 65.2385 12.4347 64.9904 12.3295Z" fill="white"/>
        <path d="M66.5509 17.7338C66.3028 17.5935 66.1964 17.3127 66.3028 17.0671L67.7916 14.1545C67.9334 13.9089 68.217 13.8036 68.5006 13.944C68.7488 14.0843 68.8551 14.3651 68.7488 14.6107L67.2599 17.5233C67.1181 17.7689 66.8345 17.8742 66.5509 17.7338Z" fill="#F3F3F3"/>
        <path d="M66.5509 17.7688C66.2673 17.6284 66.161 17.3126 66.3028 17.0319L67.7916 14.1193C67.9334 13.8386 68.2525 13.7333 68.5361 13.8737C68.8197 14.014 68.926 14.3299 68.7842 14.6106L67.2953 17.5231C67.1536 17.8039 66.8345 17.9092 66.5509 17.7688ZM68.5006 13.9439C68.2525 13.8386 67.9689 13.9088 67.8625 14.1544L66.3737 17.067C66.2673 17.2775 66.3737 17.5582 66.5864 17.6986C66.8345 17.8039 67.1181 17.7337 67.2244 17.4881L68.7133 14.5755C68.8197 14.3649 68.7133 14.0842 68.5006 13.9439Z" fill="white"/>
        <path d="M67.2598 22.9272C67.0116 22.7517 66.9407 22.4359 67.118 22.2254L71.2301 16.1546C71.3719 15.909 71.6909 15.8739 71.9391 16.0142C72.1872 16.1897 72.2581 16.5055 72.0809 16.716L67.9688 22.7868C67.827 23.0325 67.5079 23.1026 67.2598 22.9272Z" fill="#F3F3F3"/>
        <path d="M67.2593 22.9627C67.0111 22.7872 66.9402 22.4363 67.082 22.1907L71.1941 16.1199C71.3714 15.8743 71.6904 15.8041 71.974 15.9795C72.2222 16.155 72.2931 16.5059 72.1513 16.7515L68.0392 22.8223C67.8619 23.068 67.5074 23.1381 67.2593 22.9627ZM71.9386 16.0497C71.7259 15.9094 71.4068 15.9445 71.265 16.155L67.1529 22.2258C67.0111 22.4363 67.082 22.717 67.2947 22.8574C67.5074 22.9978 67.8265 22.9627 67.9683 22.7521L72.0804 16.7165C72.2222 16.5059 72.1513 16.1901 71.9386 16.0497Z" fill="white"/>
        <path d="M72.4353 21.6289C72.2226 21.4534 72.1517 21.1376 72.329 20.927L74.385 18.3654C74.5623 18.1548 74.8813 18.1197 75.094 18.2952C75.3067 18.4707 75.3776 18.7865 75.2004 18.997L73.1443 21.5587C72.9671 21.7692 72.648 21.8043 72.4353 21.6289Z" fill="#F3F3F3"/>
        <path d="M72.3988 21.6642C72.1506 21.4887 72.1152 21.1378 72.2924 20.8922L74.3485 18.3305C74.5257 18.0849 74.8802 18.0498 75.1283 18.2603C75.3765 18.4358 75.4119 18.7867 75.2347 19.0323L73.1786 21.594C73.0014 21.8396 72.6469 21.8747 72.3988 21.6642ZM75.0575 18.3305C74.8448 18.155 74.5612 18.1901 74.3839 18.4007L72.3279 20.9623C72.1861 21.1729 72.2215 21.4536 72.4342 21.6291C72.6469 21.8045 72.9305 21.7694 73.1078 21.5589L75.1638 18.9972C75.3056 18.7867 75.2701 18.4709 75.0575 18.3305Z" fill="white"/>
        <path d="M72.0794 26.8925C71.8667 26.6819 71.8667 26.3661 72.0794 26.1907L77.3259 21.0323C77.5386 20.8217 77.8577 20.8568 78.0349 21.0323C78.2122 21.2077 78.2476 21.5586 78.0349 21.7341L72.8239 26.8925C72.6112 27.103 72.2921 27.103 72.0794 26.8925Z" fill="#F3F3F3"/>
        <path d="M72.0443 26.9277C71.8316 26.7171 71.8316 26.3662 72.0443 26.1557L77.2908 20.9973C77.5035 20.7867 77.858 20.7867 78.0706 20.9973C78.2833 21.2078 78.2833 21.5587 78.0706 21.7693L72.8242 26.9277C72.6115 27.1382 72.257 27.1382 72.0443 26.9277ZM78.0352 21.0324C77.858 20.8569 77.5389 20.8569 77.3617 21.0324L72.1152 26.1908C71.9379 26.3662 71.9379 26.682 72.1152 26.8575C72.2924 27.0329 72.6115 27.0329 72.7887 26.8575L78.0352 21.6991C78.2124 21.5236 78.2124 21.2429 78.0352 21.0324Z" fill="white"/>
        <path d="M77.3983 26.6115C77.2211 26.401 77.2211 26.0852 77.4338 25.9097L79.9507 23.8042C80.1634 23.6288 80.4824 23.6639 80.6597 23.8744C80.8369 24.085 80.8369 24.4008 80.6242 24.5762L78.1073 26.6817C77.8946 26.8572 77.5756 26.8221 77.3983 26.6115Z" fill="#F3F3F3"/>
        <path d="M77.3636 26.6468C77.1509 26.4012 77.1864 26.0503 77.3991 25.8748L79.9159 23.7694C80.1286 23.5588 80.4831 23.5939 80.6958 23.8395C80.9085 24.0852 80.8731 24.4361 80.6604 24.6115L78.1435 26.717C77.9308 26.9276 77.5763 26.8925 77.3636 26.6468ZM80.6249 23.8746C80.4477 23.6641 80.1641 23.6641 79.9514 23.8044L77.4345 25.9099C77.2573 26.0854 77.2218 26.3661 77.3991 26.5766C77.5763 26.7872 77.8599 26.7872 78.0726 26.6468L80.5895 24.5414C80.8022 24.3659 80.8022 24.0852 80.6249 23.8746Z" fill="white"/>
        <path d="M75.9793 31.6648C75.8021 31.4191 75.873 31.1033 76.1211 30.9629L82.2893 26.8924C82.5374 26.752 82.8565 26.8222 82.9983 27.0327C83.1755 27.2784 83.1046 27.5942 82.8565 27.7345L76.6883 31.8051C76.4756 31.9455 76.1566 31.8753 75.9793 31.6648Z" fill="#F3F3F3"/>
        <path d="M75.9442 31.665C75.7669 31.4194 75.8378 31.0685 76.086 30.893L82.2541 26.8225C82.5023 26.647 82.8568 26.7172 83.034 26.9979C83.2112 27.2436 83.1404 27.5945 82.8922 27.7699L76.724 31.8405C76.4759 32.016 76.1214 31.9458 75.9442 31.665ZM82.9631 27.0681C82.8213 26.8576 82.5377 26.7874 82.325 26.9277L76.1569 30.9983C75.9442 31.1387 75.8733 31.4194 76.0505 31.665C76.1923 31.8756 76.4759 31.9458 76.6886 31.8054L82.8568 27.7348C83.0695 27.5594 83.1049 27.2786 82.9631 27.0681Z" fill="white"/>
        <path d="M81.2617 32.4018C81.1199 32.1562 81.1908 31.8404 81.439 31.7L84.3104 30.0858C84.5585 29.9455 84.8775 30.0507 85.0193 30.2964C85.1611 30.542 85.0902 30.8578 84.8421 30.9982L81.9707 32.6124C81.7226 32.7527 81.4035 32.6475 81.2617 32.4018Z" fill="#F3F3F3"/>
        <path d="M81.2266 32.4369C81.0848 32.1562 81.1557 31.8404 81.4038 31.7L84.2752 30.0858C84.5233 29.9455 84.8778 30.0507 85.0196 30.2964C85.1614 30.5771 85.0905 30.8929 84.8424 31.0333L81.971 32.6475C81.7229 32.7878 81.3684 32.6826 81.2266 32.4369ZM84.9842 30.3315C84.8424 30.0858 84.5588 30.0156 84.3461 30.156L81.4747 31.7702C81.262 31.9106 81.1911 32.1913 81.2975 32.4018C81.4393 32.6475 81.7229 32.7177 81.9356 32.5773L84.8069 30.9631C85.0196 30.8578 85.0905 30.5771 84.9842 30.3315Z" fill="white"/>
        <path d="M78.8862 37.069C78.7798 36.7882 78.8862 36.5075 79.1698 36.4022L86.0114 33.5949C86.2596 33.4897 86.5786 33.63 86.685 33.8757C86.7913 34.1564 86.685 34.4371 86.4014 34.5424L79.5597 37.3497C79.3115 37.455 78.9925 37.3497 78.8862 37.069Z" fill="#F3F3F3"/>
        <path d="M78.851 37.1043C78.7447 36.8236 78.851 36.5078 79.1346 36.3674L85.9763 33.5601C86.2599 33.4548 86.5789 33.5952 86.6853 33.8759C86.7916 34.1566 86.6853 34.4725 86.4017 34.6128L79.56 37.4201C79.2764 37.5254 78.9573 37.385 78.851 37.1043ZM86.6144 33.911C86.508 33.6654 86.2244 33.5601 86.0117 33.6303L79.17 36.4376C78.9219 36.5428 78.8156 36.8236 78.9219 37.0692C79.0282 37.3148 79.3118 37.4201 79.5245 37.3499L86.3662 34.5427C86.6144 34.4374 86.7207 34.1566 86.6144 33.911Z" fill="white"/>
        <path d="M83.8849 38.8237C83.7786 38.543 83.9204 38.2622 84.204 38.157L87.3235 37.1393C87.5716 37.034 87.8907 37.2095 87.9616 37.4551C88.0679 37.7359 87.9261 38.0166 87.6425 38.1219L84.523 39.1395C84.2749 39.2448 83.9913 39.1044 83.8849 38.8237Z" fill="#F3F3F3"/>
        <path d="M83.8494 38.8587C83.743 38.578 83.8848 38.2622 84.2039 38.1569L87.3234 37.1393C87.607 37.034 87.926 37.2095 88.0324 37.4902C88.1387 37.7709 87.9969 38.0867 87.6779 38.192L84.5584 39.2097C84.2748 39.2798 83.9557 39.1395 83.8494 38.8587ZM87.9615 37.5253C87.8906 37.2796 87.607 37.1393 87.3588 37.2095L84.2393 38.2271C83.9912 38.2973 83.8848 38.578 83.9557 38.8237C84.0266 39.0693 84.3102 39.2097 84.5584 39.1395L87.6779 38.1218C87.926 38.0166 88.0324 37.7709 87.9615 37.5253Z" fill="white"/>
        <path d="M80.6953 42.9994C80.6244 42.7187 80.8017 42.4379 81.0853 42.4028L88.3523 40.9992C88.6359 40.929 88.8841 41.1396 88.955 41.4203C89.0259 41.701 88.8486 41.9818 88.565 42.0168L81.298 43.4205C81.0144 43.4556 80.7308 43.2801 80.6953 42.9994Z" fill="#F3F3F3"/>
        <path d="M80.6231 42.9994C80.5522 42.6836 80.7649 42.4029 81.0485 42.3327L88.3156 40.9291C88.5992 40.8589 88.8828 41.0694 88.9537 41.3852C89.0246 41.7011 88.8119 41.9818 88.5283 42.052L81.2612 43.4556C80.9776 43.5258 80.694 43.3152 80.6231 42.9994ZM88.8828 41.4203C88.8473 41.1747 88.5992 40.9992 88.351 41.0343L81.084 42.438C80.8358 42.4731 80.6586 42.7538 80.7295 42.9994C80.7649 43.2451 81.0131 43.4205 81.2612 43.3854L88.5283 41.9818C88.7764 41.9116 88.9537 41.666 88.8828 41.4203Z" fill="white"/>
        <path d="M85.233 45.7015C85.1976 45.4208 85.3748 45.1752 85.6584 45.1401L88.9197 44.7541C89.2033 44.719 89.4515 44.9295 89.4869 45.2103C89.5224 45.491 89.3451 45.7366 89.0615 45.7717L85.8002 46.1577C85.5521 46.1928 85.2685 45.9823 85.233 45.7015Z" fill="#F3F3F3"/>
        <path d="M85.1972 45.7014C85.1618 45.3856 85.3745 45.1048 85.6581 45.0697L88.9194 44.6837C89.203 44.6487 89.4866 44.8592 89.522 45.175C89.5575 45.4908 89.3448 45.7716 89.0612 45.8067L85.7999 46.1927C85.5163 46.2278 85.2327 46.0172 85.1972 45.7014ZM89.4866 45.2101C89.4511 44.9645 89.203 44.7539 88.9548 44.789L85.6935 45.175C85.4454 45.2101 85.2681 45.4558 85.3036 45.7014C85.339 45.947 85.5872 46.1576 85.8353 46.1225L89.0966 45.7365C89.3448 45.7014 89.522 45.4557 89.4866 45.2101Z" fill="white"/>
        <path d="M81.2617 49.1052C81.2617 48.8245 81.4744 48.5789 81.758 48.5789H89.1669C89.4505 48.5789 89.6632 48.8245 89.6632 49.1052C89.6632 49.386 89.4505 49.6316 89.1669 49.6316H81.758C81.4744 49.6316 81.2617 49.386 81.2617 49.1052Z" fill="#F3F3F3"/>
        <path d="M81.2266 49.1052C81.2266 48.7893 81.4747 48.5437 81.7583 48.5437H89.1672C89.4508 48.5437 89.6989 48.7893 89.6989 49.1052C89.6989 49.421 89.4508 49.6666 89.1672 49.6666H81.7583C81.4747 49.6666 81.2266 49.421 81.2266 49.1052ZM89.628 49.1402C89.628 48.8946 89.4153 48.649 89.1672 48.649H81.7583C81.5102 48.649 81.2975 48.8595 81.2975 49.1402C81.2975 49.3859 81.5102 49.6315 81.7583 49.6315H89.1672C89.4153 49.5964 89.628 49.3859 89.628 49.1402Z" fill="white"/>
        <path d="M85.1973 52.6495C85.2327 52.3687 85.4454 52.1582 85.729 52.1582L89.0258 52.4038C89.3094 52.4389 89.5221 52.6846 89.4866 52.9653C89.4512 53.246 89.2385 53.4566 88.9549 53.4566L85.6581 53.2109C85.41 53.1758 85.1973 52.9302 85.1973 52.6495Z" fill="#F3F3F3"/>
        <path d="M85.1621 52.6494C85.1976 52.3336 85.4457 52.123 85.7293 52.123L89.0261 52.3687C89.3097 52.4038 89.5578 52.6494 89.5224 52.9652C89.4869 53.2811 89.2388 53.4916 88.9552 53.4916L85.6584 53.246C85.3748 53.2109 85.1621 52.9301 85.1621 52.6494ZM89.4869 52.9652C89.5224 52.7196 89.3097 52.474 89.0615 52.474L85.7647 52.2283C85.5166 52.2283 85.3039 52.4038 85.2685 52.6845C85.233 52.9301 85.4457 53.1758 85.6938 53.1758L88.9906 53.4214C89.2388 53.4214 89.4515 53.2109 89.4869 52.9652Z" fill="white"/>
        <path d="M80.6237 55.2112C80.6946 54.9305 80.9427 54.755 81.2263 54.7901L88.4934 56.2288C88.777 56.299 88.9542 56.5446 88.8833 56.8254C88.8124 57.1061 88.5643 57.2816 88.2807 57.2465L81.0136 55.8077C80.7655 55.7726 80.5882 55.4919 80.6237 55.2112Z" fill="#F3F3F3"/>
        <path d="M80.5885 55.2111C80.6594 54.8953 80.943 54.7198 81.2266 54.7549L88.4937 56.1937C88.7773 56.2638 88.9899 56.5446 88.9191 56.8604C88.8482 57.1762 88.5646 57.3517 88.281 57.3166L81.0139 55.8778C80.7303 55.8077 80.553 55.5269 80.5885 55.2111ZM88.8482 56.8604C88.8836 56.6148 88.7418 56.3691 88.4937 56.2989L81.2266 54.8602C80.9784 54.8251 80.7303 54.9655 80.6594 55.2462C80.6239 55.4918 80.7657 55.7375 81.0139 55.8077L88.281 57.2464C88.5646 57.2815 88.7773 57.106 88.8482 56.8604Z" fill="white"/>
        <path d="M83.8149 59.422C83.8858 59.1413 84.1694 58.9658 84.453 59.036L87.6435 59.9133C87.927 59.9834 88.0688 60.2642 87.9979 60.5449C87.927 60.8256 87.6435 61.0011 87.3599 60.9309L84.1694 60.0536C83.8858 59.9834 83.744 59.7027 83.8149 59.422Z" fill="#F3F3F3"/>
        <path d="M83.7793 59.4221C83.8502 59.1414 84.1692 58.9309 84.4528 59.0361L87.6433 59.9134C87.9269 59.9836 88.1041 60.2994 88.0332 60.5801C87.9623 60.8609 87.6433 61.0714 87.3597 60.9661L84.1692 60.0889C83.8856 60.0187 83.7084 59.738 83.7793 59.4221ZM87.9269 60.5801C87.9977 60.3345 87.856 60.0538 87.6078 59.9836L84.4174 59.1063C84.1692 59.0361 83.9211 59.1765 83.8502 59.4572C83.7793 59.7029 83.9211 59.9836 84.1692 60.0538L87.3597 60.931C87.6078 60.9661 87.856 60.8258 87.9269 60.5801Z" fill="white"/>
        <path d="M78.8158 61.1067C78.9222 60.8259 79.2412 60.7207 79.4894 60.8259L86.3311 63.6332C86.5792 63.7385 86.721 64.0543 86.6147 64.3C86.5083 64.5807 86.1893 64.686 85.9411 64.5807L79.0994 61.7734C78.8158 61.6681 78.7095 61.3523 78.8158 61.1067Z" fill="#F3F3F3"/>
        <path d="M78.7807 61.0715C78.887 60.7907 79.2061 60.6504 79.4897 60.7557L86.3314 63.5629C86.615 63.6682 86.7213 63.984 86.615 64.2999C86.5086 64.5806 86.1896 64.721 85.906 64.6157L79.0643 61.8084C78.7807 61.668 78.6743 61.3522 78.7807 61.0715ZM86.5441 64.2648C86.6504 64.0191 86.5441 63.7384 86.2959 63.6331L79.4542 60.8258C79.2061 60.7206 78.9579 60.8609 78.8516 61.1066C78.7452 61.3522 78.8516 61.6329 79.0997 61.7382L85.9414 64.5455C86.1896 64.6157 86.4732 64.5104 86.5441 64.2648Z" fill="white"/>
        <path d="M81.1202 65.8437C81.2619 65.598 81.5455 65.4927 81.7937 65.598L84.736 67.0718C84.9841 67.1771 85.0905 67.4929 84.9487 67.7737C84.8069 68.0193 84.5233 68.1246 84.2751 68.0193L81.3328 66.5455C81.0847 66.4051 80.9784 66.0893 81.1202 65.8437Z" fill="#F3F3F3"/>
        <path d="M81.084 65.8088C81.2258 65.528 81.5449 65.4228 81.8285 65.5631L84.7707 67.0369C85.0543 67.1773 85.1607 67.4931 85.0189 67.7739C84.8771 68.0546 84.558 68.1599 84.2745 68.0195L81.3322 66.5457C81.0486 66.4404 80.9422 66.0895 81.084 65.8088ZM84.9125 67.7388C85.0189 67.4931 84.948 67.2124 84.6998 67.1071L81.7576 65.6333C81.5449 65.528 81.2613 65.6333 81.1195 65.8439C81.0131 66.0895 81.084 66.3702 81.3322 66.4755L84.2745 67.9493C84.5226 68.0546 84.8062 67.9844 84.9125 67.7388Z" fill="white"/>
        <path d="M75.909 66.5105C76.0863 66.2649 76.3698 66.1947 76.618 66.3702L82.7862 70.4407C83.0343 70.5811 83.0697 70.8969 82.928 71.1426C82.7507 71.3882 82.4671 71.4584 82.219 71.2829L76.0508 67.2124C75.8027 67.0369 75.7318 66.7211 75.909 66.5105Z" fill="#F3F3F3"/>
        <path d="M75.874 66.4755C76.0512 66.2299 76.4057 66.1597 76.6538 66.3001L82.822 70.3706C83.0701 70.5461 83.141 70.8619 82.9638 71.1426C82.7866 71.3883 82.4321 71.4585 82.1839 71.3181L76.0158 67.2475C75.7322 67.0721 75.6967 66.7211 75.874 66.4755ZM82.8575 71.1075C82.9992 70.897 82.9638 70.5812 82.7511 70.4408L76.5829 66.3702C76.3703 66.2299 76.0867 66.3001 75.9449 66.5106C75.8031 66.7212 75.8385 67.037 76.0512 67.1773L82.2194 71.2479C82.4321 71.3883 82.7157 71.3181 82.8575 71.1075Z" fill="white"/>
        <path d="M77.2209 71.5988C77.3982 71.3882 77.7172 71.318 77.9299 71.4935L80.5177 73.4937C80.7304 73.6691 80.7658 73.985 80.5886 74.1955C80.4113 74.406 80.0923 74.4762 79.8796 74.3008L77.2918 72.3006C77.0791 72.1251 77.0437 71.8093 77.2209 71.5988Z" fill="#F3F3F3"/>
        <path d="M77.185 71.5636C77.3622 71.3179 77.7167 71.2828 77.9649 71.4583L80.5527 73.4585C80.8008 73.634 80.8363 73.9849 80.659 74.2305C80.4818 74.4761 80.1273 74.5112 79.8791 74.3358L77.2913 72.3356C77.0432 72.1601 77.0078 71.8092 77.185 71.5636ZM80.5881 74.1954C80.7654 73.9849 80.7299 73.7041 80.5172 73.5287L77.9294 71.5285C77.7167 71.3881 77.4331 71.4232 77.2559 71.6337C77.0786 71.8443 77.1141 72.125 77.3268 72.3005L79.9146 74.3007C80.1273 74.441 80.4109 74.406 80.5881 74.1954Z" fill="white"/>
        <path d="M71.9396 71.2478C72.1523 71.0372 72.4713 71.0372 72.6486 71.2478L77.895 76.4062C78.1077 76.6167 78.0723 76.9325 77.895 77.108C77.6823 77.3185 77.3633 77.3185 77.1861 77.108L71.9396 71.9496C71.7623 71.7741 71.7623 71.4232 71.9396 71.2478Z" fill="#F3F3F3"/>
        <path d="M71.9381 71.2126C72.1508 71.0021 72.5053 71.0021 72.7179 71.2126L77.9644 76.371C78.1771 76.5816 78.1771 76.9325 77.9644 77.143C77.7517 77.3536 77.3972 77.3536 77.1845 77.143L71.9381 71.9846C71.6899 71.7741 71.6899 71.4231 71.9381 71.2126ZM77.8935 77.0728C78.0708 76.8974 78.0708 76.5816 77.8935 76.4061L72.647 71.2477C72.4698 71.0722 72.1508 71.0722 71.9735 71.2477C71.7963 71.4231 71.7963 71.739 71.9735 71.9144L77.22 77.0728C77.3972 77.2834 77.6808 77.2834 77.8935 77.0728Z" fill="white"/>
        <path d="M72.2586 76.4764C72.4713 76.3009 72.7903 76.3009 72.9676 76.5115L75.13 78.9679C75.3072 79.1784 75.2718 79.4942 75.0591 79.6697C74.8464 79.8451 74.5274 79.8451 74.3501 79.6346L72.1877 77.1782C72.0105 77.0027 72.0459 76.6869 72.2586 76.4764Z" fill="#F3F3F3"/>
        <path d="M72.2215 76.4762C72.4696 76.2656 72.7887 76.3007 73.0014 76.5113L75.1637 78.9676C75.3764 79.1782 75.341 79.5291 75.0929 79.7396C74.8447 79.9502 74.5257 79.9151 74.313 79.7046L72.1506 77.2482C71.9733 77.0025 71.9733 76.6516 72.2215 76.4762ZM75.0574 79.6695C75.2701 79.494 75.2701 79.2133 75.1283 79.0027L72.9659 76.5464C72.7887 76.3709 72.5051 76.3358 72.2924 76.5113C72.0797 76.6867 72.0797 76.9674 72.2215 77.178L74.3839 79.6344C74.5611 79.8449 74.8447 79.8449 75.0574 79.6695Z" fill="white"/>
        <path d="M67.1531 75.1429C67.4012 74.9674 67.7203 75.0376 67.8621 75.2832L71.9742 81.354C72.116 81.5996 72.0451 81.9155 71.8324 82.0558C71.5842 82.2313 71.2652 82.1611 71.1234 81.9155L67.0113 75.8447C66.8695 75.5991 66.9404 75.2832 67.1531 75.1429Z" fill="#F3F3F3"/>
        <path d="M67.1528 75.108C67.4009 74.9325 67.7554 75.0027 67.9327 75.2483L72.0448 81.3191C72.222 81.5647 72.1511 81.9156 71.8675 82.0911C71.6194 82.2666 71.2649 82.1964 71.0877 81.9507L66.9755 75.88C66.7983 75.5992 66.8692 75.2834 67.1528 75.108ZM71.8321 82.0209C72.0448 81.8806 72.1157 81.5998 71.9739 81.3893L67.8618 75.3185C67.72 75.108 67.4364 75.0729 67.1882 75.2132C66.9755 75.3536 66.9046 75.6343 67.0464 75.8449L71.1586 81.9156C71.3004 82.0911 71.6194 82.1613 71.8321 82.0209Z" fill="white"/>
        <path d="M66.409 80.3364C66.6571 80.1961 66.9762 80.2662 67.118 80.5119L68.7486 83.3543C68.8904 83.5999 68.7841 83.9157 68.5359 84.0561C68.2878 84.1965 67.9688 84.1263 67.827 83.8806L66.1963 81.0383C66.0899 80.7926 66.1608 80.4768 66.409 80.3364Z" fill="#F3F3F3"/>
        <path d="M66.4086 80.301C66.6922 80.1607 67.0112 80.2308 67.153 80.4765L68.7837 83.3189C68.9255 83.5645 68.8546 83.9154 68.571 84.0558C68.2874 84.1962 67.9684 84.126 67.8266 83.8803L66.1959 81.0379C66.0541 80.7923 66.125 80.4765 66.4086 80.301ZM68.5355 84.0207C68.7482 83.8803 68.8546 83.5996 68.7128 83.3891L67.0821 80.5467C66.9403 80.3361 66.6567 80.2659 66.444 80.3712C66.2313 80.5116 66.125 80.7923 66.2668 81.0029L67.8975 83.8452C68.0038 84.0558 68.3228 84.1611 68.5355 84.0207Z" fill="white"/>
        <path d="M61.6943 78.0204C61.9779 77.9151 62.2615 78.0204 62.3679 78.266L65.2392 85.0386C65.3456 85.2843 65.2038 85.6001 64.9557 85.7053C64.7075 85.8106 64.3885 85.7053 64.2821 85.4597L61.4107 78.6871C61.3044 78.4415 61.4462 78.1257 61.6943 78.0204Z" fill="#F3F3F3"/>
        <path d="M61.6942 77.9851C61.9778 77.8798 62.2968 77.9851 62.4386 78.2658L65.31 85.0384C65.4164 85.3192 65.2746 85.635 64.991 85.7402C64.7074 85.8455 64.3883 85.7402 64.2465 85.4595L61.3752 78.6869C61.2688 78.4413 61.4106 78.1255 61.6942 77.9851ZM64.9201 85.6701C65.1682 85.5648 65.2746 85.2841 65.1682 85.0735L62.2968 78.3009C62.1905 78.0553 61.9069 77.95 61.6587 78.0553C61.4106 78.1606 61.3043 78.4413 61.4106 78.6518L64.282 85.4244C64.4238 85.6701 64.6719 85.7753 64.9201 85.6701Z" fill="white"/>
        <path d="M59.9559 83.0032C60.2395 82.8979 60.5231 83.0383 60.6294 83.319L61.6575 86.4071C61.7638 86.6527 61.5866 86.9685 61.3384 87.0387C61.0548 87.144 60.7712 87.0036 60.6649 86.7229L59.6369 83.6349C59.5305 83.3892 59.6723 83.1085 59.9559 83.0032Z" fill="#F3F3F3"/>
        <path d="M59.9214 82.9683C60.205 82.863 60.524 83.0034 60.6304 83.2841L61.6584 86.3721C61.7647 86.6529 61.5875 86.9687 61.3039 87.074C61.0203 87.1792 60.7013 87.0389 60.5949 86.7582L59.5669 83.6701C59.496 83.3894 59.6378 83.0736 59.9214 82.9683ZM61.3039 87.0038C61.552 86.9336 61.6938 86.6529 61.6229 86.4072L60.5949 83.3192C60.524 83.0736 60.2404 82.9683 59.9923 83.0385C59.7441 83.1087 59.6023 83.3894 59.6732 83.635L60.7013 86.7231C60.7722 86.9687 61.0558 87.1091 61.3039 87.0038Z" fill="white"/>
        <path d="M55.7736 79.8102C56.0572 79.74 56.3408 79.9154 56.3763 80.1962L57.8651 87.3898C57.936 87.6706 57.7233 87.9162 57.4397 87.9864C57.1561 88.0566 56.8726 87.8811 56.8371 87.6004L55.3482 80.4067C55.3128 80.1611 55.49 79.8803 55.7736 79.8102Z" fill="#F3F3F3"/>
        <path d="M55.7729 79.7751C56.092 79.7049 56.3756 79.9154 56.4465 80.1962L57.9353 87.3898C58.0062 87.6706 57.7935 87.9864 57.5099 88.0215C57.1909 88.0917 56.9073 87.8811 56.8364 87.6004L55.3475 80.4067C55.2767 80.126 55.4539 79.8453 55.7729 79.7751ZM57.439 87.9513C57.6872 87.9162 57.8644 87.6706 57.829 87.3898L56.3401 80.1962C56.3047 79.9505 56.0211 79.7751 55.7729 79.8453C55.5248 79.8803 55.3475 80.126 55.383 80.4067L56.8719 87.6004C56.9428 87.846 57.1909 87.9864 57.439 87.9513Z" fill="white"/>
        <path d="M53.0799 84.3721C53.3635 84.337 53.6117 84.5125 53.6826 84.7932L54.108 88.0216C54.1434 88.3023 53.9307 88.548 53.6471 88.5831C53.3635 88.6182 53.1154 88.4427 53.0445 88.162L52.6191 84.9336C52.5837 84.6529 52.7963 84.4072 53.0799 84.3721Z" fill="#F3F3F3"/>
        <path d="M53.0802 84.3368C53.3993 84.3017 53.6829 84.5123 53.7183 84.793L54.1437 88.0214C54.1791 88.3021 53.9664 88.5829 53.6474 88.6179C53.3284 88.653 53.0448 88.4425 53.0093 88.1618L52.5839 84.9334C52.5485 84.6527 52.7612 84.3719 53.0802 84.3368ZM53.612 88.5478C53.8601 88.5127 54.0728 88.267 54.0373 88.0214L53.612 84.793C53.5765 84.5474 53.3284 84.3719 53.0802 84.407C52.8321 84.4421 52.6194 84.6877 52.6548 84.9334L53.0802 88.1618C53.1157 88.4074 53.3638 88.5829 53.612 88.5478Z" fill="white"/>
        <path d="M49.4282 80.4417C49.7118 80.4417 49.96 80.6522 49.96 80.9329V88.267C49.96 88.5477 49.7118 88.7582 49.4282 88.7582C49.1446 88.7582 48.8965 88.5477 48.8965 88.267V80.9329C48.9319 80.6522 49.1446 80.4417 49.4282 80.4417Z" fill="#F3F3F3"/>
        <path d="M49.4285 80.4065C49.7476 80.4065 49.9957 80.6521 49.9957 80.9329V88.2669C49.9957 88.5476 49.7476 88.7933 49.4285 88.7933C49.1095 88.7933 48.8613 88.5476 48.8613 88.2669V80.9329C48.8613 80.6521 49.1449 80.4065 49.4285 80.4065ZM49.4285 88.7231C49.6767 88.7231 49.9248 88.5125 49.9248 88.2669V80.9329C49.9248 80.6872 49.7121 80.4767 49.4285 80.4767C49.1804 80.4767 48.9322 80.6872 48.9322 80.9329V88.2669C48.9677 88.5125 49.1804 88.7231 49.4285 88.7231Z" fill="white"/>
        <path d="M45.8837 84.372C46.1673 84.4071 46.38 84.6176 46.38 84.8984L46.1318 88.1618C46.0964 88.4426 45.8482 88.6531 45.5646 88.618C45.2811 88.5829 45.0684 88.3724 45.0684 88.0916L45.3165 84.8282C45.352 84.5474 45.6001 84.3369 45.8837 84.372Z" fill="#F3F3F3"/>
        <path d="M45.884 84.3368C46.203 84.3719 46.4157 84.6175 46.4157 84.8983L46.1676 88.1618C46.1321 88.4425 45.884 88.6881 45.5649 88.653C45.2459 88.6179 45.0332 88.3723 45.0332 88.0916L45.2813 84.8281C45.3168 84.5123 45.5649 84.3017 45.884 84.3368ZM45.5649 88.5828C45.8131 88.5828 46.0612 88.4074 46.0612 88.1618L46.3094 84.8983C46.3094 84.6526 46.1321 84.4421 45.8485 84.407C45.6004 84.407 45.3522 84.5825 45.3522 84.8281L45.1041 88.0916C45.1041 88.3372 45.3168 88.5478 45.5649 88.5828Z" fill="white"/>
        <path d="M43.2246 79.8099C43.5082 79.8801 43.6854 80.1257 43.65 80.4064L42.1966 87.6001C42.1257 87.8809 41.8775 88.0563 41.5939 87.9861C41.3104 87.916 41.1331 87.6703 41.1686 87.3896L42.622 80.1959C42.6574 79.9503 42.941 79.7748 43.2246 79.8099Z" fill="#F3F3F3"/>
        <path d="M43.2252 79.775C43.5442 79.8451 43.7215 80.1259 43.686 80.4066L42.2326 87.6003C42.1617 87.881 41.8781 88.0916 41.5591 88.0214C41.24 87.9512 41.0628 87.6705 41.0982 87.3897L42.5516 80.196C42.6225 79.9153 42.9061 79.7399 43.2252 79.775ZM41.5591 87.9512C41.8072 87.9863 42.0553 87.8459 42.1262 87.6003L43.5797 80.4066C43.6151 80.161 43.4733 79.9153 43.1897 79.8451C42.9416 79.81 42.6934 79.9504 42.6225 80.196L41.1691 87.3897C41.1337 87.6705 41.3109 87.881 41.5591 87.9512Z" fill="white"/>
        <path d="M38.9716 82.9683C39.2552 83.0385 39.4324 83.3192 39.3615 83.6L38.4753 86.7582C38.4044 87.0389 38.1208 87.1793 37.8372 87.1091C37.5536 87.0389 37.3764 86.7582 37.4473 86.4774L38.3335 83.3192C38.4044 83.0385 38.688 82.8981 38.9716 82.9683Z" fill="#F3F3F3"/>
        <path d="M38.9704 82.933C39.254 83.0031 39.4667 83.319 39.3604 83.5997L38.4742 86.7579C38.4033 87.0386 38.0842 87.2141 37.8006 87.1439C37.517 87.0737 37.3043 86.7579 37.4107 86.4772L38.2969 83.319C38.3678 83.0382 38.6514 82.8628 38.9704 82.933ZM37.8006 87.0386C38.0488 87.1088 38.3324 86.9684 38.4033 86.7228L39.2895 83.5646C39.3604 83.319 39.2186 83.0733 38.935 83.0031C38.6868 82.933 38.4033 83.0733 38.3324 83.319L37.4461 86.4772C37.4107 86.7228 37.5525 86.9684 37.8006 87.0386Z" fill="white"/>
        <path d="M37.2347 78.0206C37.5182 78.1259 37.6246 78.4417 37.5182 78.6873L34.6823 85.4599C34.576 85.7056 34.2569 85.8459 34.0088 85.7056C33.7606 85.5652 33.6188 85.2845 33.7252 85.0388L36.5611 78.2662C36.6675 78.0206 36.9865 77.8802 37.2347 78.0206Z" fill="#F3F3F3"/>
        <path d="M37.2348 77.9852C37.5184 78.0905 37.6602 78.4063 37.5539 78.6871L34.7179 85.4597C34.6116 85.7404 34.2925 85.8457 33.9735 85.7404C33.6899 85.6351 33.5481 85.3193 33.6544 85.0386L36.4904 78.266C36.6322 77.9852 36.9512 77.8449 37.2348 77.9852ZM34.0089 85.6702C34.2571 85.7755 34.5407 85.6702 34.647 85.4246L37.483 78.652C37.5893 78.4063 37.4475 78.1607 37.1994 78.0554C36.9512 77.9501 36.6676 78.0554 36.5613 78.3011L33.7253 85.0737C33.6544 85.2842 33.7608 85.5649 34.0089 85.6702Z" fill="white"/>
        <path d="M32.4479 80.2662C32.696 80.4066 32.8024 80.6873 32.696 80.933L31.2072 83.8455C31.0654 84.0912 30.7818 84.1964 30.4982 84.0561C30.25 83.9157 30.1437 83.635 30.25 83.3893L31.7389 80.4768C31.8807 80.2311 32.1643 80.1259 32.4479 80.2662Z" fill="#F3F3F3"/>
        <path d="M32.4482 80.2311C32.7318 80.3715 32.8381 80.6873 32.6963 80.968L31.2075 83.8806C31.0657 84.1613 30.7466 84.2666 30.463 84.1262C30.1794 83.9858 30.0731 83.67 30.2149 83.3893L31.7037 80.4767C31.8455 80.196 32.1646 80.0907 32.4482 80.2311ZM30.4985 84.056C30.7466 84.1613 31.0302 84.0911 31.1366 83.8455L32.6254 80.9329C32.7318 80.7224 32.6254 80.4416 32.4127 80.3013C32.1646 80.196 31.881 80.2662 31.7746 80.5118L30.2858 83.4244C30.1794 83.6349 30.2858 83.9157 30.4985 84.056Z" fill="white"/>
        <path d="M31.7399 75.0726C31.988 75.248 32.0589 75.5638 31.8817 75.7744L27.7696 81.8451C27.6278 82.0908 27.3087 82.1259 27.0606 81.9855C26.8124 81.8101 26.7415 81.4942 26.9188 81.2837L31.0309 75.2129C31.1727 74.9673 31.4917 74.8971 31.7399 75.0726Z" fill="#F3F3F3"/>
        <path d="M31.7397 75.0377C31.9878 75.2131 32.0587 75.564 31.9169 75.8097L27.8048 81.8804C27.6275 82.1261 27.3085 82.1962 27.0249 82.0208C26.7768 81.8453 26.7059 81.4944 26.8477 81.2488L30.9598 75.178C31.137 74.9324 31.4915 74.8622 31.7397 75.0377ZM27.0604 81.9506C27.2731 82.091 27.5921 82.0559 27.7339 81.8453L31.846 75.7746C31.9878 75.564 31.9169 75.2833 31.7042 75.1429C31.4915 75.0026 31.1725 75.0376 31.0307 75.2482L26.9186 81.2839C26.7768 81.4944 26.8477 81.8102 27.0604 81.9506Z" fill="white"/>
        <path d="M26.5628 76.3711C26.7755 76.5466 26.8464 76.8624 26.6691 77.073L24.6131 79.6346C24.4358 79.8451 24.1168 79.8802 23.9041 79.7048C23.6914 79.5293 23.6205 79.2135 23.7977 79.003L25.8538 76.4413C26.031 76.2308 26.3501 76.1957 26.5628 76.3711Z" fill="#F3F3F3"/>
        <path d="M26.5991 76.3362C26.8472 76.5117 26.8827 76.8626 26.7054 77.1083L24.6494 79.6699C24.4721 79.9155 24.1176 79.9506 23.8695 79.7401C23.6213 79.5646 23.5859 79.2137 23.7631 78.9681L25.8192 76.4064C25.9964 76.1608 26.3509 76.1257 26.5991 76.3362ZM23.9404 79.6699C24.1531 79.8454 24.4367 79.8103 24.6139 79.5997L26.67 77.0381C26.8118 76.8275 26.7763 76.5468 26.5636 76.3713C26.3509 76.1959 26.0673 76.231 25.8901 76.4415L23.834 79.0032C23.6922 79.2137 23.7277 79.5295 23.9404 79.6699Z" fill="white"/>
        <path d="M26.9184 71.1074C27.1311 71.3179 27.1311 71.6337 26.9184 71.8092L21.6719 76.9676C21.4592 77.1781 21.1402 77.143 20.9629 76.9676C20.7857 76.7921 20.7502 76.4412 20.9629 76.2658L26.174 71.1074C26.3867 70.8968 26.7057 70.8968 26.9184 71.1074Z" fill="#F3F3F3"/>
        <path d="M26.9535 71.0722C27.1662 71.2828 27.1662 71.6337 26.9535 71.8442L21.707 77.0026C21.4943 77.2132 21.1398 77.2132 20.9271 77.0026C20.7144 76.7921 20.7144 76.4412 20.9271 76.2306L26.1736 71.0722C26.3863 70.8617 26.7408 70.8617 26.9535 71.0722ZM20.9625 76.9675C21.1398 77.143 21.4588 77.143 21.6361 76.9675L26.8826 71.8091C27.0598 71.6337 27.0598 71.3179 26.8826 71.1424C26.7053 70.9669 26.3863 70.9669 26.209 71.1424L20.9625 76.3008C20.7853 76.4762 20.7853 76.757 20.9625 76.9675Z" fill="white"/>
        <path d="M21.6011 71.3881C21.7783 71.5986 21.7783 71.9145 21.5656 72.0899L19.0487 74.1954C18.836 74.3708 18.517 74.3358 18.3397 74.1252C18.1625 73.9147 18.1625 73.5988 18.3752 73.4234L20.8921 71.3179C21.1048 71.1425 21.4238 71.1775 21.6011 71.3881Z" fill="#F3F3F3"/>
        <path d="M21.6353 71.353C21.848 71.5986 21.8125 71.9495 21.5998 72.125L19.0829 74.2304C18.8702 74.441 18.5158 74.4059 18.3031 74.1603C18.0904 73.9146 18.1258 73.5637 18.3385 73.3883L20.8554 71.2828C21.0681 71.0722 21.4226 71.1073 21.6353 71.353ZM18.374 74.1252C18.5512 74.3357 18.8348 74.3357 19.0475 74.1953L21.5644 72.0899C21.7416 71.9144 21.7771 71.6337 21.5998 71.4231C21.4226 71.2126 21.139 71.2126 20.9263 71.353L18.4094 73.4584C18.1967 73.6339 18.1967 73.9146 18.374 74.1252Z" fill="white"/>
        <path d="M23.0178 66.335C23.195 66.5806 23.1241 66.8964 22.876 67.0368L16.7078 71.1074C16.4597 71.2477 16.1406 71.1776 15.9988 70.967C15.8216 70.7214 15.8925 70.4055 16.1406 70.2652L22.3088 66.1946C22.5215 66.0542 22.8405 66.1244 23.0178 66.335Z" fill="#F3F3F3"/>
        <path d="M23.0535 66.3346C23.2308 66.5802 23.1599 66.9311 22.9117 67.1066L16.7436 71.1772C16.4954 71.3526 16.1409 71.2825 15.9637 71.0017C15.7864 70.7561 15.8573 70.4052 16.1055 70.2297L22.2737 66.1591C22.5218 65.9837 22.8763 66.0539 23.0535 66.3346ZM16.0346 70.9315C16.1764 71.1421 16.46 71.2123 16.6727 71.0719L22.8408 67.0013C23.0535 66.861 23.1244 66.5802 22.9472 66.3346C22.8054 66.124 22.5218 66.0539 22.3091 66.1942L16.1409 70.2648C15.9282 70.4403 15.8928 70.721 16.0346 70.9315Z" fill="white"/>
        <path d="M17.7361 65.5981C17.8779 65.8438 17.807 66.1596 17.5589 66.2999L14.6875 67.9141C14.4394 68.0545 14.1203 67.9492 13.9785 67.7036C13.8367 67.458 13.9076 67.1421 14.1558 67.0018L17.0272 65.3876C17.2753 65.2472 17.5943 65.3525 17.7361 65.5981Z" fill="#F3F3F3"/>
        <path d="M17.7716 65.563C17.9134 65.8437 17.8425 66.1595 17.5943 66.2999L14.723 67.9141C14.4748 68.0544 14.1203 67.9491 13.9785 67.7035C13.8367 67.4228 13.9076 67.107 14.1558 66.9666L17.0272 65.3524C17.2753 65.2121 17.6298 65.3173 17.7716 65.563ZM14.014 67.6684C14.1558 67.9141 14.4394 67.9842 14.6521 67.8439L17.5234 66.2297C17.7361 66.0893 17.807 65.8086 17.7007 65.5981C17.5589 65.3524 17.2753 65.2822 17.0626 65.4226L14.1912 67.0368C13.9785 67.1421 13.9076 67.4228 14.014 67.6684Z" fill="white"/>
        <path d="M20.1127 60.9311C20.2191 61.2119 20.1127 61.4926 19.8291 61.5979L12.9874 64.4051C12.7393 64.5104 12.4202 64.3701 12.3139 64.1244C12.2075 63.8437 12.3139 63.563 12.5975 63.4577L19.4392 60.6504C19.6873 60.5451 20.0064 60.6504 20.1127 60.9311Z" fill="#F3F3F3"/>
        <path d="M20.1482 60.8959C20.2545 61.1767 20.1482 61.4925 19.8646 61.6329L13.0229 64.4401C12.7393 64.5454 12.4202 64.4051 12.3139 64.1243C12.2075 63.8436 12.3139 63.5278 12.5975 63.3874L19.4392 60.5801C19.7228 60.4748 20.0418 60.6152 20.1482 60.8959ZM12.3848 64.0892C12.4911 64.3349 12.7747 64.4401 12.9874 64.37L19.8291 61.5627C20.0773 61.4574 20.1836 61.1767 20.0773 60.931C19.9709 60.6854 19.6873 60.5801 19.4746 60.6503L12.6329 63.4576C12.3848 63.5629 12.2784 63.8436 12.3848 64.0892Z" fill="white"/>
        <path d="M15.1139 59.1762C15.2203 59.4569 15.0785 59.7377 14.7949 59.8429L11.6753 60.8606C11.4272 60.9658 11.1082 60.7904 11.0373 60.5448C10.9309 60.264 11.0727 59.9833 11.3563 59.878L14.4758 58.8604C14.724 58.7551 15.0076 58.8955 15.1139 59.1762Z" fill="#F3F3F3"/>
        <path d="M15.1496 59.1413C15.2559 59.422 15.1141 59.7378 14.7951 59.8431L11.6755 60.8607C11.3919 60.966 11.0729 60.7905 10.9666 60.5098C10.8602 60.2291 11.002 59.9133 11.321 59.808L14.4406 58.7903C14.7242 58.7202 15.0432 58.8605 15.1496 59.1413ZM11.0375 60.4747C11.1084 60.7204 11.3919 60.8607 11.6401 60.7905L14.7596 59.7729C15.0078 59.7027 15.1141 59.422 15.0432 59.1763C14.9723 58.9307 14.6887 58.7903 14.4406 58.8605L11.321 59.8782C11.0729 59.9834 10.9666 60.2291 11.0375 60.4747Z" fill="white"/>
        <path d="M18.3046 55.0005C18.3755 55.2812 18.1983 55.562 17.9147 55.597L10.6476 57.0007C10.364 57.0709 10.1158 56.8603 10.0449 56.5796C9.97403 56.2989 10.1513 56.0181 10.4349 55.983L17.702 54.5794C17.9856 54.5443 18.2691 54.7198 18.3046 55.0005Z" fill="#F3F3F3"/>
        <path d="M18.3756 55.0005C18.4465 55.3163 18.2338 55.597 17.9502 55.6672L10.6831 57.0708C10.3995 57.141 10.1159 56.9305 10.045 56.6147C9.97409 56.2988 10.1868 56.0181 10.4704 55.9479L17.7375 54.5443C18.0211 54.4741 18.3047 54.6847 18.3756 55.0005ZM10.1159 56.5796C10.1513 56.8252 10.3995 57.0007 10.6476 56.9656L17.9147 55.5619C18.1629 55.5268 18.3401 55.2461 18.2692 55.0005C18.2338 54.7548 17.9856 54.5794 17.7375 54.6145L10.4704 56.0181C10.2222 56.0883 10.045 56.3339 10.1159 56.5796Z" fill="white"/>
        <path d="M13.7662 52.2984C13.8017 52.5791 13.6244 52.8248 13.3408 52.8598L10.0795 53.2458C9.7959 53.2809 9.54776 53.0704 9.51231 52.7897C9.47686 52.5089 9.6541 52.2633 9.9377 52.2282L13.199 51.8422C13.4472 51.8071 13.7308 52.0177 13.7662 52.2984Z" fill="#F3F3F3"/>
        <path d="M13.8013 52.2986C13.8368 52.6144 13.6241 52.8951 13.3405 52.9302L10.0792 53.3162C9.79556 53.3513 9.51197 53.1407 9.47652 52.8249C9.44107 52.5091 9.65377 52.2284 9.93736 52.1933L13.1987 51.8073C13.4823 51.7722 13.7659 51.9827 13.8013 52.2986ZM9.51197 52.7898C9.54742 53.0355 9.79556 53.246 10.0437 53.2109L13.305 52.8249C13.5532 52.7898 13.7304 52.5442 13.695 52.2986C13.6595 52.0529 13.4114 51.8424 13.1632 51.8775L9.90191 52.2635C9.65377 52.2986 9.47652 52.5442 9.51197 52.7898Z" fill="white"/>
        <path d="M17.7374 48.8948C17.7374 49.1755 17.5247 49.4211 17.2411 49.4211H9.83223C9.54863 49.4211 9.33594 49.1755 9.33594 48.8948C9.33594 48.614 9.54863 48.3684 9.83223 48.3684H17.2411C17.5247 48.3684 17.7374 48.614 17.7374 48.8948Z" fill="#F3F3F3"/>
        <path d="M17.7731 48.8947C17.7731 49.2105 17.525 49.4562 17.2414 49.4562H9.83252C9.54893 49.4562 9.30078 49.2105 9.30078 48.8947C9.30078 48.5789 9.54893 48.3333 9.83252 48.3333H17.2414C17.525 48.3333 17.7731 48.5789 17.7731 48.8947ZM9.37168 48.8596C9.37168 49.1053 9.58437 49.3509 9.83252 49.3509H17.2414C17.4896 49.3509 17.7022 49.1403 17.7022 48.8596C17.7022 48.614 17.4896 48.3683 17.2414 48.3683H9.83252C9.58437 48.4034 9.37168 48.614 9.37168 48.8596Z" fill="white"/>
        <path d="M13.801 45.3506C13.7656 45.6313 13.5529 45.8418 13.2693 45.8418L9.97252 45.5962C9.68892 45.5611 9.47623 45.3155 9.51168 45.0347C9.54713 44.754 9.75982 44.5435 10.0434 44.5435L13.3402 44.7891C13.5883 44.8242 13.801 45.0698 13.801 45.3506Z" fill="#E2E2E2"/>
        <path d="M13.8382 45.3505C13.8028 45.6663 13.5547 45.8769 13.2711 45.8769L9.97428 45.6312C9.69069 45.5961 9.44255 45.3505 9.478 45.0347C9.51345 44.7188 9.76159 44.5083 10.0452 44.5083L13.342 44.7539C13.6256 44.789 13.8382 45.0698 13.8382 45.3505ZM9.51345 45.0347C9.478 45.2803 9.69069 45.5259 9.93884 45.5259L13.2356 45.7716C13.4838 45.7716 13.6965 45.5961 13.7319 45.3154C13.7673 45.0698 13.5547 44.8241 13.3065 44.8241L10.0097 44.5785C9.76159 44.5785 9.54889 44.789 9.51345 45.0347Z" fill="white"/>
        <path d="M18.3749 42.7887C18.304 43.0694 18.0559 43.2449 17.7723 43.2098L10.5052 41.736C10.2216 41.6658 10.0443 41.4201 10.1152 41.1394C10.1861 40.8587 10.4343 40.6832 10.7179 40.7183L17.985 42.1571C18.2331 42.2272 18.4104 42.508 18.3749 42.7887Z" fill="#F3F3F3"/>
        <path d="M18.4107 42.7891C18.3398 43.1049 18.0562 43.2804 17.7726 43.2453L10.5055 41.8065C10.2219 41.7364 10.0092 41.4556 10.0801 41.1398C10.151 40.824 10.4346 40.6485 10.7182 40.6836L17.9853 42.1224C18.2689 42.1925 18.4462 42.4733 18.4107 42.7891ZM10.151 41.1398C10.1156 41.3855 10.2574 41.6311 10.5055 41.7013L17.7726 43.14C18.0208 43.1751 18.2689 43.0347 18.3398 42.754C18.3753 42.5084 18.2335 42.2627 17.9853 42.1925L10.7182 40.7538C10.4346 40.7187 10.2219 40.8942 10.151 41.1398Z" fill="white"/>
        <path d="M15.1855 38.5779C15.1146 38.8586 14.831 39.034 14.5474 38.9639L11.3569 38.0866C11.0733 38.0164 10.9315 37.7357 11.0024 37.4549C11.0733 37.1742 11.3569 36.9988 11.6405 37.0689L14.831 37.9462C15.1146 38.0164 15.2563 38.2971 15.1855 38.5779Z" fill="#F3F3F3"/>
        <path d="M15.2207 38.5777C15.1498 38.8584 14.8308 39.069 14.5472 38.9637L11.3567 38.0864C11.0732 38.0162 10.8959 37.7004 10.9668 37.4197C11.0377 37.139 11.3567 36.9284 11.6403 37.0337L14.8308 37.911C15.1144 37.9811 15.2916 38.2619 15.2207 38.5777ZM11.0732 37.4197C11.0023 37.6653 11.1441 37.9461 11.3922 38.0162L14.5826 38.8935C14.8308 38.9637 15.0789 38.8233 15.1498 38.5426C15.2207 38.297 15.0789 38.0162 14.8308 37.9461L11.6403 37.0688C11.3922 37.0337 11.1441 37.1741 11.0732 37.4197Z" fill="white"/>
        <path d="M20.1822 36.8935C20.0759 37.1742 19.7568 37.2795 19.5087 37.1742L12.667 34.3669C12.4188 34.2616 12.277 33.9458 12.3834 33.7002C12.4897 33.4194 12.8088 33.3142 13.0569 33.4194L19.8986 36.2267C20.1822 36.332 20.2886 36.6478 20.1822 36.8935Z" fill="#F3F3F3"/>
        <path d="M20.2185 36.9288C20.1121 37.2095 19.7931 37.3499 19.5095 37.2446L12.6678 34.4373C12.3842 34.332 12.2779 34.0162 12.3842 33.7004C12.4905 33.4197 12.8096 33.2793 13.0932 33.3846L19.9349 36.1919C20.2185 36.3322 20.3248 36.648 20.2185 36.9288ZM12.4551 33.7355C12.3488 33.9811 12.4551 34.2618 12.7032 34.3671L19.5449 37.1744C19.7931 37.2797 20.0412 37.1393 20.1476 36.8937C20.2539 36.648 20.1476 36.3673 19.8994 36.262L13.0577 33.4547C12.8096 33.3846 12.526 33.4898 12.4551 33.7355Z" fill="white"/>
        <path d="M17.8784 32.156C17.7366 32.4016 17.453 32.5069 17.2048 32.4016L14.2625 30.9278C14.0144 30.8225 13.908 30.5067 14.0498 30.226C14.1916 29.9803 14.4752 29.8751 14.7234 29.9803L17.6657 31.4542C17.9138 31.5945 18.0202 31.9104 17.8784 32.156Z" fill="#F3F3F3"/>
        <path d="M17.9154 32.1916C17.7736 32.4723 17.4545 32.5776 17.1709 32.4372L14.2286 30.9634C13.9451 30.823 13.8387 30.5072 13.9805 30.2265C14.1223 29.9458 14.4413 29.8405 14.7249 29.9808L17.6672 31.4547C17.9508 31.5599 18.0572 31.9109 17.9154 32.1916ZM14.0869 30.2616C13.9805 30.5072 14.0514 30.7879 14.2995 30.8932L17.2418 32.367C17.4545 32.4723 17.7381 32.367 17.8799 32.1565C17.9863 31.9109 17.9154 31.6301 17.6672 31.5249L14.6895 30.051C14.4768 29.9458 14.1932 30.0159 14.0869 30.2616Z" fill="white"/>
        <path d="M23.0899 31.4893C22.9126 31.735 22.629 31.8051 22.3809 31.6297L16.2482 27.5942C16 27.4538 15.9646 27.138 16.1064 26.8924C16.2482 26.6467 16.5672 26.5765 16.8154 26.752L22.9835 30.8226C23.1962 30.9629 23.2671 31.2788 23.0899 31.4893Z" fill="#F3F3F3"/>
        <path d="M23.1255 31.5247C22.9483 31.7704 22.5938 31.8405 22.3456 31.7002L16.2129 27.6296C15.9648 27.4541 15.8939 27.1383 16.0711 26.8576C16.2484 26.612 16.6029 26.5418 16.851 26.6821L22.9837 30.7527C23.2673 30.9282 23.3028 31.2791 23.1255 31.5247ZM16.142 26.8927C16.0002 27.1032 16.0357 27.419 16.2484 27.5594L22.4165 31.63C22.6292 31.7704 22.9128 31.7002 23.0546 31.4896C23.1964 31.2791 23.161 30.9633 22.9483 30.8229L16.7801 26.7523C16.5674 26.612 16.2838 26.6821 16.142 26.8927Z" fill="white"/>
        <path d="M21.778 26.4013C21.6008 26.6119 21.2818 26.682 21.0691 26.5066L18.4813 24.5064C18.2686 24.3309 18.2331 24.0151 18.4104 23.8046C18.5876 23.594 18.9067 23.5238 19.1193 23.6993L21.7071 25.6995C21.9198 25.8749 21.9553 26.1908 21.778 26.4013Z" fill="#F3F3F3"/>
        <path d="M21.8133 26.4365C21.6361 26.6822 21.2816 26.7173 21.0334 26.5418L18.4456 24.5416C18.1975 24.3662 18.162 24.0153 18.3393 23.7696C18.5165 23.524 18.871 23.4889 19.1192 23.6643L21.707 25.6645C21.9551 25.84 21.9906 26.1909 21.8133 26.4365ZM18.4102 23.8047C18.2329 24.0153 18.2684 24.296 18.4811 24.4714L21.0689 26.4716C21.2816 26.612 21.5652 26.5769 21.7424 26.3664C21.9197 26.1558 21.8842 25.8751 21.6715 25.6996L19.0837 23.6994C18.871 23.5591 18.5874 23.5942 18.4102 23.8047Z" fill="white"/>
        <path d="M27.0593 26.7523C26.8466 26.9628 26.5276 26.9628 26.3503 26.7523L21.0684 21.5939C20.8557 21.3833 20.8912 21.0675 21.0684 20.892C21.2811 20.6815 21.6001 20.6815 21.7774 20.892L27.0239 26.0504C27.2366 26.2259 27.2366 26.5768 27.0593 26.7523Z" fill="#F3F3F3"/>
        <path d="M27.0589 26.7873C26.8462 26.9978 26.4917 26.9978 26.2791 26.7873L21.0326 21.6289C20.8199 21.4183 20.8199 21.0674 21.0326 20.8569C21.2453 20.6463 21.5998 20.6463 21.8125 20.8569L27.0589 26.0153C27.3071 26.2258 27.3071 26.5767 27.0589 26.7873ZM21.1035 20.9271C20.9262 21.1025 20.9262 21.4183 21.1035 21.5938L26.35 26.7522C26.5272 26.9277 26.8462 26.9277 27.0235 26.7522C27.2007 26.5767 27.2007 26.2609 27.0235 26.0855L21.777 20.892C21.5998 20.7165 21.3162 20.7165 21.1035 20.9271Z" fill="white"/>
        <path d="M26.7407 21.5234C26.528 21.6989 26.209 21.6989 26.0317 21.4883L23.8693 19.032C23.6921 18.8214 23.7275 18.5056 23.9402 18.3301C24.1529 18.1547 24.472 18.1547 24.6492 18.3652L26.8116 20.8216C26.9889 20.9971 26.9534 21.3129 26.7407 21.5234Z" fill="#F3F3F3"/>
        <path d="M26.7773 21.5236C26.5291 21.7341 26.2101 21.699 25.9974 21.4885L23.835 19.0321C23.6223 18.8216 23.6577 18.4707 23.9059 18.2601C24.154 18.0496 24.4731 18.0847 24.6858 18.2952L26.8482 20.7516C27.0254 20.9972 27.0254 21.3481 26.7773 21.5236ZM23.9413 18.3303C23.7286 18.5057 23.7286 18.7865 23.8704 18.997L26.0328 21.4534C26.2101 21.6289 26.4937 21.6639 26.7064 21.4885C26.9191 21.313 26.9191 21.0323 26.7773 20.8218L24.6149 18.3654C24.4376 18.1548 24.154 18.1548 23.9413 18.3303Z" fill="white"/>
        <path d="M31.8463 22.8571C31.5982 23.0326 31.2791 22.9624 31.1373 22.7167L26.9898 16.646C26.848 16.4003 26.9189 16.0845 27.1316 15.9441C27.3797 15.7687 27.6988 15.8389 27.8406 16.0845L31.9527 22.1553C32.1299 22.4009 32.059 22.7167 31.8463 22.8571Z" fill="#F3F3F3"/>
        <path d="M31.846 22.8921C31.5979 23.0676 31.2434 22.9974 31.0662 22.7518L26.9541 16.681C26.7768 16.4354 26.8477 16.0844 27.1313 15.909C27.3794 15.7335 27.7339 15.8037 27.9112 16.0494L32.0233 22.1201C32.2005 22.4009 32.1296 22.7167 31.846 22.8921ZM27.1668 15.9792C26.9541 16.1195 26.8832 16.4003 27.025 16.6108L31.1371 22.6816C31.2789 22.8921 31.5625 22.9272 31.8106 22.7869C32.0233 22.6465 32.0942 22.3658 31.9524 22.1552L27.8403 16.1195C27.6985 15.909 27.3794 15.8388 27.1668 15.9792Z" fill="white"/>
        <path d="M32.5907 17.6635C32.3425 17.8039 32.0235 17.7337 31.8817 17.4881L30.251 14.6457C30.1092 14.4 30.2156 14.0842 30.4637 13.9439C30.7119 13.8035 31.0309 13.8737 31.1727 14.1193L32.8034 16.9617C32.9097 17.2073 32.8388 17.5232 32.5907 17.6635Z" fill="#F3F3F3"/>
        <path d="M32.5905 17.6986C32.3069 17.839 31.9879 17.7688 31.8461 17.5232L30.2154 14.6808C30.0736 14.4351 30.1445 14.0842 30.4281 13.9439C30.7117 13.8035 31.0308 13.8737 31.1726 14.1193L32.8032 16.9617C32.945 17.2073 32.8741 17.5232 32.5905 17.6986ZM30.4636 13.9789C30.2509 14.1193 30.1445 14.4 30.2863 14.6106L31.917 17.453C32.0588 17.6635 32.3424 17.7337 32.5551 17.6284C32.7678 17.4881 32.8741 17.2073 32.7323 16.9968L31.1017 14.1544C30.9953 13.9439 30.6763 13.8386 30.4636 13.9789Z" fill="white"/>
        <path d="M37.3053 19.9798C37.0217 20.085 36.7381 19.9798 36.6317 19.7341L33.7603 12.9615C33.654 12.7159 33.7958 12.4001 34.0439 12.2948C34.3275 12.1895 34.6111 12.2948 34.7175 12.5404L37.5888 19.313C37.6952 19.5587 37.5534 19.8745 37.3053 19.9798Z" fill="#F3F3F3"/>
        <path d="M37.3054 20.0144C37.0218 20.1197 36.7028 20.0144 36.561 19.7337L33.6896 12.9611C33.5833 12.6804 33.7251 12.3646 34.0087 12.2593C34.2922 12.154 34.6113 12.2593 34.7531 12.54L37.6245 19.3126C37.7308 19.5582 37.589 19.8741 37.3054 20.0144ZM34.0795 12.3295C33.8314 12.4347 33.7251 12.7155 33.8314 12.926L36.7028 19.6986C36.8091 19.9442 37.0927 20.0495 37.3409 19.9442C37.589 19.839 37.6954 19.5582 37.589 19.3477L34.7176 12.5751C34.5758 12.3295 34.3277 12.2242 34.0795 12.3295Z" fill="white"/>
        <path d="M39.0416 14.9967C38.758 15.102 38.4745 14.9616 38.3681 14.6809L37.3401 11.5929C37.2337 11.3472 37.411 11.0314 37.6591 10.9612C37.9073 10.8911 38.2263 10.9963 38.3327 11.2771L39.3607 14.3651C39.467 14.6107 39.3252 14.8914 39.0416 14.9967Z" fill="#F3F3F3"/>
        <path d="M39.0768 15.032C38.7932 15.1372 38.4742 14.9969 38.3678 14.7162L37.3398 11.6281C37.2334 11.3474 37.4107 11.0316 37.6943 10.9263C37.9779 10.821 38.2969 10.9614 38.4033 11.2421L39.4313 14.3302C39.5022 14.6109 39.3604 14.9267 39.0768 15.032ZM37.6943 10.9965C37.4461 11.0667 37.3043 11.3474 37.3752 11.593L38.4033 14.6811C38.4742 14.9267 38.7578 15.032 39.0059 14.9618C39.254 14.8916 39.3958 14.6109 39.3249 14.3652L38.2969 11.2772C38.226 11.0316 37.9424 10.8912 37.6943 10.9965Z" fill="white"/>
        <path d="M43.2244 18.19C42.9408 18.2602 42.6572 18.0847 42.6217 17.804L41.1329 10.6103C41.062 10.3296 41.2747 10.0839 41.5583 10.0138C41.8419 9.94358 42.1255 10.119 42.1609 10.3998L43.6498 17.5935C43.6852 17.8391 43.508 18.1198 43.2244 18.19Z" fill="#F3F3F3"/>
        <path d="M43.225 18.2249C42.9059 18.295 42.6223 18.0845 42.5514 17.8038L41.0626 10.6101C40.9917 10.3294 41.2044 10.0135 41.488 9.97845C41.807 9.90826 42.0906 10.1188 42.1615 10.3995L43.6504 17.5932C43.7213 17.874 43.544 18.1547 43.225 18.2249ZM41.5589 10.0486C41.3107 10.0837 41.1335 10.3294 41.1689 10.6101L42.6578 17.8038C42.6932 18.0494 42.9768 18.2249 43.225 18.1547C43.4731 18.1196 43.6504 17.874 43.6149 17.5932L42.126 10.3995C42.0551 10.1539 41.807 10.0135 41.5589 10.0486Z" fill="white"/>
        <path d="M45.9186 13.628C45.635 13.6631 45.3869 13.4876 45.316 13.2069L44.8906 9.97851C44.8551 9.69778 45.0678 9.45214 45.3514 9.41705C45.635 9.38196 45.8832 9.55741 45.9541 9.83814L46.3795 13.0665C46.4149 13.3473 46.2022 13.5929 45.9186 13.628Z" fill="#F3F3F3"/>
        <path d="M45.9189 13.6631C45.5998 13.6982 45.3163 13.4877 45.2808 13.2069L44.8554 9.97855C44.82 9.69782 45.0327 9.41709 45.3517 9.382C45.6707 9.34691 45.9543 9.55746 45.9898 9.83819L46.4152 13.0666C46.4506 13.3473 46.2379 13.628 45.9189 13.6631ZM45.3872 9.45218C45.139 9.48727 44.9263 9.73291 44.9618 9.97855L45.3872 13.2069C45.4226 13.4526 45.6707 13.628 45.9189 13.5929C46.167 13.5578 46.3797 13.3122 46.3443 13.0666L45.9189 9.83819C45.8834 9.59255 45.6353 9.41709 45.3872 9.45218Z" fill="white"/>
        <path d="M49.7473 90.5128C72.9277 90.5128 91.7191 71.9112 91.7191 48.9649C91.7191 26.0186 72.9277 7.41699 49.7473 7.41699C26.5668 7.41699 7.77539 26.0186 7.77539 48.9649C7.77539 71.9112 26.5668 90.5128 49.7473 90.5128Z" fill="url(#paint2_linear)" fill-opacity="0.2"/>
        <g filter="url(#filter1_d)">
            <path d="M78.8163 22.6113L44.9623 44.0871H44.9269V44.1222L44.8914 44.1573L23.7637 78.6519L54.8172 53.9126L54.8526 53.8775V53.8424L78.8163 22.6113Z" fill="black" fill-opacity="0.05"/>
        </g>
        <path d="M78.1789 20.6111L44.7148 44.1572L54.6406 53.9126L78.1789 20.6111Z" fill="#CD151E"/>
        <path d="M44.75 44.0871L49.7483 48.9647L78.1786 20.6111L44.75 44.0871Z" fill="#FA5153"/>
        <path d="M44.7492 44.0872L54.675 53.8425L21.2109 77.3887L44.7492 44.0872Z" fill="#ACACAC"/>
        <path d="M21.2109 77.3887L49.7476 48.9648L44.7492 44.0872L21.2109 77.3887Z" fill="#EEEEEE"/>
    </g>
    <defs>
        <filter id="filter0_d" x="0.125" y="2.08325" width="98.75" height="97.8333" filterUnits="userSpaceOnUse" color-interpolation-filters="sRGB">
            <feFlood flood-opacity="0" result="BackgroundImageFix"/>
            <feColorMatrix in="SourceAlpha" type="matrix" values="0 0 0 0 0 0 0 0 0 0 0 0 0 0 0 0 0 0 127 0"/>
            <feOffset dy="2"/>
            <feGaussianBlur stdDeviation="2"/>
            <feColorMatrix type="matrix" values="0 0 0 0 0 0 0 0 0 0 0 0 0 0 0 0 0 0 0.266007 0"/>
            <feBlend mode="normal" in2="BackgroundImageFix" result="effect1_dropShadow"/>
            <feBlend mode="normal" in="SourceGraphic" in2="effect1_dropShadow" result="shape"/>
        </filter>
        <filter id="filter1_d" x="19.7637" y="19.6113" width="63.0526" height="64.0406" filterUnits="userSpaceOnUse" color-interpolation-filters="sRGB">
            <feFlood flood-opacity="0" result="BackgroundImageFix"/>
            <feColorMatrix in="SourceAlpha" type="matrix" values="0 0 0 0 0 0 0 0 0 0 0 0 0 0 0 0 0 0 127 0"/>
            <feOffset dy="1"/>
            <feGaussianBlur stdDeviation="2"/>
            <feColorMatrix type="matrix" values="0 0 0 0 0 0 0 0 0 0 0 0 0 0 0 0 0 0 0.2 0"/>
            <feBlend mode="normal" in2="BackgroundImageFix" result="effect1_dropShadow"/>
            <feBlend mode="normal" in="SourceGraphic" in2="effect1_dropShadow" result="shape"/>
        </filter>
        <linearGradient id="paint0_linear" x1="49.5" y1="93.9166" x2="49.5" y2="4.08325" gradientUnits="userSpaceOnUse">
            <stop offset="0.25" stop-color="#DBDBDA"/>
            <stop offset="1" stop-color="white"/>
        </linearGradient>
        <radialGradient id="paint1_radial" cx="0" cy="0" r="1" gradientUnits="userSpaceOnUse" gradientTransform="translate(55.3966 39.8732) scale(51.2322 50.7147)">
            <stop stop-color="#2ABCE1"/>
            <stop offset="0.113629" stop-color="#2ABBE1"/>
            <stop offset="1" stop-color="#3375F8"/>
        </radialGradient>
        <linearGradient id="paint2_linear" x1="48.95" y1="37.0851" x2="29.6616" y2="72.0426" gradientUnits="userSpaceOnUse">
            <stop stop-opacity="0"/>
            <stop offset="1"/>
        </linearGradient>
        <clipPath id="clip0">
            <rect width="99" height="98" fill="white"/>
        </clipPath>
    </defs>
</svg>
