<svg width="99" height="98" viewBox="0 0 99 98" fill="none" xmlns="http://www.w3.org/2000/svg">
    <path d="M92.564 31.841C90.5444 27.0321 86.4539 21.8404 83.2418 20.1995C85.856 25.2727 87.369 30.3618 87.9472 34.1599C87.9472 34.1674 87.9501 34.1859 87.9563 34.2365C82.7017 21.2719 73.7919 16.0442 66.5164 4.66169C66.149 4.08613 65.7807 3.50905 65.4218 2.90076C65.2391 2.5901 65.0684 2.27264 64.9102 1.94908C64.6079 1.37139 64.3747 0.760761 64.2154 0.129577C64.2165 0.099695 64.2063 0.0704811 64.1868 0.0476733C64.1672 0.0248654 64.1398 0.010112 64.1098 0.00631098C64.0813 -0.00177814 64.0511 -0.00177814 64.0226 0.00631098C64.0161 0.00860786 64.0064 0.0160727 63.9994 0.0187524C63.9892 0.0227719 63.9762 0.0319594 63.9654 0.037893C63.9706 0.0310024 63.9815 0.0154985 63.9847 0.0118618C52.3116 6.77922 48.3516 19.2981 47.9877 25.5615C43.3263 25.8788 38.8696 27.5788 35.1986 30.4401C34.8142 30.1187 34.4124 29.8184 33.9949 29.5405C32.9357 25.8724 32.8907 21.99 33.8646 18.2988C29.0909 20.4504 25.378 23.8515 22.6787 26.8547H22.6573C20.8151 24.545 20.9451 16.9259 21.0501 15.3351C21.028 15.2365 19.6759 16.0299 19.4987 16.1495C17.8732 17.2981 16.3535 18.5868 14.9575 20.0006C13.3689 21.5953 11.9174 23.3184 10.6181 25.1519C10.6181 25.1542 10.6168 25.1569 10.616 25.1592C10.616 25.1567 10.6174 25.1542 10.6181 25.1519C7.63003 29.3436 5.51078 34.08 4.38288 39.0873C4.36064 39.187 4.34188 39.2903 4.32023 39.3908C4.23283 39.7958 3.91804 41.8217 3.86293 42.2619C3.85868 42.2958 3.85675 42.3283 3.85269 42.3622C3.44571 44.4567 3.19367 46.5778 3.09858 48.7087C3.09858 48.7872 3.09375 48.8649 3.09375 48.9435C3.09452 74.3456 23.9 94.9375 49.5634 94.9375C72.5471 94.9375 91.6307 78.4214 95.3668 56.7271C95.4455 56.1383 95.5085 55.5465 95.5779 54.9525C96.5016 47.0647 95.4754 38.7739 92.564 31.841ZM39.0045 67.8434C39.2218 67.9461 39.426 68.0585 39.6491 68.1571C39.6584 68.1634 39.6712 68.1705 39.6806 68.1762C39.4535 68.0687 39.2281 67.9578 39.0045 67.8434ZM87.9599 34.2477L87.9538 34.2031C87.9561 34.2194 87.959 34.2365 87.9615 34.2527L87.9599 34.2477Z" fill="url(#paint0_linear)"/>
    <path d="M92.5637 31.841C90.544 27.0321 86.4535 21.8404 83.2414 20.1995C85.8556 25.2727 87.3687 30.3618 87.9468 34.1599C87.9468 34.1488 87.9489 34.1691 87.9538 34.2031C87.9561 34.2194 87.959 34.2364 87.9615 34.2527C92.3459 46.0184 89.9574 57.9829 86.5154 65.294C81.1904 76.6061 68.298 88.1996 48.1188 87.6342C26.3166 87.023 7.10944 71.0094 3.52397 50.0355C2.87061 46.728 3.52397 45.0486 3.85269 42.3632C3.45224 44.4334 3.29968 45.0314 3.09858 48.7096C3.09858 48.7881 3.09375 48.8658 3.09375 48.9445C3.09414 74.3456 23.8996 94.9375 49.563 94.9375C72.5467 94.9375 91.6303 78.4214 95.3664 56.727C95.4451 56.1383 95.5081 55.5465 95.5775 54.9525C96.5012 47.0647 95.4751 38.7739 92.5637 31.841Z" fill="url(#paint1_radial)"/>
    <path d="M92.5637 31.841C90.544 27.0321 86.4535 21.8404 83.2414 20.1995C85.8556 25.2727 87.3687 30.3618 87.9468 34.1599C87.9468 34.1488 87.9489 34.1691 87.9538 34.2031C87.9561 34.2194 87.959 34.2364 87.9615 34.2527C92.3459 46.0184 89.9574 57.9829 86.5154 65.294C81.1904 76.6061 68.298 88.1996 48.1188 87.6342C26.3166 87.023 7.10944 71.0094 3.52397 50.0355C2.87061 46.728 3.52397 45.0486 3.85269 42.3632C3.45224 44.4334 3.29968 45.0314 3.09858 48.7096C3.09858 48.7881 3.09375 48.8658 3.09375 48.9445C3.09414 74.3456 23.8996 94.9375 49.563 94.9375C72.5467 94.9375 91.6303 78.4214 95.3664 56.727C95.4451 56.1383 95.5081 55.5465 95.5775 54.9525C96.5012 47.0647 95.4751 38.7739 92.5637 31.841Z" fill="url(#paint2_radial)"/>
    <path d="M69.9815 37.2475C70.0829 37.318 70.1749 37.388 70.2702 37.4581C69.104 35.4092 67.6518 33.5333 65.9564 31.8859C51.5115 17.5886 62.1687 0.88533 63.9659 0.0370176C63.9712 0.030127 63.982 0.014623 63.9853 0.0109863C52.3122 6.77835 48.3522 19.2973 47.9883 25.5607C48.5297 25.5235 49.0695 25.4785 49.6206 25.4785C58.3316 25.4785 65.9187 30.2197 69.9815 37.2475Z" fill="url(#paint3_radial)"/>
    <path d="M49.6501 40.1021C49.5741 41.2463 45.4902 45.1922 44.062 45.1922C30.8481 45.1922 28.7031 53.1039 28.7031 53.1039C29.2884 59.7668 33.9743 65.2534 39.6494 68.1567C39.9083 68.2891 40.1703 68.4088 40.4325 68.5271C40.882 68.7241 41.3372 68.9083 41.7974 69.0795C43.7433 69.7614 45.7815 70.1505 47.844 70.2338C71.0045 71.3091 75.4916 42.8256 58.7775 34.5542C63.0579 33.8173 67.5009 35.5214 69.9821 37.2467C65.9192 30.2194 58.3322 25.4783 49.6213 25.4783C49.0702 25.4783 48.5306 25.5233 47.989 25.5604C43.3276 25.8776 38.8708 27.5777 35.1998 30.4389C35.9083 31.0323 36.708 31.8255 38.3929 33.4685C41.5451 36.5438 49.6329 39.7285 49.6501 40.1021Z" fill="url(#paint4_radial)"/>
    <path d="M49.6501 40.1021C49.5741 41.2463 45.4902 45.1921 44.062 45.1921C30.8481 45.1921 28.7031 53.1039 28.7031 53.1039C29.2884 59.7668 33.9743 65.2534 39.6494 68.1567C39.9083 68.2891 40.1703 68.4088 40.4325 68.527C40.882 68.7241 41.3372 68.9083 41.7974 69.0794C43.7433 69.7614 45.7815 70.1505 47.844 70.2338C71.0045 71.3091 75.4916 42.8256 58.7775 34.5542C63.0579 33.8173 67.5009 35.5214 69.9821 37.2467C65.9192 30.2194 58.3322 25.4783 49.6213 25.4783C49.0702 25.4783 48.5306 25.5233 47.989 25.5604C43.3276 25.8776 38.8708 27.5777 35.1998 30.4389C35.9083 31.0323 36.708 31.8255 38.3929 33.4685C41.5451 36.5438 49.6329 39.7285 49.6501 40.1021Z" fill="url(#paint5_radial)"/>
    <path d="M33.0308 28.9091C33.3544 29.1158 33.6755 29.3263 33.9939 29.5408C32.9347 25.8726 32.8897 21.9903 33.8636 18.2991C29.0899 20.4507 25.377 23.8518 22.6777 26.8549C22.9011 26.8486 29.6414 26.7286 33.0308 28.9091Z" fill="url(#paint6_radial)"/>
    <path d="M3.5243 50.0355C7.10976 71.0094 26.3169 87.023 48.1192 87.6342C68.2983 88.1996 81.1908 76.6053 86.5157 65.294C89.9575 57.9823 92.3462 46.0194 87.9618 34.2527L87.9603 34.2477L87.9541 34.2031C87.9492 34.169 87.9464 34.1487 87.9471 34.1598C87.9471 34.1673 87.95 34.1859 87.9562 34.2364C89.6044 44.8903 84.1296 55.2115 75.5714 62.1901L75.5456 62.2501C58.8694 75.6912 42.9116 70.3596 39.6806 68.1771C39.4535 68.069 39.2279 67.9578 39.0038 67.8435C29.2813 63.2442 25.2649 54.4761 26.1261 46.9565C17.9166 46.9565 15.1174 40.1024 15.1174 40.1024C15.1174 40.1024 22.488 34.9002 32.2022 39.4247C41.1992 43.6151 49.6486 40.1028 49.6496 40.1024C49.6324 39.7288 41.5445 36.5442 38.3916 33.4691C36.7069 31.826 35.907 31.0338 35.1985 30.4395C34.8141 30.1181 34.4123 29.8178 33.9948 29.5399C33.676 29.326 33.355 29.1154 33.0317 28.9082C29.6425 26.7277 22.902 26.8477 22.6787 26.8535H22.6572C20.8151 24.5438 20.945 16.9247 21.05 15.3339C21.028 15.2353 19.6758 16.0287 19.4987 16.1483C17.8731 17.2969 16.3535 18.5856 14.9574 19.9994C13.3688 21.5945 11.9173 23.318 10.6181 25.1519C10.6181 25.1542 10.6167 25.1569 10.6159 25.1592C10.6159 25.1567 10.6173 25.1542 10.6181 25.1519C7.62997 29.3436 5.51072 34.0799 4.38281 39.0872C4.36058 39.1869 2.71026 46.3304 3.5243 50.0355Z" fill="url(#paint7_radial)"/>
    <path d="M65.9553 31.8858C67.6507 33.5333 69.1029 35.4091 70.2691 37.458C70.5249 37.6483 70.7639 37.8379 70.9668 38.023C81.5014 47.6316 75.9817 61.2215 75.5701 62.19C84.1283 55.2113 89.6031 44.8901 87.9549 34.2363C82.7004 21.2719 73.7906 16.0442 66.5151 4.66169C66.1477 4.08613 65.7793 3.50905 65.4205 2.90076C65.2377 2.5901 65.0671 2.27264 64.9088 1.94908C64.6066 1.37139 64.3734 0.760761 64.2141 0.129577C64.2152 0.099695 64.205 0.0704811 64.1855 0.0476733C64.1659 0.0248654 64.1385 0.010112 64.1085 0.00631098C64.08 -0.00177814 64.0498 -0.00177814 64.0213 0.00631098C64.0147 0.00860786 64.0051 0.0160727 63.9981 0.0187524C63.9879 0.0227719 63.9749 0.0319594 63.9641 0.037893C62.1676 0.88544 51.5104 17.5887 65.9553 31.8858Z" fill="url(#paint8_radial)"/>
    <path d="M70.9675 38.023C70.7646 37.8379 70.5256 37.6483 70.2698 37.458C70.1753 37.3876 70.0824 37.3175 69.9811 37.2475C67.4999 35.5221 63.0569 33.818 58.7765 34.5549C75.4907 42.8264 71.0036 71.3099 47.843 70.2346C45.7805 70.1513 43.7423 69.7622 41.7965 69.0802C41.3363 68.9089 40.8812 68.7247 40.4315 68.5278C40.1693 68.4095 39.9073 68.2899 39.6484 68.1575C39.6577 68.1638 39.6705 68.1709 39.68 68.1766C42.911 70.3586 58.8688 75.6906 75.545 62.2495L75.5708 62.1896C75.9824 61.2222 81.5021 47.6318 70.9675 38.023Z" fill="url(#paint9_radial)"/>
    <path d="M28.7024 53.1043C28.7024 53.1043 30.8474 45.1926 44.0614 45.1926C45.4899 45.1926 49.5738 41.2467 49.6494 40.1025C49.7251 38.9583 41.1996 43.6152 32.202 39.4247C22.4879 34.9003 15.1172 40.1025 15.1172 40.1025C15.1172 40.1025 17.9165 46.9566 26.1259 46.9566C25.2649 54.4761 29.2813 63.2452 39.0037 67.8436C39.221 67.9464 39.4252 68.0587 39.6483 68.1573C33.9736 65.2538 29.2877 59.7672 28.7024 53.1043Z" fill="url(#paint10_radial)"/>
    <path d="M92.5633 31.841C90.5436 27.0321 86.4531 21.8404 83.241 20.1995C85.8552 25.2727 87.3683 30.3618 87.9464 34.1599C87.9464 34.1673 87.9493 34.1859 87.9555 34.2364C82.701 21.2719 73.7912 16.0442 66.5156 4.66169C66.1482 4.08613 65.7799 3.50904 65.421 2.90076C65.2383 2.5901 65.0676 2.27264 64.9094 1.94908C64.6071 1.37139 64.374 0.760761 64.2146 0.129577C64.2158 0.099695 64.2055 0.0704811 64.186 0.0476733C64.1665 0.0248654 64.139 0.010112 64.1091 0.00631098C64.0806 -0.00177814 64.0504 -0.00177814 64.0219 0.00631098C64.0153 0.00860786 64.0056 0.0160727 63.9987 0.0187524C63.9884 0.0227719 63.9755 0.0319594 63.9646 0.037893C63.9699 0.0310024 63.9807 0.0154985 63.984 0.0118618C52.3109 6.77922 48.3509 19.2981 47.987 25.5615C48.5284 25.5244 49.0682 25.4794 49.6193 25.4794C58.3307 25.4794 65.9177 30.2206 69.98 37.2478C67.4988 35.5225 63.0558 33.8184 58.7754 34.5553C75.4896 42.8268 71.0025 71.3103 47.8419 70.235C45.7795 70.1517 43.7413 69.7625 41.7954 69.0806C41.3352 68.9093 40.8801 68.7251 40.4305 68.5282C40.1683 68.4099 39.9063 68.2903 39.6474 68.1578C39.6567 68.1642 39.6694 68.1712 39.6789 68.177C39.4518 68.0688 39.2262 67.9576 39.0021 67.8434C39.2195 67.9461 39.4237 68.0585 39.6468 68.1571C33.9717 65.2538 29.2858 59.7672 28.7005 53.1043C28.7005 53.1043 30.8455 45.1925 44.0594 45.1925C45.488 45.1925 49.5719 41.2467 49.6475 40.1025C49.6303 39.7288 41.5425 36.5442 38.3896 33.4691C36.7048 31.8261 35.9049 31.0338 35.1964 30.4395C34.8121 30.1182 34.4103 29.8178 33.9928 29.5399C32.9336 25.8718 32.8886 21.9895 33.8624 18.2982C29.0888 20.4498 25.3759 23.8509 22.6766 26.8541H22.6551C20.813 24.5444 20.9429 16.9253 21.0479 15.3345C21.0259 15.2359 19.6737 16.0293 19.4966 16.1489C17.8711 17.2975 16.3514 18.5862 14.9554 20C13.3672 21.595 11.9162 23.3183 10.6174 25.1519C10.6174 25.1542 10.616 25.1569 10.6152 25.1592C10.6152 25.1567 10.6166 25.1542 10.6174 25.1519C7.62926 29.3436 5.51001 34.08 4.3821 39.0873C4.35987 39.187 4.34111 39.2903 4.31946 39.3908C4.23206 39.7958 3.83876 41.851 3.78385 42.2918C3.7796 42.3257 3.78791 42.2581 3.78385 42.2918C3.4252 44.4155 3.19636 46.5586 3.09858 48.7096C3.09858 48.7881 3.09375 48.8658 3.09375 48.9445C3.09375 74.3456 23.8992 94.9375 49.5626 94.9375C72.5463 94.9375 91.6299 78.4214 95.366 56.7271C95.4447 56.1383 95.5077 55.5465 95.5771 54.9525C96.5008 47.0647 95.4747 38.7739 92.5633 31.841ZM87.9534 34.2031C87.9557 34.2194 87.9586 34.2364 87.9611 34.2527L87.9596 34.2477L87.9534 34.2031Z" fill="url(#paint11_linear)"/>
    <defs>
        <linearGradient id="paint0_linear" x1="84.0733" y1="14.7155" x2="10.1889" y2="86.7149" gradientUnits="userSpaceOnUse">
            <stop offset="0.05" stop-color="#FFF44F"/>
            <stop offset="0.37" stop-color="#FF980E"/>
            <stop offset="0.53" stop-color="#FF3647"/>
            <stop offset="0.7" stop-color="#E31587"/>
        </linearGradient>
        <radialGradient id="paint1_radial" cx="0" cy="0" r="1" gradientUnits="userSpaceOnUse" gradientTransform="translate(67.4042 10.583) scale(95.0403 95.6647)">
            <stop offset="0.13" stop-color="#FFBD4F"/>
            <stop offset="0.28" stop-color="#FF980E"/>
            <stop offset="0.47" stop-color="#FF3750"/>
            <stop offset="0.78" stop-color="#EB0878"/>
            <stop offset="0.86" stop-color="#E50080"/>
        </radialGradient>
        <radialGradient id="paint2_radial" cx="0" cy="0" r="1" gradientUnits="userSpaceOnUse" gradientTransform="translate(39.8462 50.0947) scale(97.4163 95.6647)">
            <stop offset="0.3" stop-color="#960E18"/>
            <stop offset="0.35" stop-color="#B11927" stop-opacity="0.74"/>
            <stop offset="0.43" stop-color="#DB293D" stop-opacity="0.34"/>
            <stop offset="0.5" stop-color="#F5334B" stop-opacity="0.09"/>
            <stop offset="0.53" stop-color="#FF3750" stop-opacity="0"/>
        </radialGradient>
        <radialGradient id="paint3_radial" cx="0" cy="0" r="1" gradientUnits="userSpaceOnUse" gradientTransform="translate(58.6836 -4.48267) scale(31.1947 52.4259)">
            <stop offset="0.13" stop-color="#FFF44F"/>
            <stop offset="0.53" stop-color="#FF980E"/>
        </radialGradient>
        <radialGradient id="paint4_radial" cx="0" cy="0" r="1" gradientUnits="userSpaceOnUse" gradientTransform="translate(38.0982 74.7913) scale(41.2789 44.7852)">
            <stop offset="0.35" stop-color="#3A8EE6"/>
            <stop offset="0.67" stop-color="#9059FF"/>
            <stop offset="1" stop-color="#C139E6"/>
        </radialGradient>
        <radialGradient id="paint5_radial" cx="0" cy="0" r="1" gradientUnits="userSpaceOnUse" gradientTransform="translate(45.1514 40.2574) scale(21.9191 26.4233)">
            <stop offset="0.21" stop-color="#9059FF" stop-opacity="0"/>
            <stop offset="0.97" stop-color="#6E008B" stop-opacity="0.6"/>
        </radialGradient>
        <radialGradient id="paint6_radial" cx="0" cy="0" r="1" gradientUnits="userSpaceOnUse" gradientTransform="translate(46.4417 7.05739) scale(32.8169 32.6009)">
            <stop offset="0.1" stop-color="#FFE226"/>
            <stop offset="0.79" stop-color="#FF7139"/>
        </radialGradient>
        <radialGradient id="paint7_radial" cx="0" cy="0" r="1" gradientUnits="userSpaceOnUse" gradientTransform="translate(76.4138 -14.3293) scale(156.675 130.191)">
            <stop offset="0.11" stop-color="#FFF44F"/>
            <stop offset="0.46" stop-color="#FF980E"/>
            <stop offset="0.72" stop-color="#FF3647"/>
            <stop offset="0.9" stop-color="#E31587"/>
        </radialGradient>
        <radialGradient id="paint8_radial" cx="0" cy="0" r="1" gradientUnits="userSpaceOnUse" gradientTransform="translate(18.2268 28.665) rotate(77.2701) scale(49.2295 214.922)">
            <stop stop-color="#FFF44F"/>
            <stop offset="0.3" stop-color="#FF980E"/>
            <stop offset="0.57" stop-color="#FF3647"/>
            <stop offset="0.74" stop-color="#E31587"/>
        </radialGradient>
        <radialGradient id="paint9_radial" cx="0" cy="0" r="1" gradientUnits="userSpaceOnUse" gradientTransform="translate(46.7799 18.7832) scale(89.9543 87.4814)">
            <stop offset="0.14" stop-color="#FFF44F"/>
            <stop offset="0.48" stop-color="#FF980E"/>
            <stop offset="0.66" stop-color="#FF3647"/>
            <stop offset="0.9" stop-color="#E31587"/>
        </radialGradient>
        <radialGradient id="paint10_radial" cx="0" cy="0" r="1" gradientUnits="userSpaceOnUse" gradientTransform="translate(70.1279 23.8996) scale(108.122 95.751)">
            <stop offset="0.09" stop-color="#FFF44F"/>
            <stop offset="0.63" stop-color="#FF980E"/>
        </radialGradient>
        <linearGradient id="paint11_linear" x1="77.3437" y1="13.2915" x2="18.3364" y2="78.4215" gradientUnits="userSpaceOnUse">
            <stop offset="0.17" stop-color="#FFF44F" stop-opacity="0.8"/>
            <stop offset="0.6" stop-color="#FFF44F" stop-opacity="0"/>
        </linearGradient>
    </defs>
</svg>
