<svg width="99" height="98" viewBox="0 0 99 98" fill="none" xmlns="http://www.w3.org/2000/svg">
    <path fill-rule="evenodd" clip-rule="evenodd" d="M52.2005 2.72311L69.9215 12.851L69.9291 12.8398L70.8947 13.3908L71.0083 13.4582L71.0575 13.4882L88.8959 23.6836L89.869 24.2346C90.4546 24.5688 90.9399 25.051 91.2752 25.6319C91.6106 26.2128 91.7839 26.8716 91.7775 27.5406L91.7812 52.8791L84.14 48.5123V29.6809L67.2558 20.029L67.1952 20.0028L67.0816 19.9353L66.1122 19.3843L66.1198 19.3731L50.0156 10.1672L33.1996 19.7779C33.1685 19.801 33.1369 19.8235 33.1049 19.8453H33.1011L32.9497 19.9353L31.9803 20.49L15.8913 29.6809V68.7082L32.7755 78.3563L32.8361 78.3863L32.9497 78.45L33.919 79.0048L33.9114 79.0123L41.0529 83.0979L41.6208 83.4203V92.1163L39.9396 91.153L30.1097 85.538L30.106 85.5455L29.1366 84.9945L29.023 84.9271L28.9586 84.8896L11.1353 74.7017L10.166 74.1507C9.57991 73.8171 9.09417 73.335 8.75875 72.754C8.42334 72.1729 8.25034 71.5139 8.25757 70.8447H8.25V27.5069C8.25 26.7797 8.46583 26.0938 8.83691 25.509H8.83313C9.21178 24.9093 9.74947 24.422 10.3894 24.1109L28.1672 13.953L28.1635 13.9455L29.1328 13.3908C29.1851 13.3608 29.2381 13.332 29.2918 13.3046L29.3297 13.2896L30.1022 12.8435L30.106 12.851L47.1454 3.11668L47.1379 3.10543L48.111 2.54694C48.7389 2.18797 49.4573 2.01386 50.1817 2.04507C50.9061 2.07628 51.6064 2.3115 52.2005 2.72311ZM41.0756 38.8455L84.14 63.4531V55.8553L91.7812 60.2033V68.6969L88.0061 72.5239C87.4759 73.1986 86.6581 73.6972 85.9878 73.3111L54.0066 54.9819V89.9948C54.0233 90.1762 53.9947 90.3589 53.9234 90.5269C53.8521 90.6948 53.7403 90.8429 53.5977 90.9581L52.8896 90.096L53.5901 90.9581L48.236 95.2499C48.0756 95.3985 47.8748 95.4974 47.6583 95.5343C47.4418 95.5713 47.2192 95.5447 47.0178 95.4578C46.8164 95.3708 46.6452 95.2275 46.5252 95.0453C46.4052 94.8632 46.3418 94.6502 46.3427 94.4328H46.3503V50.6076L39.1747 46.507L35.3806 48.6773C35.3524 48.6973 35.3234 48.716 35.2935 48.7335V48.7297L33.0292 50.0229C32.9016 50.1076 32.7578 50.1656 32.6067 50.1932C32.4557 50.2208 32.3005 50.2174 32.1507 50.1834C32.001 50.1493 31.8599 50.0852 31.7362 49.9951C31.6124 49.905 31.5087 49.7907 31.4312 49.6593L32.4044 49.0971L31.435 49.6556L30.0832 47.3541L30.0605 47.3166L28.7504 45.0789C28.6637 44.9521 28.6043 44.809 28.5761 44.6585C28.5478 44.508 28.5512 44.3533 28.586 44.2042C28.6208 44.055 28.6863 43.9146 28.7785 43.7916C28.8706 43.6687 28.9874 43.5659 29.1215 43.4896L31.4653 42.159L37.2852 38.8455L38.5348 38.1333C38.7102 38.0103 38.9176 37.9396 39.1323 37.9296C39.3471 37.9196 39.5602 37.9708 39.7465 38.0771L39.7427 38.0808L41.0756 38.8455Z" fill="#0EBAC5"/>
</svg>
