<svg width="99" height="98" viewBox="0 0 99 98" fill="none" xmlns="http://www.w3.org/2000/svg">
    <path d="M96.9375 51.1406C96.9375 43.7357 94.7658 36.8536 91.3975 30.7555C106.023 -1.47722 75.8854 3.31413 74.1125 3.31413C67.9077 4.53375 61.7029 6.49385 56.3844 8.97664C35.9971 8.73707 18.269 19.4305 12.5073 41.645C23.1442 29.8844 30.6787 25.093 35.1107 23.3507C34.18 24.1783 33.2492 25.0495 32.3185 25.9206C25.2273 32.8898 19.4656 39.8591 14.5904 47.2639C10.8232 53.7976 6.61274 59.4601 4.39673 66.8649C-7.56975 109.552 30.1025 91.6928 35.4209 88.6438C41.1826 91.4315 47.3874 92.956 54.4787 92.956C73.0932 92.956 89.0485 81.1954 94.8101 65.079H72.2068C61.5699 81.631 36.3073 74.2262 35.4209 56.3675H96.5829C96.8134 54.5816 96.9375 52.7957 96.9375 51.1406ZM88.7383 9.84779C92.4168 12.287 95.3863 15.9459 90.2895 29.0132C85.4142 21.1728 78.323 15.0747 69.4589 12.0257C73.4034 10.1527 83.1982 6.36317 88.9599 9.84779H88.7383ZM10.2913 88.6873C7.27754 85.6819 6.7457 78.2335 13.3937 64.7306C16.7178 74.3133 23.5874 82.1537 32.0083 86.945C27.7092 89.2536 16.4962 94.3499 10.2913 88.3824V88.6873ZM35.1107 45.1296C35.452 35.5469 43.9747 27.7065 54.6116 27.7065C65.2485 27.7065 73.6693 35.5469 74.1125 45.1296H35.5539H35.1107Z" fill="#1EBBEE"/>
</svg>
