<svg width="150" height="42" fill="none" xmlns="http://www.w3.org/2000/svg">
  <path d="m135.844 28.445 1.654-1.819c1.819 1.621 3.506 2.48 5.986 2.48 2.216 0 3.804-1.124 3.804-2.81 0-1.489-.827-2.283-4.465-3.209-4.201-1.058-6.318-2.514-6.318-5.457 0-3.043 2.812-5.127 6.384-5.127 2.679 0 4.631.86 6.516 2.348l-1.522 1.952c-1.753-1.357-3.208-1.952-5.027-1.952-2.018 0-3.605.992-3.605 2.58 0 1.522.992 2.348 4.729 3.275 4.036.959 6.02 2.58 6.02 5.391 0 3.308-2.844 5.358-6.582 5.358-2.944.033-5.391-1.025-7.574-3.01ZM108.424 21.996c0-5.193 4.002-9.493 9.592-9.493 5.59 0 9.592 4.3 9.592 9.493 0 5.193-4.002 9.492-9.592 9.492-5.59 0-9.592-4.3-9.592-9.492Zm16.439 0c0-4.003-2.812-7.046-6.847-7.046s-6.847 3.043-6.847 7.046c0 4.002 2.812 7.045 6.847 7.045s6.847-3.01 6.847-7.045ZM100.055 12.834v2.381H89.239v5.524h9.658v2.414h-9.658v5.656h10.948v2.382H86.56V12.834h13.495ZM63.208 12.834l10.75 13.528V12.834h2.613v18.324h-2.183L63.34 17.233v13.925h-2.613V12.833h2.481ZM29.438 0 22.59 4.994V15.48l6.847 9.69V0ZM29.438 37.31 3.043 0 0 2.25v38.996l6.88-4.995V16.935l17.166 24.31h7.476l5.424-3.935h-7.508Z" fill="#28234C"/>
  <path d="M6.88 16.935v19.316L0 41.246h7.508l6.88-4.995v-8.699L6.88 16.935ZM29.438 25.17V0h7.508v37.31h-7.508L3.043 0h8.6l17.795 25.17Z" fill="#009FE3"/>
</svg>
