<svg width="80" height="80" viewBox="0 0 80 80" fill="none" xmlns="http://www.w3.org/2000/svg">
    <path d="M29 13.5C29 14.3 28.3 15 27.5 15C26.7 15 26 14.3 26 13.5C26 12.7 26.7 12 27.5 12C28.3 12 29 12.7 29 13.5ZM32.5 12C31.7 12 31 12.7 31 13.5C31 14.3 31.7 15 32.5 15C33.3 15 34 14.3 34 13.5C34 12.7 33.3 12 32.5 12ZM37.5 12C36.7 12 36 12.7 36 13.5C36 14.3 36.7 15 37.5 15C38.3 15 39 14.3 39 13.5C39 12.7 38.3 12 37.5 12ZM13.5 32C12.7 32 12 32.7 12 33.5C12 34.3 12.7 35 13.5 35C14.3 35 15 34.3 15 33.5C15 32.7 14.3 32 13.5 32ZM18.5 32C17.7 32 17 32.7 17 33.5C17 34.3 17.7 35 18.5 35C19.3 35 20 34.3 20 33.5C20 32.7 19.3 32 18.5 32ZM23.5 32C22.7 32 22 32.7 22 33.5C22 34.3 22.7 35 23.5 35C24.3 35 25 34.3 25 33.5C25 32.7 24.3 32 23.5 32ZM13.5 46H18.5C19.3 46 20 45.3 20 44.5C20 43.7 19.3 43 18.5 43H13.5C12.7 43 12 43.7 12 44.5C12 45.3 12.7 46 13.5 46ZM17 49.5C17 50.3 17.7 51 18.5 51H21.5C22.3 51 23 50.3 23 49.5C23 48.7 22.3 48 21.5 48H18.5C17.7 48 17 48.7 17 49.5ZM40.5 48H26.5C25.7 48 25 48.7 25 49.5C25 50.3 25.7 51 26.5 51H40.5C41.3 51 42 50.3 42 49.5C42 48.7 41.3 48 40.5 48ZM49.5 48H45.5C44.7 48 44 48.7 44 49.5C44 50.3 44.7 51 45.5 51H49.5C50.3 51 51 50.3 51 49.5C51 48.7 50.3 48 49.5 48ZM35.5 53H18.5C17.7 53 17 53.7 17 54.5C17 55.3 17.7 56 18.5 56H35.5C36.3 56 37 55.3 37 54.5C37 53.7 36.3 53 35.5 53ZM25.5 58H13.5C12.7 58 12 58.7 12 59.5C12 60.3 12.7 61 13.5 61H25.5C26.3 61 27 60.3 27 59.5C27 58.7 26.3 58 25.5 58ZM25.5 63H18.5C17.7 63 17 63.7 17 64.5C17 65.3 17.7 66 18.5 66H25.5C26.3 66 27 65.3 27 64.5C27 63.7 26.3 63 25.5 63ZM35.5 63H31.5C30.7 63 30 63.7 30 64.5C30 65.3 30.7 66 31.5 66H35.5C36.3 66 37 65.3 37 64.5C37 63.7 36.3 63 35.5 63ZM74 10V50C74 51.7 72.7 53 71 53H60V70C60 71.7 58.7 73 57 73H9C7.3 73 6 71.7 6 70V39.8V37V30C6 28.3 7.3 27 9 27H20V19.8V17V10C20 8.3 21.3 7 23 7H71C72.7 7 74 8.3 74 10ZM23 17H71V10H23V17ZM9 37H57V30H9V37ZM57 70V39.8H9V70H57ZM71 50V19.8H23V27H57C58.7 27 60 28.3 60 30V50H71Z" fill="#1274CC"/>
</svg>
