<svg xmlns="http://www.w3.org/2000/svg" width="80" height="80" fill="none" viewBox="0 0 80 80">
  <path fill="#fff" stroke="#469FEB" stroke-width="3" d="M72.36 25.06c.19-1.37.19-2.75 0-4.12l-2.71-.6a2.55 2.55 0 01-1.82-1.57l-.17-.42c-.32-.74-.3-1.64.17-2.38l1.49-2.36a15.59 15.59 0 00-2.92-2.93l-2.33 1.49c-.75.47-1.65.5-2.39.17a11.5 11.5 0 00-.42-.17 2.55 2.55 0 01-1.57-1.8l-.61-2.73a15.53 15.53 0 00-4.13 0l-.61 2.72c-.2.86-.81 1.51-1.57 1.8l-.42.18c-.74.33-1.64.3-2.38-.17l-2.36-1.49a15.6 15.6 0 00-2.93 2.93l1.49 2.34c.47.75.5 1.64.17 2.38l-.17.43c-.3.75-.95 1.37-1.8 1.56l-2.73.62a15.53 15.53 0 000 4.12l2.71.6c.87.2 1.52.81 1.82 1.57l.17.42c.33.74.3 1.64-.17 2.38l-1.49 2.36a15.6 15.6 0 002.93 2.93l2.34-1.49c.75-.47 1.64-.5 2.38-.17l.43.18c.75.3 1.37.94 1.56 1.8l.62 2.72c1.37.19 2.75.19 4.12 0l.6-2.71c.2-.87.81-1.52 1.57-1.82l.42-.17c.74-.32 1.64-.3 2.38.17l2.36 1.49a15.6 15.6 0 002.93-2.92l-1.49-2.35a2.55 2.55 0 01-.17-2.38l.17-.43c.3-.75.95-1.37 1.8-1.56l2.73-.62z"/>
  <circle r="6.29" stroke="#469FEB" stroke-width="3" transform="matrix(1 0 0 -1 57 23)"/>
  <path fill="#fff" stroke="#1274CC" stroke-width="3" d="M58.18 51c.42-2.65.43-5.35 0-8l-5.23-1.16a2.53 2.53 0 01-1.81-1.6 19.2 19.2 0 00-.53-1.26 2.53 2.53 0 01.16-2.4l2.87-4.54a25.64 25.64 0 00-5.68-5.67l-4.49 2.86c-.74.47-1.65.5-2.4.16-.42-.2-.84-.37-1.27-.53a2.53 2.53 0 01-1.6-1.8l-1.18-5.24a25.54 25.54 0 00-8 0l-1.18 5.23c-.2.86-.8 1.52-1.59 1.81-.43.16-.85.34-1.27.53-.75.34-1.66.3-2.4-.16l-4.54-2.87a25.65 25.65 0 00-5.68 5.68l2.87 4.52c.47.74.5 1.64.16 2.4-.2.41-.37.84-.53 1.27-.29.78-.95 1.4-1.8 1.59L7.81 43a25.54 25.54 0 000 8l5.23 1.16c.86.19 1.52.8 1.81 1.6.16.42.34.84.53 1.26.34.75.3 1.66-.16 2.4l-2.87 4.54c1.59 2.18 3.5 4.1 5.68 5.68l4.52-2.86c.74-.47 1.64-.5 2.4-.16.41.19.84.36 1.27.52.78.3 1.4.96 1.59 1.81L29 72.2c2.65.42 5.35.42 8 0l1.16-5.24c.19-.86.8-1.52 1.6-1.81.42-.16.84-.34 1.26-.53a2.53 2.53 0 012.4.16l4.54 2.87c2.18-1.59 4.1-3.5 5.68-5.68l-2.87-4.52a2.53 2.53 0 01-.16-2.4c.2-.41.37-.84.53-1.27.29-.78.95-1.4 1.8-1.59L58.19 51z"/>
  <circle r="10.88" stroke="#1274CC" stroke-width="3" transform="matrix(1 0 0 -1 33 47)"/>
</svg>
