<svg xmlns="http://www.w3.org/2000/svg" width="32" height="32" fill="none" viewBox="0 0 32 32">
  <path fill="#2387DE" d="M9 4a1 1 0 00-.15.01H7.01a1 1 0 100 2h1v2c0 4.62 3.12 7.06 4.47 8-1.35.95-4.47 3.4-4.47 8v2h-1a1 1 0 100 2h1.84a1 1 0 00.32 0h13.68a1 1 0 00.32 0h1.84a1 1 0 100-2h-1v-2c0-4.6-3.1-7.05-4.46-8 1.35-.94 4.46-3.38 4.46-8v-2h1a1 1 0 100-2h-1.84a1 1 0 00-.32 0H9.17A1 1 0 009 4zm1.1 5.01h11.82c-.6 3.76-4.42 6.15-4.42 6.15a1 1 0 000 1.71s3.82 2.39 4.42 6.14H10.1c.61-3.75 4.43-6.14 4.43-6.14a1 1 0 000-1.71S10.7 12.77 10.1 9zm2.91 2a3 3 0 106 0h-6z"/>
</svg>
