<svg xmlns="http://www.w3.org/2000/svg" width="32" height="32" fill="none" viewBox="0 0 32 32">
  <path fill="#2387DE" d="M16 4a12 12 0 00-2.9 23.63c-.06-.16-.1-.35-.1-.58V25h-1.5c-.83 0-1.56-.36-1.91-1.01-.4-.73-.46-1.85-1.44-2.53-.29-.23-.07-.48.27-.45.61.17 1.12.6 1.6 1.22.48.63.7.77 1.6.77.43 0 1.08-.02 1.69-.12.33-.83.9-1.6 1.59-1.96-4-.41-5.9-2.4-5.9-5.1 0-1.16.49-2.29 1.33-3.23-.28-.94-.62-2.86.1-3.59 1.8 0 2.89 1.17 3.15 1.48a9 9 0 015.84 0A4.17 4.17 0 0122.56 9c.74.73.39 2.66.1 3.6A4.9 4.9 0 0124 15.81c0 2.7-1.9 4.68-5.9 5.1 1.1.57 1.9 2.18 1.9 3.4v2.73c0 .1-.02.18-.04.27A12 12 0 0016 4z"/>
</svg>
