<svg xmlns="http://www.w3.org/2000/svg" width="734" height="424" fill="none" viewBox="0 0 734 424">
  <path stroke="#B3DAFA" stroke-dasharray="3.99 3.99" stroke-linecap="round" stroke-linejoin="round" d="M375.68 76.15c-32.58-18.24-73.7-87.2-120.13-63.88-44.47 22.29-50.74 156.38-117.62 138.4-70.9-19.03-34.3-167.07 2.3-147.97C178.74 22.8 115 90.53 31 34.46"/>
  <path fill="#2387DE" d="M24.84 30.63c2.32-3.1.77-8.17-3.45-11.31-4.22-3.14-9.52-3.17-11.83-.06-2.32 3.12-.77 8.18 3.45 11.32 4.22 3.14 9.51 3.17 11.83.05z"/>
  <path fill="#2387DE" d="M12.8 24.27a4.71 4.71 0 10-4.49-8.3 4.71 4.71 0 004.49 8.3z"/>
  <path stroke="#2387DE" stroke-linecap="round" stroke-linejoin="round" stroke-miterlimit="10" stroke-width="1.58" d="M2.45 20.68c.29-.27.91-.93 1.9-1.13 1.1-.38 2.1-.16 2.5-.04M8.66 11.96c-.16.31-.48 1.14-.62 2.09 0 1.2.58 2.09.77 2.43"/>
  <path fill="#76BBF4" stroke="#2387DE" stroke-miterlimit="10" stroke-width="1.58" d="M15.43 38.05c-.41.44-1.14.5-1.84.23-2.71-1.38-4.51-3.9-5.4-7.58-.81-3.72-.52-6.83 1.34-9.25l.08-.05a1.65 1.65 0 011.97-.4c2.71 1.37 4.51 3.9 5.4 7.57.9 3.67.44 6.87-1.34 9.26-.04.13-.12.17-.2.22z"/>
  <path fill="#1274CC" d="M11.33 31.08a.96.96 0 10-.91-1.7.96.96 0 00.91 1.7zM14.45 33.99a1.25 1.25 0 10-1.19-2.2 1.25 1.25 0 001.19 2.2zM12.52 27.6a1.54 1.54 0 10-1.46-2.71 1.54 1.54 0 001.46 2.7z"/>
  <path fill="#76BBF4" stroke="#2387DE" stroke-miterlimit="10" stroke-width="1.58" d="M28.7 19.5c-.04.13-.12.18-.16.31-1.74 2.25-4.5 3.63-8.06 3.92-3.69.24-6.6-.7-8.52-2.83-.45-.42-.51-1.15-.27-1.71.04-.14.12-.18.16-.31 1.74-2.25 4.5-3.63 8.05-3.92 3.7-.24 6.61.7 8.53 2.83.4.55.51 1.15.27 1.71z"/>
  <path fill="#1274CC" d="M20.53 18.34a.96.96 0 10-.91-1.69.96.96 0 00.91 1.7zM24.18 20.63a1.25 1.25 0 10-1.19-2.2 1.25 1.25 0 001.19 2.2zM17.3 21.07a1.54 1.54 0 10-1.46-2.7 1.54 1.54 0 001.47 2.7z"/>
  <path fill="#B3DAFA" d="M732.2 422.08H133.06c-.58 0-.97.38-.97.96 0 .57.39.96.97.96h599.12c.58 0 .96-.38.96-.96s-.38-.96-.96-.96zM685.06 373.69V5.43c0-2.5-2.02-4.43-4.43-4.43H185.87a4.41 4.41 0 00-4.43 4.43v368.16c0 2.5 2.02 4.43 4.43 4.43h494.76c2.5.1 4.43-1.93 4.43-4.33z"/>
  <path fill="#F8FDFF" d="M184.62 377.73a3.96 3.96 0 01-3.95-3.95V5.62a3.96 3.96 0 013.95-3.95h494.76a3.96 3.96 0 013.95 3.95v368.16a3.96 3.96 0 01-3.95 3.95H184.62z"/>
  <path fill="#B3DAFA" d="M679.39 2.06a3.45 3.45 0 013.46 3.46V373.7a3.45 3.45 0 01-3.46 3.46H184.62a3.45 3.45 0 01-3.46-3.46V5.62a3.45 3.45 0 013.46-3.47l494.77-.1zm0-.96H184.62a4.41 4.41 0 00-4.43 4.42V373.7c0 2.5 2.03 4.42 4.43 4.42H679.4c2.5 0 4.42-2.02 4.42-4.42V5.62c0-2.5-1.92-4.52-4.42-4.52z"/>
  <path fill="#B3DAFA" d="M229.25 15.62a5.38 5.38 0 11-10.76.02 5.38 5.38 0 0110.76-.02zM248.4 15.62a5.38 5.38 0 11-10.78 0 5.38 5.38 0 1110.78 0zM210.02 15.62a5.38 5.38 0 11-10.78 0 5.38 5.38 0 1110.78 0z" opacity=".7"/>
  <path fill="#B3DAFA" d="M684.18 28.03h-503.8v1.16h503.8v-1.16z"/>
  <path fill="#F8FDFF" d="M659.37 337.03a19.95 19.95 0 0119.91 19.92 19.95 19.95 0 01-19.9 19.91 19.95 19.95 0 01-19.92-19.91 20.02 20.02 0 0119.91-19.92zm-3.08 73.4h6.26a3.9 3.9 0 003.75-3.07l1.92-9.53c.1-.28.1-.67.2-.96a39.75 39.75 0 0012.79-5.39l.87.58 8.08 5.39a4.2 4.2 0 004.9-.48l4.43-4.43a3.92 3.92 0 00.48-4.8l-5.39-8.09-.58-.86a39.75 39.75 0 005.4-12.8c.28-.1.67-.1.95-.2l9.53-1.92a4 4 0 003.08-3.75v-6.25a3.9 3.9 0 00-3.08-3.75l-9.53-1.93c-.28-.1-.67-.1-.96-.19a39.75 39.75 0 00-5.39-12.8l.58-.86 5.39-8.08c.96-1.44.77-3.66-.48-4.81l-4.43-4.43a4.02 4.02 0 00-2.79-1.06c-.77 0-1.44.2-2.11.58l-8.08 5.39-.87.58a39.75 39.75 0 00-12.8-5.39c-.1-.29-.1-.67-.19-.96l-1.92-9.53a4 4 0 00-3.75-3.07h-6.26a3.9 3.9 0 00-3.75 3.07l-1.92 9.53c-.1.29-.1.67-.2.96a43.4 43.4 0 00-12.89 5.3c-.28-.2-.57-.4-.77-.59l-8.08-5.38a4.2 4.2 0 00-4.9.48l-4.43 4.42a3.92 3.92 0 00-.48 4.81l5.39 8.08c.19.3.38.58.58.77a39.36 39.36 0 00-5.4 12.9c-.28.1-.67.09-.96.19l-9.52 1.92a4 4 0 00-3.08 3.75v6.26a3.9 3.9 0 003.08 3.75l9.52 1.92c.3.1.68.1.97.2a41.17 41.17 0 005.38 12.89c-.19.28-.38.57-.57.76l-5.39 8.09c-.96 1.44-.77 3.65.48 4.8l4.43 4.43a4.01 4.01 0 002.79 1.06c.77 0 1.44-.2 2.11-.58l8.08-5.39c.3-.19.58-.38.77-.57a37.25 37.25 0 0012.9 5.29c.09.29.1.67.19.96l1.92 9.53a3.89 3.89 0 003.75 3.27z"/>
  <path fill="#B3DAFA" d="M662.54 305.1c.77 0 1.73 1.05 1.83 1.82l1.92 9.62c0 .2.1.39.1.58v.29c.1.77.67 1.44 1.44 1.54 4.33.96 8.46 2.7 12.22 5.1.29.19.67.28 1.06.28.38 0 .76-.1 1.15-.38l.1-.1c.19-.19.48-.38.67-.48l8.08-5.38c.29-.2.67-.3 1.06-.3.58 0 1.06.2 1.44.49l4.43 4.42c.57.58.67 1.73.29 2.4l-5.4 8.09c-.09.2-.18.38-.38.48l-.19.2a1.9 1.9 0 00-.1 2.1 37.9 37.9 0 015.1 12.23c.2.77.77 1.34 1.54 1.44h.3c.18 0 .38.1.57.1l9.52 1.92c.77.2 1.54 1.06 1.54 1.92v6.26c0 .77-.77 1.73-1.54 1.82l-9.62 1.93c-.19 0-.38.1-.57.1h-.3c-.76.1-1.44.67-1.53 1.44a37.9 37.9 0 01-5.1 12.22c-.39.67-.39 1.54.1 2.2l.1.1c.18.2.38.49.47.68l5.39 8.08c.48.67.38 1.83-.2 2.4l-4.42 4.43c-.29.29-.87.48-1.44.48-.39 0-.77-.1-1.06-.29l-8.08-5.38c-.2-.1-.29-.2-.48-.39l-.2-.2c-.28-.28-.76-.38-1.15-.38-.38 0-.67.1-1.06.3a37.9 37.9 0 01-12.22 5.09c-.76.2-1.34.77-1.44 1.54v.29c0 .19-.1.38-.1.57l-1.92 9.53c-.19.77-1.06 1.54-1.83 1.54h-6.25c-.77 0-1.73-.77-1.83-1.54l-1.92-9.53c0-.19-.1-.38-.1-.67v-.29c-.1-.77-.67-1.44-1.44-1.54a37.9 37.9 0 01-12.22-5.1c-.29-.19-.67-.28-1.06-.28-.38 0-.77.1-1.15.38l-.1.1c-.19.19-.48.38-.67.48l-8.08 5.39c-.29.19-.67.28-1.06.28-.58 0-1.06-.19-1.44-.48l-4.43-4.42c-.58-.58-.67-1.73-.29-2.4l5.4-8.09c.09-.19.28-.38.38-.57l.1-.2c.47-.67.47-1.54.09-2.21a37.89 37.89 0 01-5.1-12.22 1.84 1.84 0 00-1.54-1.44h-.29c-.2 0-.48-.1-.67-.1l-9.53-1.92c-.76-.2-1.53-1.06-1.53-1.93v-6.25c0-.77.76-1.73 1.53-1.83l9.53-1.92c.2 0 .38-.1.58-.1h.28c.77-.1 1.45-.67 1.54-1.44a37.9 37.9 0 015.1-12.22c.39-.67.39-1.54-.1-2.21-.19-.29-.38-.48-.48-.77l-5.38-8.08a2.03 2.03 0 01.19-2.4l4.42-4.43c.3-.29.87-.48 1.45-.48.38 0 .77.1 1.06.29l8.08 5.38c.19.1.38.3.57.39l.2.1c.29.28.77.38 1.15.38.39 0 .67-.1 1.06-.29a37.88 37.88 0 0112.22-5.1c.77-.19 1.34-.77 1.44-1.54v-.19c0-.2.1-.48.1-.67l1.92-9.53c.2-.77 1.06-1.54 1.92-1.54h6.26zm-3.18 73.69a21.88 21.88 0 0021.84-21.84 21.88 21.88 0 00-21.84-21.84 21.88 21.88 0 00-21.84 21.84 21.95 21.95 0 0021.84 21.84zm3.18-75.33h-6.25a3.9 3.9 0 00-3.76 3.08l-1.92 9.52c-.1.29-.1.68-.2.96a43.42 43.42 0 00-12.88 5.3c-.3-.2-.58-.39-.77-.58l-8.09-5.39a4.19 4.19 0 00-4.9.48l-4.43 4.43a3.92 3.92 0 00-.48 4.8l5.39 8.09c.2.29.38.58.58.77a39.38 39.38 0 00-5.4 12.89c-.28.1-.66.1-.95.2l-9.53 1.92a3.99 3.99 0 00-3.08 3.75v6.25a3.9 3.9 0 003.08 3.75l9.53 1.93c.29.1.67.1.96.19a41.19 41.19 0 005.39 12.89c-.2.29-.39.58-.58.77l-5.39 8.08c-.96 1.44-.77 3.65.48 4.81l4.43 4.42a4.01 4.01 0 002.79 1.06c.77 0 1.44-.19 2.12-.57l8.08-5.4c.28-.18.57-.38.76-.57a37.25 37.25 0 0012.9 5.3c.1.28.1.67.19.96l1.92 9.52a3.9 3.9 0 003.75 3.08h6.26a3.9 3.9 0 003.75-3.08l1.92-9.52c.1-.3.1-.68.2-.97a39.77 39.77 0 0012.8-5.38l.86.57 8.08 5.39a4.2 4.2 0 004.9-.48l4.43-4.43a3.92 3.92 0 00.48-4.8l-5.39-8.09-.57-.86a39.77 39.77 0 005.38-12.8c.3-.1.68-.1.97-.2l9.52-1.92a4 4 0 003.08-3.75v-6.25a3.9 3.9 0 00-3.08-3.75l-9.52-1.93c-.3-.1-.68-.1-.97-.19a39.75 39.75 0 00-5.38-12.8l.57-.86 5.39-8.08c.96-1.44.77-3.66-.48-4.81l-4.43-4.43a4 4 0 00-2.79-1.05c-.76 0-1.44.19-2.11.57l-8.08 5.4c-.3.18-.58.38-.87.57a39.75 39.75 0 00-12.8-5.39c-.09-.29-.09-.67-.19-.96l-1.92-9.52c-.29-1.45-2.02-2.9-3.75-2.9zm-3.18 73.4a19.95 19.95 0 01-19.91-19.91 19.95 19.95 0 0119.91-19.92 19.95 19.95 0 0119.92 19.92 19.9 19.9 0 01-19.92 19.91z"/>
  <path fill="#E2E8F0" d="M138.33 320.4a30.26 30.26 0 0030.21-30.22 30.2 30.2 0 10-30.2 30.2zm0-57.15a26.95 26.95 0 0126.94 26.93 26.95 26.95 0 01-26.94 26.94 26.95 26.95 0 01-26.93-26.94 27.02 27.02 0 0126.93-26.93zm-4.23 94.85c-.29 0-.86-.48-.96-.77l-2.6-12.89c-.1-.29-.1-.67-.2-1.15l-.47-2.89-2.8-.67a52.11 52.11 0 01-16.06-6.64l-2.4-1.54-2.31 1.73-.2.2c-.28.19-.47.38-.76.47l-10.97 7.32c-.1 0-.2.1-.48.1-.39 0-.68-.1-.68-.2l-5.96-5.96c-.2-.2-.29-.97-.1-1.16l7.32-10.97c.19-.28.38-.57.67-.96l1.73-2.3-1.54-2.5a49 49 0 01-6.64-16.07l-.67-2.8-2.89-.47h-.19c-.29-.1-.67-.1-.96-.2l-12.9-2.6c-.28-.1-.76-.57-.76-.96v-8.46c0-.3.48-.87.77-.96l12.89-2.6c.29-.1.58-.1.96-.2h.2l2.88-.48.67-2.78a52.12 52.12 0 016.64-16.07l1.54-2.5-1.73-2.31c-.2-.29-.48-.58-.58-.87l-7.31-10.96c-.2-.3-.1-.97.1-1.16l6.06-6.06c.1-.1.38-.2.67-.2.29 0 .39.1.48.1l10.97 7.32c.29.19.48.38.96.67l2.31 1.73 2.4-1.54c5-3.17 10.4-5.38 16.07-6.64l2.89-.76.48-2.9c.1-.38.1-.66.19-.95l2.6-12.9c.1-.28.57-.76.96-.76h8.47c.28 0 .86.48.96.77l2.6 12.98c.1.3.1.48.1.77v.3l.47 2.88 2.8.67a50.65 50.65 0 0115.96 6.64l2.4 1.54 2.31-1.73.2-.2c.29-.19.48-.38.77-.48l10.96-7.3c.1 0 .2-.1.49-.1.38 0 .67.1.77.19l6.06 6.06c.19.2.28.96.1 1.15l-7.32 10.97c-.2.2-.29.48-.48.77l-.2.2-1.72 2.3 1.53 2.4c3.18 5 5.4 10.4 6.64 15.98l.68 2.78 2.88.49h.3c.28 0 .57.1.86.1l12.89 2.59c.29.1.77.58.77.96v8.47c0 .29-.48.86-.77.96l-12.99 2.6c-.29.1-.48.1-.77.1h-.29l-2.88.47-.68 2.8a50.63 50.63 0 01-6.63 15.96l-1.54 2.4 1.73 2.32.19.19c.2.29.38.48.48.77l7.12 11.35c.2.29.1.96-.1 1.16l-6.06 6.06c-.1.1-.38.19-.67.19-.29 0-.39-.1-.48-.1l-10.97-7.3c-.2-.2-.48-.3-.77-.49l-.2-.2-2.3-1.72-2.5 1.54a50.25 50.25 0 01-15.97 6.63l-2.8.68-.47 2.88v.3c0 .28-.1.57-.1.86l-2.6 12.89c-.1.29-.57.77-.96.77l-8.56-.1zm0 4.23h8.47c2.3 0 4.61-1.82 5.1-4.13l2.6-12.9c.09-.38.19-.86.19-1.34a54.13 54.13 0 0017.31-7.21c.39.28.77.57 1.06.76l10.97 7.32a4.7 4.7 0 002.79.77 5.4 5.4 0 003.75-1.45l5.96-5.96a5.51 5.51 0 00.68-6.54l-7.31-10.97c-.2-.29-.49-.77-.77-1.06a55.09 55.09 0 007.21-17.31c.48-.1.96-.1 1.35-.2l12.89-2.6a5.43 5.43 0 004.14-5.1v-8.46c0-2.3-1.83-4.62-4.14-5.1l-12.9-2.6c-.38-.1-.86-.19-1.34-.19a54.17 54.17 0 00-7.22-17.31c.3-.39.58-.77.78-1.06l7.3-10.97a5.51 5.51 0 00-.67-6.54l-5.96-5.97a5.23 5.23 0 00-3.75-1.44c-.97 0-2.02.29-2.8.77l-10.96 7.31c-.29.2-.77.48-1.06.77a55.06 55.06 0 00-17.31-7.21c-.1-.48-.1-.97-.2-1.35l-2.6-12.9a5.43 5.43 0 00-5.1-4.13h-8.46a5.43 5.43 0 00-5.1 4.14l-2.6 12.89c-.1.38-.19.87-.19 1.35a55.59 55.59 0 00-17.41 7.21c-.38-.29-.77-.58-1.06-.77l-10.97-7.31a4.71 4.71 0 00-2.79-.77 5.4 5.4 0 00-3.75 1.44l-5.96 5.97a5.51 5.51 0 00-.68 6.54l7.32 10.97c.19.29.48.67.77 1.06a55.07 55.07 0 00-7.22 17.31c-.48.1-.96.1-1.35.2l-12.89 2.6a5.43 5.43 0 00-4.13 5.09v8.47c0 2.3 1.82 4.61 4.13 5.1l12.9 2.6c.38.09.86.19 1.34.19a54.14 54.14 0 007.22 17.31c-.3.39-.58.77-.77 1.06l-7.32 10.97a5.51 5.51 0 00.68 6.54l5.96 5.96c.96.96 2.31 1.45 3.75 1.45.97 0 2.02-.3 2.8-.77l10.96-7.32c.29-.19.68-.48 1.06-.76a55.06 55.06 0 0017.32 7.21c.1.48.1.96.19 1.35l2.6 12.89a5.64 5.64 0 005.2 4.13z" opacity=".7"/>
  <path fill="#1274CC" d="M25.68 390.33l8.76-1.64 1.15-.29a32.89 32.89 0 004.04 4.14l-.29 1.16-1.82 8.75c-.3 1.54.57 3.37 2.02 3.94l5.29 2.22c.86.38 1.83.29 2.7 0a3.3 3.3 0 001.53-1.25l5-7.31c.2-.3.39-.68.68-.97 1.92.2 3.84.2 5.86.1.2.38.39.67.58.96l4.9 7.41a3.65 3.65 0 004.24 1.35l5.3-2.12a3.67 3.67 0 002.1-3.94l-1.63-8.76-.29-1.15a27.5 27.5 0 004.14-4.04l1.16.29 8.75 1.82c.67.1 1.35.1 1.92-.19.87-.38 1.64-.96 1.93-1.83l2.21-5.29c.58-1.44.1-3.37-1.25-4.23l-7.31-5c-.29-.2-.67-.39-.96-.58.19-1.93.19-3.85.1-5.87.38-.2.67-.38.96-.58l7.4-4.9a3.65 3.65 0 001.35-4.24L94.08 353a3.67 3.67 0 00-3.94-2.11l-8.76 1.63-1.15.3a32.88 32.88 0 00-4.04-4.15l.29-1.15 1.83-8.75a3.74 3.74 0 00-2.02-3.95l-5.3-2.21a3.72 3.72 0 00-2.69 0 3.3 3.3 0 00-1.54 1.25l-5 7.31c-.2.29-.39.67-.58.96a39.7 39.7 0 00-5.87-.1c-.19-.38-.38-.67-.57-.96l-4.91-7.4c-.87-1.35-2.79-1.93-4.23-1.35l-5.3 2.12a3.68 3.68 0 00-2.11 3.94l1.64 8.75.28 1.16a32.94 32.94 0 00-4.13 4.04l-1.16-.29-8.75-1.83c-.68-.1-1.35-.1-1.93.2a3.59 3.59 0 00-1.92 1.82l-2.21 5.3c-.58 1.44-.1 3.36 1.25 4.23l7.31 5c.29.2.67.38.96.58-.2 1.92-.2 3.85-.1 5.87-.38.19-.67.38-.96.57l-7.4 4.9c-1.35.88-1.93 2.8-1.35 4.24l2.12 5.3a3.62 3.62 0 003.84 2.1zm-3.36-8.56c-.1-.2.1-.68.29-.77l7.4-4.9c.3-.2.58-.4.87-.49l1.63-.96-.19-1.83c-.2-1.73-.2-3.56 0-5.2l.2-1.82-1.55-.96-.86-.58-7.31-5c-.2-.1-.3-.58-.2-.77l2.22-5.3c0-.1.19-.19.38-.28.2-.1.3-.1.3-.1l8.75 1.83c.28.1.67.2.96.29l1.73.48 1.15-1.45c1.06-1.34 2.31-2.6 3.76-3.65l1.44-1.16-.39-1.82c-.1-.39-.19-.68-.19-.96l-1.63-8.76c0-.2.19-.67.38-.67l5.3-2.12c.18-.1.67.1.76.29l4.9 7.4c.2.3.4.58.58.87l.97 1.54 1.82-.19c1.74-.2 3.56-.2 5.2 0l1.83.2.96-1.55.58-.86 5-7.31s.1-.1.29-.2c.19-.1.48-.1.48 0l5.29 2.22c.2.1.38.48.38.67l-1.82 8.75-.3.97-.47 1.82 1.44 1.16c1.35 1.06 2.6 2.3 3.66 3.75l1.15 1.44 1.83-.48c.38-.1.67-.2.96-.2l8.75-1.63c.2 0 .58.2.68.39l2.11 5.29c.1.2-.1.67-.28.77l-7.41 4.9c-.29.2-.58.4-.87.58l-1.54.96.2 1.83c.19 1.74.19 3.56 0 5.2l-.2 1.83 1.54.96.87.57 7.31 5c.2.1.29.59.2.78l-2.22 5.29c0 .1-.2.2-.39.29-.19.1-.28.1-.28.1l-8.76-1.84c-.29-.1-.67-.19-.96-.19l-1.73-.48-1.16 1.44a19.32 19.32 0 01-3.75 3.66l-1.44 1.15.38 1.74c.1.38.2.67.2.96l1.63 8.75c0 .2-.2.58-.38.68l-5.4 2.11c-.18.1-.66-.1-.76-.19l-4.9-7.4c-.2-.3-.4-.58-.58-.87l-.97-1.54-1.82.19c-1.74.2-3.56.2-5.2 0l-1.83-.2-.96 1.55-.58.86-5 7.31s-.1.1-.29.2c-.19.1-.48.1-.48 0l-5.29-2.22c-.2-.1-.38-.48-.38-.67l1.82-8.75.3-.97.47-1.73-1.44-1.15a19.33 19.33 0 01-3.66-3.75l-1.15-1.45-1.83.48c-.38.1-.67.2-.96.2l-8.75 1.63c-.2 0-.58-.19-.68-.38l-2.11-5.58zm50.21-1.54a17.48 17.48 0 00-4.71-24.25 17.48 17.48 0 00-24.24 4.72 17.48 17.48 0 004.71 24.24 17.48 17.48 0 0024.24-4.71zM45.7 362.14a15 15 0 0120.78-4.04 15 15 0 014.04 20.78 15 15 0 01-20.78 4.04 15.01 15.01 0 01-4.04-20.78z" opacity=".15"/>
  <path stroke="#318FFF" stroke-linecap="round" stroke-linejoin="round" d="M174.51 201.2c-.38-.48-.86-.97-1.25-1.45M173.26 199.75a24.07 24.07 0 01-1.73-2.3"/>
  <path fill="#B3DAFA" d="M643.1 418.9V50.74c0-2.5-2.01-4.43-4.42-4.43H143.91a4.41 4.41 0 00-4.42 4.43V418.9c0 2.5 2.02 4.43 4.42 4.43h494.77c2.4 0 4.43-2.02 4.43-4.43z"/>
  <path fill="#F8FDFF" d="M142.68 423.04a3.96 3.96 0 01-3.95-3.95V50.83a3.96 3.96 0 013.95-3.94h494.76a3.96 3.96 0 013.95 3.94V419a3.96 3.96 0 01-3.95 3.94l-494.77.1z"/>
  <path fill="#B3DAFA" d="M637.34 47.37a3.45 3.45 0 013.46 3.46V419a3.45 3.45 0 01-3.46 3.46H142.67a3.45 3.45 0 01-3.47-3.46V50.83a3.45 3.45 0 013.47-3.46h494.67zm0-.96H142.67a4.41 4.41 0 00-4.43 4.42V419c0 2.5 2.02 4.42 4.43 4.42h494.76c2.5 0 4.43-2.02 4.43-4.42V50.83c0-2.5-2.02-4.42-4.52-4.42z"/>
  <path fill="#B3DAFA" d="M187.2 60.84a5.38 5.38 0 11-10.76.02 5.38 5.38 0 0110.76-.02zM206.44 60.84a5.38 5.38 0 11-10.77 0 5.38 5.38 0 1110.77 0zM168.07 60.84a5.38 5.38 0 11-10.78 0 5.38 5.38 0 1110.78 0z" opacity=".7"/>
  <path fill="#B3DAFA" d="M642.15 73.25H138.34v1.15h503.8v-1.15z"/>
  <g fill="#2387DE" opacity=".4">
    <path d="M189.62 128.08c.48.39 1.06.58 1.73.58.86 0 1.73-.38 2.3-1.15a2.78 2.78 0 00-.57-3.95l-8.47-6.16 8.37-6.25a2.8 2.8 0 00.58-3.94 2.8 2.8 0 00-3.94-.58l-11.55 8.56a2.74 2.74 0 00-1.15 2.31c0 .87.38 1.73 1.15 2.31l11.55 8.27zM228.2 117.3l-8.37 6.26a2.8 2.8 0 00-.58 3.95 2.87 2.87 0 004.04.57l11.54-8.56a2.74 2.74 0 001.16-2.3c0-.87-.48-1.74-1.16-2.32l-11.54-8.46a2.78 2.78 0 00-3.94.58 2.78 2.78 0 00.57 3.94l8.28 6.35zM202.41 128.47c.29.1.67.19.96.19a2.9 2.9 0 002.7-1.92l6.06-17.03a2.98 2.98 0 00-1.73-3.66 2.98 2.98 0 00-3.66 1.73l-6.06 17.03c-.48 1.54.29 3.18 1.73 3.66z" opacity=".4"/>
    <path d="M250.03 129.62h15a3.86 3.86 0 003.85-3.85 3.86 3.86 0 00-3.84-3.84h-15.01a3.86 3.86 0 00-3.85 3.84 3.86 3.86 0 003.85 3.85z" opacity=".5"/>
    <path d="M225 156c0 2.2 1.4 4 3.13 4h115.74c1.72 0 3.13-1.8 3.13-4s-1.4-4-3.13-4H228.05c-1.64 0-3.05 1.8-3.05 4z" opacity=".4"/>
    <path d="M177.11 159.73h29.15a3.86 3.86 0 003.85-3.84 3.86 3.86 0 00-3.85-3.85H177.1a3.86 3.86 0 00-3.85 3.84 3.8 3.8 0 003.85 3.85z" opacity=".5"/>
    <path d="M353.47 184c1.94 0 3.53-1.8 3.53-4s-1.59-4-3.53-4h-54.94c-1.94 0-3.53 1.8-3.53 4s1.59 4 3.53 4h54.94zM228.77 183.88h53.78a3.86 3.86 0 003.84-3.85 3.86 3.86 0 00-3.84-3.85h-53.78a3.86 3.86 0 00-3.85 3.85 3.99 3.99 0 003.85 3.85z" opacity=".4"/>
    <path d="M177.11 183.88h28.57a3.86 3.86 0 003.85-3.85 3.86 3.86 0 00-3.85-3.85h-28.57a3.86 3.86 0 00-3.85 3.85 3.86 3.86 0 003.85 3.85z" opacity=".5"/>
    <path d="M323.99 204.18a3.86 3.86 0 00-3.85-3.85H228.4a3.86 3.86 0 00-3.85 3.85 3.86 3.86 0 003.84 3.85h91.75a3.99 3.99 0 003.85-3.85z" opacity=".4"/>
    <path d="M177.11 207.93h28.96a3.86 3.86 0 003.84-3.85 3.86 3.86 0 00-3.84-3.85H177.1a3.86 3.86 0 00-3.85 3.85 3.86 3.86 0 003.85 3.85z" opacity=".5"/>
    <path d="M228.47 224.38a3.86 3.86 0 00-3.84 3.85 3.86 3.86 0 003.84 3.85h50.12a3.86 3.86 0 003.85-3.85 3.86 3.86 0 00-3.85-3.85h-50.12z" opacity=".4"/>
    <path d="M177.11 231.98h28.57a3.86 3.86 0 003.85-3.85 3.86 3.86 0 00-3.85-3.84h-28.57a3.86 3.86 0 00-3.85 3.84 3.8 3.8 0 003.85 3.85z" opacity=".5"/>
    <path d="M271.48 248.53h-24.82a3.86 3.86 0 00-3.85 3.85 3.86 3.86 0 003.85 3.84h24.82a3.86 3.86 0 003.85-3.84 3.8 3.8 0 00-3.85-3.85zM228.96 248.53h-51.85a3.86 3.86 0 00-3.85 3.85 3.86 3.86 0 003.85 3.84h51.85a3.86 3.86 0 003.85-3.84 3.92 3.92 0 00-3.85-3.85zM392.03 276.43a3.86 3.86 0 003.85 3.84h202.89a3.86 3.86 0 003.85-3.84 3.86 3.86 0 00-3.85-3.85H395.78a3.84 3.84 0 00-3.75 3.85z" opacity=".4"/>
    <path d="M336.9 272.58a3.86 3.86 0 00-3.85 3.85 3.86 3.86 0 003.85 3.84h38.38a3.86 3.86 0 003.85-3.84 3.86 3.86 0 00-3.85-3.85H336.9zM598.67 296.63h-49.44a3.86 3.86 0 00-3.85 3.85 3.86 3.86 0 003.85 3.84h49.44a3.86 3.86 0 003.85-3.84 3.86 3.86 0 00-3.85-3.85z" opacity=".5"/>
    <path d="M528.53 300.48a3.86 3.86 0 00-3.84-3.85H317.85a3.86 3.86 0 00-3.85 3.85 3.86 3.86 0 003.85 3.84H524.7a3.92 3.92 0 003.84-3.84zM598.67 320.78H509.1a3.86 3.86 0 00-3.85 3.84 3.86 3.86 0 003.85 3.85h89.57a3.86 3.86 0 003.84-3.85 3.8 3.8 0 00-3.84-3.84z" opacity=".4"/>
    <path d="M466.3 320.78a3.86 3.86 0 00-3.85 3.84 3.86 3.86 0 003.85 3.85h22.22a3.86 3.86 0 003.85-3.85 3.86 3.86 0 00-3.85-3.84H466.3z" opacity=".5"/>
    <path d="M598.67 344.83H420.6a3.86 3.86 0 00-3.85 3.84 3.86 3.86 0 003.85 3.85h178.07a3.86 3.86 0 003.85-3.85 3.86 3.86 0 00-3.85-3.84zM342 344.83h-62.14a3.86 3.86 0 00-3.85 3.84 3.86 3.86 0 003.85 3.85H342a3.86 3.86 0 003.85-3.85 3.92 3.92 0 00-3.85-3.84z" opacity=".4"/>
  </g>
  <path fill="#2387DE" d="M501.52 145.17l77.63-.1a3.76 3.76 0 003.75-3.75V56.86a3.76 3.76 0 00-3.75-3.76l-77.63.1a3.76 3.76 0 00-3.75 3.75v84.47a3.76 3.76 0 003.75 3.75z"/>
  <path fill="#2387DE" d="M535.58 143.15c-1.45 4.23-6.93 16.74-23.77 23.38-1.05.38-2.02-.87-1.25-1.74 3.37-4.23 8.37-12.21 7.03-21.83-.1-.68.48-1.25 1.15-1.25h15.87c.68 0 1.25.67.97 1.44z"/>
  <path fill="#76BBF4" d="M508.16 64.17v15.68c0 .57.48 1.15 1.16 1.15H525c.58 0 1.15-.48 1.15-1.15V64.17c0-.58-.48-1.16-1.15-1.16h-15.68c-.68 0-1.16.48-1.16 1.16zm15.69 14.52h-13.38V65.32h13.38V78.7z"/>
  <path fill="#fff" d="M518.56 77.25c-.38 0-.86-.2-1.15-.48l-4.24-4.04a1.78 1.78 0 01-.1-2.4 1.78 1.78 0 012.41-.1l2.99 2.88 6.73-7.21a1.78 1.78 0 012.4-.1c.68.68.68 1.73.1 2.4l-7.89 8.47c-.29.39-.67.58-1.25.58 0 0 .1 0 0 0zM570.9 67.53H532.6c-.58 0-.96-.38-.96-.96v-.29c0-.57.38-.96.96-.96h38.29c.58 0 .96.39.96.96v.3c0 .47-.48.95-.96.95zm-4.62 4.62v-.29c0-.57-.38-.96-.96-.96H532.6c-.58 0-.96.39-.96.96v.3c0 .57.38.95.96.95h32.7c.49 0 .97-.48.97-.96zm4.43 5.58v-.29c0-.57-.39-.96-.97-.96h-37.13c-.58 0-.96.39-.96.96v.3c0 .57.38.95.96.95h37.13c.58 0 .97-.48.97-.96zm1.15 15.59v-.3c0-.57-.38-.95-.96-.95H532.6c-.58 0-.96.38-.96.96v.29c0 .57.38.96.96.96h38.29c.48 0 .96-.39.96-.96zm-16.74 5.58v-.3c0-.57-.38-.95-.96-.95h-21.55c-.58 0-.96.38-.96.96v.29c0 .57.38.96.96.96h21.55c.48 0 .96-.39.96-.96zm-11.16 5.57v-.28c0-.58-.38-.97-.96-.97h-10.39c-.58 0-.96.39-.96.97v.28c0 .58.38.97.96.97H543c.48 0 .96-.39.96-.97zm23.38 0v-.28c0-.58-.38-.97-.96-.97H548.2c-.58 0-.97.39-.97.97v.28c0 .58.39.97.97.97h18.18c.58 0 .96-.39.96-.97zm4.52 16.75v-.3c0-.57-.38-.96-.96-.96H532.6c-.58 0-.96.39-.96.97v.28c0 .58.38.97.96.97h38.29c.48 0 .96-.39.96-.97zm0 5.57v-.28c0-.58-.38-.97-.96-.97H532.6c-.58 0-.96.39-.96.97v.28c0 .58.38.97.96.97h38.29c.48 0 .96-.39.96-.97zm-17.9 5.68v-.29c0-.58-.38-.96-.96-.96h-20.39c-.58 0-.96.38-.96.96v.29c0 .58.38.96.96.96h20.4c.57 0 .96-.48.96-.96z"/>
  <path fill="#76BBF4" d="M508.16 90.91v15.68c0 .58.48 1.16 1.16 1.16H525c.58 0 1.15-.48 1.15-1.16V90.91c0-.58-.48-1.15-1.15-1.15h-15.68c-.68 0-1.16.48-1.16 1.15zm15.69 14.53h-13.38V92.07h13.38v13.37zM508.16 118.9v15.69c0 .57.48 1.15 1.16 1.15H525c.58 0 1.15-.48 1.15-1.15V118.9c0-.58-.48-1.16-1.15-1.16h-15.68c-.68 0-1.16.48-1.16 1.16zm15.69 14.53h-13.38v-13.37h13.38v13.37z"/>
  <path fill="#fff" d="M518.56 104.28c-.38 0-.86-.19-1.15-.48l-4.24-4.04a1.78 1.78 0 01-.1-2.4 1.78 1.78 0 012.41-.1l2.99 2.89 6.73-7.22a1.78 1.78 0 012.4-.1c.68.68.68 1.74.1 2.41l-7.89 8.47c-.29.38-.67.57-1.25.57 0 0 .1 0 0 0zM525.77 130.06l-3.37-3.36 3.27-3.27c.68-.68.68-1.73 0-2.4a1.68 1.68 0 00-2.4 0l-3.27 3.26-3.37-3.36a1.68 1.68 0 00-2.4 0 1.68 1.68 0 000 2.4l3.36 3.37-3.27 3.27a1.68 1.68 0 000 2.4c.67.68 1.73.68 2.4 0l3.28-3.27 3.36 3.37c.68.67 1.74.67 2.4 0 .68-.67.59-1.73 0-2.4z"/>
  <path stroke="#318FFF" stroke-linecap="round" stroke-linejoin="round" d="M524.88 254.5l-1.93.28"/>
  <path fill="#1274CC" d="M31.65 326.36l1.25-5.97c.1-.2.1-.48.1-.77 1.25-.38 2.5-.87 3.75-1.44.2.19.48.38.67.48l5.1 3.46c.87.58 2.31.48 3.08-.29l2.79-2.79c.48-.48.67-1.05.67-1.73 0-.48-.1-.96-.38-1.35l-3.37-5.1c-.1-.19-.29-.38-.48-.67.67-1.15 1.15-2.4 1.54-3.65.29 0 .58-.1.77-.1l6.06-1.15a2.46 2.46 0 001.92-2.31l.1-3.95c0-1.05-.87-2.11-1.92-2.4l-5.97-1.25c-.2-.1-.48-.1-.77-.1-.38-1.25-.86-2.5-1.44-3.75.2-.2.38-.48.48-.67l3.46-5.1c.3-.39.39-.87.39-1.35 0-.67-.2-1.25-.68-1.73l-2.79-2.79a2.61 2.61 0 00-3.07-.38l-5.1 3.36c-.2.1-.39.3-.68.48a17.38 17.38 0 00-3.65-1.54c0-.29-.1-.57-.1-.77l-1.15-6.06a2.46 2.46 0 00-2.31-1.92h-3.95c-1.05 0-2.11.87-2.4 1.92l-1.25 5.97c-.1.19-.1.48-.1.77-1.25.38-2.5.86-3.75 1.44a2.9 2.9 0 00-.67-.48l-5.1-3.46a2.61 2.61 0 00-3.08.28l-2.79 2.6a2.32 2.32 0 00-.67 1.73c0 .49.1.97.38 1.35l3.37 5.1c.1.2.29.38.48.67a17.33 17.33 0 00-1.54 3.66c-.29 0-.58.1-.77.1l-6.06 1.15a2.46 2.46 0 00-1.92 2.3l-.1 3.95c0 1.06.87 2.12 1.92 2.4l5.97 1.26c.2.1.48.1.77.1.38 1.25.86 2.5 1.44 3.75-.2.19-.38.48-.48.67l-3.46 5.1c-.3.38-.39.86-.39 1.35 0 .67.2 1.25.68 1.73l2.79 2.79c.77.77 2.11.96 3.07.38l5.1-3.37c.2-.1.39-.28.68-.48 1.15.68 2.4 1.16 3.65 1.54 0 .3.1.58.1.77l1.15 6.06a2.46 2.46 0 002.31 1.93l3.95.1c1.05.09 2.11-.78 2.4-1.83zm-6.35-.2c-.2 0-.38-.19-.38-.38l-1.16-6.06c0-.2-.1-.48-.1-.68l-.19-1.25-1.25-.38c-1.15-.39-2.3-.87-3.27-1.45l-1.06-.57-1.05.77c-.2.19-.39.29-.58.38l-5.1 3.37c-.1.1-.48 0-.58-.1l-2.79-2.79s-.1-.19-.1-.28c0-.1 0-.2.1-.2l3.47-5.1c.1-.19.28-.38.38-.57l.77-.97-.58-1.15a20.46 20.46 0 01-1.34-3.37l-.39-1.25-1.25-.19c-.29 0-.48-.1-.67-.1L2.2 302.6c-.19 0-.38-.28-.38-.38v-3.95c0-.19.19-.38.38-.38l6.06-1.15c.2 0 .48-.1.68-.1l1.25-.2.38-1.15c.39-1.15.87-2.3 1.45-3.27l.57-1.06-.77-1.06c-.19-.19-.29-.38-.38-.57l-3.37-5.1v-.2c0-.19.1-.28.1-.28l2.79-2.8c.1-.09.38-.09.57 0l5.1 3.47c.2.1.39.29.58.39l.96.77 1.16-.58c1.05-.58 2.2-.96 3.36-1.35l1.25-.38.2-1.25c0-.3.1-.49.1-.68l1.24-5.96c0-.2.3-.39.39-.39h3.94c.2 0 .39.2.39.39l1.15 5.96c0 .2.1.48.1.68l.19 1.25 1.15.38c1.16.39 2.31.87 3.28 1.44l1.05.58 1.06-.77c.2-.19.39-.29.58-.38l5.1-3.37c.1-.1.48 0 .58.1l2.79 2.79s.1.19.1.29c0 .1 0 .19-.1.19l-3.47 5.1c-.1.19-.29.38-.38.57l-.77.96.57 1.16c.58 1.06.97 2.21 1.35 3.37l.39 1.25 1.25.19c.29 0 .48.1.67.1l5.96 1.25c.2 0 .39.29.39.38v3.95c0 .19-.2.38-.39.38l-6.06 1.15c-.19 0-.48.1-.67.1l-1.25.2-.38 1.15c-.39 1.15-.87 2.3-1.45 3.27l-.57 1.06.76 1.05c.2.2.3.39.39.58l3.37 5.1v.2c0 .19-.1.28-.1.28l-2.79 2.8c-.1.09-.38.09-.58 0l-5.1-3.47c-.19-.1-.38-.29-.57-.39l-.96-.77-1.16.58c-1.06.58-2.21.96-3.37 1.35l-1.25.38-.19 1.25c0 .3-.1.48-.1.68l-1.25 5.96c0 .1-.28.39-.38.39l-3.85.1zm12.32-32.23a11.98 11.98 0 00-16.65-3.46 11.98 11.98 0 00-3.46 16.64 11.98 11.98 0 0016.64 3.47 11.98 11.98 0 003.47-16.64zm-18.57 12.22a10.27 10.27 0 012.98-14.23 10.27 10.27 0 0114.24 2.98 10.27 10.27 0 01-2.98 14.24 10.25 10.25 0 01-14.24-2.99z" opacity=".1"/>
  <path fill="#EEA98A" d="M383.28 236.98c-22.9 13.86-21.94 112.95-28.1 127.28-6.15 14.33-35.97 30.11-35.97 30.11l7.5 22.9s37.04.19 58.59-36.37c21.55-36.55-2.02-143.92-2.02-143.92z"/>
  <path fill="#1274CC" d="M417.83 283.55l-2.21 6.73-10.49 31.46-2.21 6.44-46.28-7.5s3.28-68.6 31.08-89.18l30.1 52.05z"/>
  <path fill="#76BBF4" d="M404.92 327.22l-49.74-8.95-.67 4.72 49.64 8.46.77-4.23z"/>
  <path fill="#1274CC" d="M388.4 349.25c4.42 25.69-.68 57.05-3.95 73.21h145.84c1.63-22.9 3.46-56.37 3.08-89.27-.48-46.86 15.2-75.9-21.26-105.63-2.22-1.83-28.67-22.61-80.24-15.3-30.01 4.23-45.5 19.43-46.65 20.4-6.45 5.1-8.76 17.12-8.08 23.95 1.73 16.45 2.6 42.04 11.25 92.64z"/>
  <path fill="#FFBA9B" d="M398.79 396.49c-1.16.38-2.31.48-3.47.28-6.25-1.05-23.37-5.86-31.17-4.7-11.73 1.72-28.38 13.94-17.4 19.42 10.96 5.49 59.25 5.1 70.99 2.5 21.55-4.9 51.85-11.25 62.24-14.33 13.08-3.94 51.47-12.22 65.9-37.71 14.04-24.92-14.24-121.98-43.3-127.56-17.79-3.47 10.88 105.82 3.76 112.36-7.21 6.44-107.55 49.74-107.55 49.74z"/>
  <path fill="#1274CC" d="M506.54 227.17c-6.35-1.54-11.36 2.02-15.5 7.02-10.86 13.47-11.54 32.8-5.67 48.1a7495.28 7495.28 0 0119.92 52.34l45.5-16.55s-8.27-37.9-15.88-60.22c-5.19-15.2-16.93-27.9-28.37-30.69z"/>
  <path stroke="#0558A1" stroke-linecap="round" stroke-linejoin="round" stroke-miterlimit="10" stroke-width="1.58" d="M490.07 294.8s6.83 20.2 13.37 35.12"/>
  <path fill="#76BBF4" d="M551.36 314.04l1.63 6.45-49.35 16.54-1.83-6.15 49.55-16.84z"/>
  <path fill="#FFBA9B" d="M442.1 253.72c-18.45-.9-23.62-12.16-24.98-18.83-.77-3.78-.2-7.6 1.8-10.92a12.3 12.3 0 017.95-5.88c1.03-.17 2.07-.45 3.21-.72 3.53-.82 7.9-1.93 14.4-2.82 6.3-.8 12.69-1.14 18.32-.87 1.13.06 2.15.11 3.18.27 9.1.78 13.3 8.57 13.41 15.4.19 10.13-9.56 21.98-28.03 23.94-3.4.38-6.5.56-9.26.43z"/>
  <path fill="#76BBF4" d="M462.69 216.05c1.12.06 2.43-2.2 3.34-2.05 8.16.73 11.15 9.98 11.22 15.56.16 8.31-8.1 19.72-26.08 21.57-3.3.39-6.27.46-8.82.34-16.23-.8-21.48-9.8-23.01-16.98-1.37-6.41 2.38-12.79 8.06-14.04 4.24-.89 8.9-2.41 17.34-3.53 7-.97 13.15-1.1 17.95-.87zm.18-4.36c-5.72-.28-12.17-.05-18.66.83-6.58.88-11.03 1.98-14.54 2.79-1.14.27-2.17.55-3.1.72-3.82.8-7.1 3.26-9.2 6.88-2.2 3.72-3 8.16-2.06 12.47 1.54 7.18 7.05 19.37 26.76 20.34 2.96.14 6.13.08 9.43-.3 19.63-2.11 30-14.94 29.75-26-.18-7.77-4.92-16.53-15.22-17.47-1.02-.05-2.14-.21-3.16-.26z"/>
  <path fill="#FFBA9B" d="M423.8 192.02l2.47 33.48c.93 12.6 8.23 14.1 20.73 12.5 12.28-1.5 30.82 5.25 29-6.96l-15.38-71.67-36.82 32.65z"/>
  <path stroke="#EA967D" stroke-linecap="round" stroke-linejoin="round" stroke-miterlimit="10" stroke-width="1.5" d="M425 210.5s-.14 13.9 1 22.45"/>
  <path fill="#1A202E" d="M406.37 133.38c9.5 4.13 7.06 14.58-6.8 32.02-2.18 2.73-6.42 2.65-8.36-.16-7.47-10.47-10.66-26.4-5.84-31.95 5.64-6.71 12.04-3.8 21 .09z"/>
  <path fill="#FFBA9B" d="M402.52 113.32c-7.06 5.35-11.22 13.66-12.06 22.55-1.15 13.46-1.78 39.04 7.88 57.24 8.06 15.3 24.44 21.6 44.12 12.26 0 0 25.37-10.94 20.85-44.6-6.31-46.49-39.62-63.37-60.79-47.45z"/>
  <path fill="#27303F" d="M400.45 164.54a2.53 2.53 0 01-2.44 2.4 2.54 2.54 0 01-2.41-2.44 2.53 2.53 0 012.44-2.4 2.35 2.35 0 012.4 2.44zM424.01 158.71a2.7 2.7 0 01-2.6 2.57 2.7 2.7 0 01-2.57-2.6 2.7 2.7 0 012.6-2.57c1.5.07 2.63 1.21 2.57 2.6z"/>
  <path stroke="#DD8A6C" stroke-linecap="round" stroke-linejoin="round" stroke-miterlimit="10" stroke-width="1.5" d="M408.53 163l-1.86 9.45-.03.64c-.11 2.54 2.89 4.47 5.64 3.96l1.2-.26M427.26 181.87c0 4.13-5.05 10.64-13.38 8"/>
  <path fill="#27303F" d="M444.4 118.9c-10.4 6.07-9.61 22.77 7.23 41.63 4.19 4.66 12.07 3.05 14-2.96 5.6-16.85 5.11-42.36-1.23-47.88-7.93-7.12-9.6 3.15-20 9.22z"/>
  <path fill="#FFBA9B" d="M473.1 163.16c-1.04 8.23-7.56 13.56-10.75 13.3-6.25-.5-8.5-6.78-8.15-14.6.36-7.82 4.37-13.6 10.64-13.31 6.38.29 9.17 6.82 8.26 14.61z"/>
  <path stroke="#DD8A6C" stroke-linecap="round" stroke-linejoin="round" stroke-miterlimit="10" stroke-width="1.5" d="M464.45 156.54s-5.04 1.22-2.56 9.9"/>
  <path fill="#27303F" d="M391.37 159.21c-.21 0-.43-.02-.63-.13-.42-.32-.6-.93-.26-1.31a9.74 9.74 0 017.98-4.24c.53.02.94.44 1.02.95v.1c-.03.5-.47.88-1 .95a7.8 7.8 0 00-6.25 3.42c-.32.09-.54.28-.86.26zM428.04 152.7a1 1 0 01-1.12-.05 7.56 7.56 0 00-7.72-1.04c-.52.32-1.22-.05-1.4-.64-.28-.58-.04-1.26.58-1.58a9.71 9.71 0 019.75 1.25c.5.37.67 1.07.34 1.62a.85.85 0 01-.43.44zM463.93 121.28s3.96-20.33-18.55-26c-26.48-6.6-47.14 1.95-57.24-.02-1.18-.27-2.2.66-2.03 1.74a8.56 8.56 0 004.59 6.26s-10.25 1.26-22.63-2.98c-1.28-.49-2.53.75-2.15 1.95 1.91 5.6 6.37 17.14 12.12 21.83l-3.32-.8a1.59 1.59 0 00-1.74 2.4c2.63 4.22 8.7 11.2 20.72 11.63 15.92.51 31.18-20.38 46.78-12.98 15.7 7.41 23.45-3.03 23.45-3.03z"/>
  <path stroke="#EA967D" stroke-linecap="round" stroke-linejoin="round" stroke-miterlimit="10" stroke-width="1.5" d="M425 210.5s23.1-.56 31.82-18.27"/>
  <path stroke="#0558A1" stroke-linecap="round" stroke-linejoin="round" stroke-miterlimit="10" stroke-width="1.58" d="M383.96 284.5s-1.44 12.7.49 34.45c1.34 15 3.65 28.95 5 43.77 1.73 18.95-.29 28.57 0 31.26"/>
  <path fill="#9FA6B2" d="M460.73 412.84H341.83v9.62H460.73c2.7 0 4.81-2.11 4.81-4.8v-4.82h-4.8z"/>
  <path fill="#9FA6B2" d="M344.33 422.46H210.7a13.38 13.38 0 01-12.98-10.1l-25.2-99.28a8.25 8.25 0 017.98-10.3h137.28c3.75 0 7.12 2.6 7.98 6.26l26.26 103.51c1.25 5-2.5 9.91-7.7 9.91z"/>
  <path fill="#D2D6DC" d="M340.58 422.46H209.74a12.14 12.14 0 01-11.83-9.23l-25.4-100.15a8.25 8.25 0 017.99-10.3H314.3c3.75 0 7.12 2.6 7.99 6.26l26.26 103.22a8.21 8.21 0 01-7.98 10.2z"/>
  <path fill="#FBFDFE" d="M261.06 374.13c5.1-2.95 6.46-10.15 3.04-16.09-3.43-5.93-10.35-8.35-15.45-5.4-5.11 2.94-6.47 10.15-3.05 16.08 3.43 5.94 10.35 8.36 15.46 5.41z"/>
  <path fill="#1274CC" d="M714.4 310.77l.95-4.71c.1-.2.1-.39.1-.58.96-.29 2.02-.67 2.98-1.16.2.2.39.3.58.39l4.04 2.79c.67.48 1.83.38 2.4-.2l2.22-2.2a1.95 1.95 0 00.29-2.4l-2.7-4.05c-.1-.2-.19-.29-.38-.58.58-.96.96-1.92 1.25-2.88.2 0 .48-.1.58-.1l4.8-.96c.87-.2 1.55-.96 1.55-1.83l.1-3.18c0-.86-.68-1.73-1.55-1.92l-4.71-.96c-.2-.1-.39-.1-.58-.1-.29-.96-.67-2.02-1.15-2.98a2 2 0 00.38-.58l2.8-4.04c.18-.29.28-.67.28-1.06 0-.57-.2-.96-.58-1.34l-2.21-2.21c-.58-.58-1.73-.78-2.4-.3l-4.05 2.7c-.19.1-.28.2-.57.38-.96-.57-1.93-.96-2.89-1.25 0-.19-.1-.48-.1-.57l-.96-4.81a1.94 1.94 0 00-1.82-1.54h-3.18c-.87 0-1.73.67-1.92 1.54l-.97 4.71c-.1.2-.1.39-.1.58-.95.29-2.01.67-2.97 1.15a2 2 0 00-.58-.38l-4.04-2.8a2.03 2.03 0 00-2.4.2l-2.22 2.12a1.95 1.95 0 00-.29 2.4l2.7 4.04c.1.2.19.3.38.58-.58.96-.96 1.92-1.25 2.88-.2 0-.48.1-.58.1l-4.8.96c-.87.2-1.55.97-1.55 1.83l-.1 3.18c0 .86.68 1.73 1.55 1.92l4.71.96c.2.1.38.1.58.1.29.96.67 2.02 1.15 2.98-.19.2-.29.39-.38.58l-2.8 4.04c-.19.29-.28.67-.28 1.06 0 .57.2.96.58 1.34l2.2 2.22c.59.57 1.74.77 2.41.29l4.04-2.7c.2-.1.3-.2.58-.38.96.57 1.93.96 2.89 1.25 0 .19.1.48.1.57l.96 4.81c.19.87.96 1.54 1.82 1.54l3.18.1c.86 0 1.73-.67 1.92-1.54zm-5.1-.1c-.2 0-.3-.19-.3-.28l-.96-4.81c0-.2-.1-.39-.1-.58l-.19-.96-.96-.3c-.96-.28-1.82-.67-2.6-1.15l-.86-.48-.87.58c-.19.2-.29.2-.48.29l-4.04 2.7c-.1.09-.38 0-.48-.1l-2.21-2.22-.1-.19c0-.1 0-.2.1-.2l2.79-4.03c.1-.2.19-.3.29-.48l.57-.77-.48-.96c-.48-.87-.77-1.74-1.05-2.7l-.3-.96-.96-.2c-.19 0-.38-.09-.57-.09l-4.72-.96c-.19 0-.29-.2-.29-.29v-3.17c0-.2.2-.3.3-.3l4.8-.95c.2 0 .39-.1.58-.1l.96-.2.3-.96c.28-.96.66-1.82 1.14-2.6l.49-.86-.58-.87c-.2-.19-.2-.28-.29-.48l-2.7-4.04v-.19c0-.2.1-.2.1-.2l2.22-2.2c.1-.1.28-.1.48 0l4.04 2.79c.19.1.29.19.48.28l.77.58.96-.48c.87-.48 1.73-.77 2.7-1.06l.96-.29.19-.96c0-.2.1-.38.1-.57l.96-4.72c0-.2.19-.29.28-.29h3.18c.2 0 .29.2.29.3l.96 4.7c0 .2.1.39.1.58l.19.96.96.3c.96.28 1.83.67 2.6 1.15l.86.48.87-.58c.2-.2.29-.2.48-.29l4.04-2.7c.1-.09.39 0 .48.1l2.22 2.22.1.19c0 .1 0 .2-.1.2l-2.8 4.03c-.1.2-.19.3-.28.48l-.58.77.48.97c.48.86.77 1.73 1.06 2.69l.29.96.96.2c.2 0 .38.09.58.09l4.71.96c.2 0 .29.2.29.29v3.18c0 .19-.2.28-.29.28l-4.81.97c-.2 0-.38.1-.58.1l-.96.18-.29.97c-.29.96-.67 1.82-1.15 2.6l-.48.86.57.87c.2.19.2.28.3.48l2.69 4.04v.19c0 .2-.1.2-.1.2l-2.21 2.2c-.1.1-.3.1-.48 0l-4.04-2.79c-.2-.1-.3-.19-.49-.28l-.76-.58-.97.48c-.86.48-1.73.77-2.69 1.06l-.96.29-.2.96c0 .2-.1.38-.1.57l-.95 4.72c0 .1-.2.29-.3.29l-3.17.1zm9.8-25.68a9.61 9.61 0 00-13.27-2.8 9.61 9.61 0 00-2.79 13.28 9.61 9.61 0 0013.28 2.8 9.46 9.46 0 002.79-13.28zm-14.71 9.71a8.23 8.23 0 012.4-11.35 8.23 8.23 0 0111.35 2.4 8.23 8.23 0 01-2.4 11.36 8.12 8.12 0 01-11.35-2.4z" opacity=".15"/>
  <path fill="#1274CC" d="M654.42 148.7a4.71 4.71 0 10-6.94-6.38 4.71 4.71 0 006.94 6.37z"/>
  <path stroke="#1274CC" stroke-linecap="round" stroke-linejoin="round" stroke-miterlimit="10" stroke-width="1.58" d="M659.08 147.23c-.29-.3-.77-1.06-1.63-1.45a4.44 4.44 0 00-2.5-.38M654.17 137.6c.2.3.3 1.16.3 2.22a4.58 4.58 0 01-1.16 2.3"/>
  <path fill="#76BBF4" stroke="#1274CC" stroke-miterlimit="10" stroke-width="1.58" d="M643.4 162.52c.39.48 1.06.77 1.73.48 2.99-.96 5.1-3.17 6.55-6.73 1.44-3.56 1.54-6.73.1-9.43l-.1-.1c-.39-.67-1.25-.86-1.83-.67-2.98.97-5.1 3.18-6.54 6.74-1.45 3.56-1.54 6.73 0 9.43 0 .19.1.28.1.28z"/>
  <path fill="#0B67B9" d="M649.17 156.37a.96.96 0 100-1.93.96.96 0 000 1.93zM645.9 158.96a1.35 1.35 0 100-2.69 1.35 1.35 0 000 2.7zM648.88 152.8a1.54 1.54 0 100-3.07 1.54 1.54 0 000 3.08zM641.95 142.32a.96.96 0 100-1.92.96.96 0 000 1.92zM645.12 145.69a1.54 1.54 0 100-3.08 1.54 1.54 0 000 3.08z"/>
  <path stroke="#2387DE" stroke-linecap="round" stroke-linejoin="round" stroke-miterlimit="10" stroke-width="2" d="M579.99 418.23l1.15 3.27M574.5 417.94v3.56M562.76 418.23l-1.05 3.27M568.34 417.94v3.56"/>
  <path fill="#2387DE" d="M576.23 411.5h5.58c3.08 0 5.48 2.5 5.48 5.48v1.15c0 .58-.48 1.16-1.15 1.16h-10s-.1 0-.1-.1l.19-7.7s-.1 0 0 0z"/>
  <path fill="#76BBF4" d="M559.96 418.52c-.1 0-.19-.1-.19-.3 0-6.44 4.9-11.73 10.87-11.73h.96c3.56 0 7.02 2.02 8.95 5.2v6.83h-20.59z"/>
  <path fill="#2387DE" d="M571.6 407.26a9.82 9.82 0 018.18 4.72v5.86h-19.24c.2-5.86 4.71-10.48 10.1-10.48h.96v-.1zm0-1.54h-.96c-6.44 0-11.64 5.58-11.64 12.5 0 .58.48 1.07.96 1.07h21.36v-7.8a11.37 11.37 0 00-9.72-5.77z"/>
  <path fill="#1C85D3" d="M570.56 412.36a1.73 1.73 0 100-3.46 1.73 1.73 0 000 3.46zM565.95 416.79a2.12 2.12 0 100-4.24 2.12 2.12 0 000 4.24zM575.66 416.11a2.21 2.21 0 100-4.42 2.21 2.21 0 000 4.42z"/>
  <path stroke="#2387DE" stroke-linecap="round" stroke-linejoin="round" stroke-miterlimit="10" stroke-width="2" d="M586.53 408.22c-.39.2-1.35.68-2.02 1.64a5.53 5.53 0 00-.96 2.79M589.8 410.92c-.49 0-1.45.19-2.5.86a5.82 5.82 0 00-1.93 2.22"/>
</svg>
