<svg xmlns="http://www.w3.org/2000/svg" width="48" height="48" fill="none" viewBox="0 0 48 48">
  <path fill="#D2EAFC" stroke="#1274CC" stroke-width="1.6" d="M23.99.8V0v.8a23.17 23.17 0 017.41 45.14c-.39.07-.51-.03-.54-.06-.05-.05-.1-.15-.1-.31v-1.32-1.06c.02-1.14.02-2.6.02-4.2s-.37-2.88-.93-3.84c2.29-.37 4.61-1.1 6.48-2.67 2.29-1.92 3.75-4.98 3.74-9.75.03-2.42-.8-4.77-2.35-6.61a9.66 9.66 0 00-.4-6.47l-.15-.35-.36-.12-.24.76.24-.76h0-.03a1.39 1.39 0 00-.17-.04 5.56 5.56 0 00-1.79.1c-1.14.23-2.79.85-4.99 2.3a23.46 23.46 0 00-11.7 0 15.05 15.05 0 00-5-2.31 5.54 5.54 0 00-1.78-.1 1.9 1.9 0 00-.17.04h-.01l-.01.01h0l.24.76-.25-.76-.36.12-.14.35a9.66 9.66 0 00-.4 6.46 10.07 10.07 0 00-2.35 6.62c0 4.76 1.46 7.82 3.75 9.75 1.86 1.57 4.2 2.32 6.5 2.7a5.94 5.94 0 00-.77 2.05c-.64.23-1.51.45-2.41.37-1.06-.1-2.23-.6-3.16-2.2h0l-.02-.03a4.17 4.17 0 00-.26-.4 6.74 6.74 0 00-.8-.92 5.2 5.2 0 00-3.23-1.52h-.04l-.02.8.02-.8h0-.05a3.63 3.63 0 00-.38.02c-.2.02-.57.07-.88.25-.16.09-.38.26-.51.54-.14.32-.1.63 0 .9.2.43.63.82 1.18 1.2l.06.04.06.03h.02l.13.1c.13.08.32.22.55.45a7.2 7.2 0 011.63 2.72c.07.15.16.36.3.6.27.48.71 1.1 1.4 1.67 1.26 1.05 3.26 1.84 6.26 1.4.02 1.5.02 2.57.02 3.12v0c0 .17-.06.27-.1.31-.03.03-.16.13-.54.07A23.17 23.17 0 0123.99.8z"/>
</svg>
