<svg xmlns="http://www.w3.org/2000/svg" width="48" height="48" fill="none" viewBox="0 0 48 48">
  <path fill="#1274CC" d="M29.2 38H18.8c-.44 0-.8.45-.8 1s.36 1 .8 1h10.4c.44 0 .8-.45.8-1s-.36-1-.8-1zM30 43c0-.55-.36-1-.8-1H18.8c-.44 0-.8.45-.8 1s.36 1 .8 1h10.4c.44 0 .8-.45.8-1zM29 47c0-.55-.4-1-.9-1h-8.2c-.5 0-.9.45-.9 1s.4 1 .9 1h8.2c.5 0 .9-.45.9-1z"/>
  <path fill="#469FEB" d="M25 1a1 1 0 10-2 0v3a1 1 0 102 0V1zM8 21a1 1 0 100-2H5a1 1 0 100 2h3zM43 21a1 1 0 100-2h-3a1 1 0 100 2h3zM11.98 9.4a1 1 0 101.41-1.42l-2.12-2.12a1 1 0 00-1.41 1.41l2.12 2.12zM36.73 34.14a1 1 0 001.41-1.41l-2.12-2.12a1 1 0 00-1.41 1.41l2.12 2.12zM13.4 32.02a1 1 0 00-1.42-1.41l-2.12 2.12a1 1 0 001.41 1.41l2.12-2.12zM38.14 7.27a1 1 0 10-1.41-1.41L34.6 7.98a1 1 0 001.41 1.41l2.12-2.12z"/>
  <mask id="a" fill="#fff">
    <path fill-rule="evenodd" d="M30 31.7c4.73-2.17 8-6.81 8-12.2C38 12.04 31.73 6 24 6s-14 6.04-14 13.5c0 5.39 3.27 10.03 8 12.2V35a1 1 0 001 1h10a1 1 0 001-1v-3.3z" clip-rule="evenodd"/>
  </mask>
  <path fill="#1274CC" d="M30 31.7l-.83-1.82-1.17.54v1.28h2zm-12 0h2v-1.28l-1.17-.54L18 31.7zm18-12.2c0 4.54-2.76 8.52-6.83 10.38l1.66 3.64A15.48 15.48 0 0040 19.5h-4zM24 8c6.7 0 12 5.22 12 11.5h4C40 10.87 32.77 4 24 4v4zM12 19.5C12 13.22 17.3 8 24 8V4C15.23 4 8 10.87 8 19.5h4zm6.83 10.38A11.48 11.48 0 0112 19.5H8c0 6.23 3.78 11.55 9.17 14.02l1.66-3.64zM20 35v-3.3h-4V35h4zm-1-1a1 1 0 011 1h-4a3 3 0 003 3v-4zm10 0H19v4h10v-4zm-1 1a1 1 0 011-1v4a3 3 0 003-3h-4zm0-3.3V35h4v-3.3h-4z" mask="url(#a)"/>
</svg>
