<svg xmlns="http://www.w3.org/2000/svg" width="199" height="40" fill="none"><path fill="#172535" d="M38.767 26.667l-2.154 2.222h8.615l8.615 7.777H8.615l8.615-7.777h6.46l-2.153-2.222h-6.461L0 40h62.456L47.382 26.667h-8.615z"/><path fill="#1274cc" d="M57.925 5.387L52.568 0l-22.5 22.63-8.571-8.621-5.357 5.388 13.928 14.008L57.925 5.387zm29.093 5.886H68.197v4.15h7.066v19.665h4.723V15.423h7.031v-4.15zM98.732 21.056a5.658 5.658 0 00-1.545-2.156 5.89 5.89 0 00-2.197-1.148 9.345 9.345 0 00-2.54-.348c-2.61 0-4.635.765-6.077 2.296-1.442 1.53-2.163 3.826-2.163 6.888 0 2.853.641 5.097 1.923 6.732 1.281 1.635 3.307 2.452 6.076 2.452a12.105 12.105 0 003.76-.574 8.69 8.69 0 002.797-1.409l-1.471-2.957a7.194 7.194 0 01-4.208 1.322c-1.505 0-2.594-.37-3.267-1.113a5.15 5.15 0 01-1.112-3.305h10.265c.114-.603.2-1.183.256-1.74.055-.52.084-1.042.086-1.565a8.566 8.566 0 00-.583-3.375zm-3.57 3.862H88.81a5.308 5.308 0 011.006-2.835c.322-.37.722-.658 1.17-.842.446-.184.929-.259 1.409-.22.42-.034.84.04 1.225.217.385.176.72.448.977.793a4.45 4.45 0 01.563 2.887zm16.855 1.096a8.214 8.214 0 00-1.888-.991c-.687-.256-1.316-.493-1.889-.714a7.607 7.607 0 01-1.441-.713 1.138 1.138 0 01-.426-.422 1.18 1.18 0 01-.158-.587c0-1.043.664-1.565 1.991-1.565.824 0 1.644.117 2.438.348.8.232 1.464.452 1.991.66l.995-3.27a10.154 10.154 0 00-2.472-.939 13.839 13.839 0 00-3.535-.417 6.31 6.31 0 00-4.36 1.356 4.936 4.936 0 00-1.185 1.79 5.085 5.085 0 00-.326 2.142 4.996 4.996 0 00.584 2.557 5.49 5.49 0 001.442 1.635 7.042 7.042 0 001.888 1.009c.686.243 1.316.48 1.888.713.507.197.991.454 1.442.765.181.119.33.283.433.478.102.195.154.414.15.635.022.25-.022.503-.128.73-.106.226-.269.419-.472.558a2.94 2.94 0 01-1.597.382 8.393 8.393 0 01-2.677-.435 11.758 11.758 0 01-2.094-.887l-1.236 3.375c.813.482 1.684.85 2.592 1.096 1.111.32 2.261.478 3.415.47 2.22 0 3.885-.505 4.995-1.514a5.256 5.256 0 001.286-1.886 5.401 5.401 0 00.379-2.271 4.823 4.823 0 00-.584-2.505 5.18 5.18 0 00-1.441-1.583zm13.095 5.619c-.387.1-.785.146-1.184.139a1.323 1.323 0 01-.797-.172 1.38 1.38 0 01-.559-.611 6.686 6.686 0 01-.36-2.592v-6.68h4.188v-3.826h-4.188v-4.558l-4.463 1.287v3.27h-2.369v3.828h2.369v8.766c0 1.879.372 3.23 1.116 4.053a4.524 4.524 0 001.615.997c.6.213 1.237.294 1.869.238.844 0 1.686-.105 2.506-.313.744-.18 1.468-.436 2.163-.765l-.79-3.479a7.9 7.9 0 01-1.116.418z"/><path fill="#172535" d="M136.037 18.41a10.625 10.625 0 012.269-2.985 8.102 8.102 0 012.747-1.644 8.774 8.774 0 012.867-.503 9.965 9.965 0 014.551.805l1.132-2.483a9.567 9.567 0 00-2.122-.587 20.298 20.298 0 00-3.32-.218 12.03 12.03 0 00-3.891.671 11.718 11.718 0 00-3.725 2.13 13.706 13.706 0 00-3.076 3.758 17.296 17.296 0 00-1.915 5.586 15.63 15.63 0 00-.159 5.451 8.518 8.518 0 001.547 3.774 6.9 6.9 0 002.895 2.198c1.244.495 2.575.74 3.915.721a18.73 18.73 0 003.413-.302 7.483 7.483 0 002.798-1.073l-.292-2.181c-.658.341-1.355.6-2.076.772-.899.212-1.821.313-2.745.302a7.417 7.417 0 01-3.062-.604 5.373 5.373 0 01-2.21-1.812 7.05 7.05 0 01-1.153-3.02 12.715 12.715 0 01.145-4.226 15.463 15.463 0 011.467-4.53zm26.757.923a3.081 3.081 0 00-1.424-1.224 6.654 6.654 0 00-2.778-.47 18.279 18.279 0 00-3.682.369c-1.13.222-2.221.606-3.239 1.14l.488 2.047c.388-.198.79-.366 1.204-.5.461-.152.93-.28 1.405-.38a16.91 16.91 0 011.415-.241c.42-.056.843-.084 1.267-.087 1.325 0 2.194.246 2.608.738.414.492.511 1.354.289 2.584a19.34 19.34 0 01-.429 1.811 6.55 6.55 0 00-.93-.067h-.943a22.586 22.586 0 00-3.49.252c-.978.14-1.929.422-2.825.838a5.73 5.73 0 00-2.014 1.577 5.386 5.386 0 00-1.062 2.466 4.483 4.483 0 00.038 1.98c.144.555.422 1.068.811 1.492.403.428.901.756 1.455.956a5.547 5.547 0 001.98.336 7.926 7.926 0 001.996-.235 8.494 8.494 0 001.613-.587c.45-.218.873-.488 1.259-.805.34-.28.653-.588.937-.923h.172l.297 2.349h2.022a10.367 10.367 0 01-.009-2.047c.064-.738.171-1.52.321-2.348.205-1.14.457-2.349.755-3.623.298-1.275.569-2.584.81-3.926a8.733 8.733 0 00.138-1.811 3.498 3.498 0 00-.455-1.66zm-3.746 10.618a4.872 4.872 0 01-.694.906c-.316.33-.674.617-1.063.855a6.14 6.14 0 01-1.418.638 5.83 5.83 0 01-1.758.252 2.714 2.714 0 01-2.058-.755 2.097 2.097 0 01-.51-1.93 2.535 2.535 0 01.714-1.392c.398-.383.872-.68 1.391-.872a7.568 7.568 0 011.86-.436 18.586 18.586 0 012.096-.117 28.63 28.63 0 011.941.067l-.501 2.784zm12.781-12.044l.085-.47c.12-.67.243-1.258.368-1.76a4.58 4.58 0 01.504-1.275 2.05 2.05 0 01.862-.789 3.268 3.268 0 011.436-.268 8.94 8.94 0 011.301.1c.49.078.966.225 1.413.437l1.022-2.248a7.248 7.248 0 00-1.675-.504 11.965 11.965 0 00-1.912-.134 7.052 7.052 0 00-2.36.353 4.469 4.469 0 00-1.702 1.073 5.622 5.622 0 00-1.175 1.862 13.58 13.58 0 00-.74 2.684l-.169.94h-2.673l-.424 2.348h2.674l-2.599 14.425h2.742l2.599-14.425h4.559l.423-2.349h-4.559zm19.032 2.802a3.963 3.963 0 00-1.148-1.997 4.257 4.257 0 00-1.919-.956 10.39 10.39 0 00-2.285-.251 8.351 8.351 0 00-5.992 2.248c-1.572 1.498-2.616 3.679-3.132 6.541a13.304 13.304 0 00-.207 3.624c.073.977.371 1.924.872 2.767a4.65 4.65 0 002.045 1.778 7.731 7.731 0 003.282.621 12.296 12.296 0 003.392-.47 9.613 9.613 0 002.817-1.274l-.678-1.946a6.198 6.198 0 01-1.917.94 7.755 7.755 0 01-2.403.402 6.28 6.28 0 01-2.478-.42 3.225 3.225 0 01-1.479-1.207 4.197 4.197 0 01-.613-1.93 9.901 9.901 0 01.163-2.616h11.003c.273-.8.489-1.619.647-2.45a7.98 7.98 0 00.03-3.404zm-2.764 3.74h-8.5a6.344 6.344 0 012.097-3.556 5.596 5.596 0 013.426-1.04 3.155 3.155 0 012.627 1.023c.539.683.656 1.874.35 3.573zm2.347-13.218l.126-.705h-3.05l-2.923 5h1.611l4.236-4.295zm6.097 8.145l-.256-.126a.795.795 0 00.462-.17.529.529 0 00.187-.438.572.572 0 00-.274-.541 1.309 1.309 0 00-.658-.157c-.159 0-.326.008-.503.023a2.067 2.067 0 00-.411.067v2.317h.475v-1.065l.439.134.658.93h.557l-.676-.974zm-.667-.358h-.311v-.635a.379.379 0 01.146-.032 4.18 4.18 0 01.192-.004c.353 0 .53.104.53.313a.287.287 0 01-.146.277.863.863 0 01-.411.08z"/><path fill="#172535" d="M198.406 18.246a2.157 2.157 0 00-1.307-1.242 2.804 2.804 0 00-.959-.162 2.742 2.742 0 00-.945.162 2.196 2.196 0 00-1.316 1.242 2.665 2.665 0 00-.194 1.052c-.007.36.058.718.19 1.052a2.167 2.167 0 001.302 1.242c.309.11.635.165.963.162.322.002.642-.053.946-.162.289-.104.555-.264.783-.473.23-.214.412-.476.532-.769.135-.333.202-.691.195-1.052a2.72 2.72 0 00-.19-1.052zm-.537 1.9a1.657 1.657 0 01-.394.593c-.171.16-.373.28-.593.353-.24.079-.49.118-.742.116-.246 0-.49-.04-.722-.121a1.686 1.686 0 01-.598-.357 1.655 1.655 0 01-.403-.593 2.184 2.184 0 01-.149-.839c-.006-.286.042-.57.139-.838.085-.226.218-.428.39-.594a1.65 1.65 0 01.593-.357 2.25 2.25 0 01.75-.12c.248-.002.494.039.728.12.219.077.421.199.593.357.175.166.313.368.403.593.104.267.154.552.148.84a2.27 2.27 0 01-.143.847z"/></svg>