<svg xmlns="http://www.w3.org/2000/svg" width="400" height="273" fill="none" viewBox="0 0 400 273"><path fill="#27303F" fill-rule="evenodd" d="M70 25.98V23h2.95v2H72v.98h-2zM84.76 23h-5.9v2h5.9v-2zm5.9 0v2h5.91v-2h-5.9zm11.82 0v2h5.9v-2h-5.9zm11.8 0v2h5.91v-2h-5.9zm11.81 0v2H132v-2h-5.9zm11.81 0v2h5.91v-2h-5.9zm11.81 0v2h5.9v-2h-5.9zm11.81 0v2h5.9v-2h-5.9zm11.81 0v2h5.9v-2h-5.9zm11.81 0v2h5.9v-2h-5.9zm11.81 0v2h5.9v-2h-5.9zm11.81 0v2h5.9v-2h-5.9zm11.81 0v2h5.9v-2h-5.9zm11.81 0v2h5.9v-2h-5.9zm11.81 0v2h5.9v-2h-5.9zM256 23v2h5.9v-2H256zm11.81 0v2h5.9v-2h-5.9zm11.8 0v2h5.91v-2h-5.9zm11.82 0v2h5.9v-2h-5.9zm11.8 0v2h5.91v-2h-5.9zm11.82 0v2h.95v.98h2V23h-2.95zm2.95 8.93h-2v5.95h2v-5.95zm0 11.9h-2v5.96h2v-5.96zm0 11.9h-2v5.96h2v-5.95zm0 11.91h-2v5.96h2v-5.96zm0 11.9h-2v5.96h2v-5.95zm0 11.91h-2v5.95h2v-5.95zm0 11.9h-2v5.96h2v-5.95zm0 11.91h-2v5.95h2v-5.95zm0 11.9h-2v5.96h2v-5.95zm0 11.91h-2v5.95h2v-5.95zm0 11.9h-2v5.96h2v-5.95zm0 11.91h-2v5.95h2v-5.95zm0 11.9h-2v5.96h2v-5.95zm0 11.91h-2v5.95h2v-5.95zm0 11.9h-2v5.96h2v-5.96zm0 11.91h-2v5.95h2v-5.95zm0 11.9h-2v5.96h2v-5.96zm0 11.91h-2v5.95h2v-5.95zm0 11.9h-2v5.96h2v-5.96zm0 11.9h-2v5.96h2v-5.95zm0 11.91h-2v.98h-.95v2H318v-2.98zm-8.86 2.98v-2h-5.9v2h5.9zm-11.8 0v-2h-5.91v2h5.9zm-11.82 0v-2h-5.9v2h5.9zm-11.8 0v-2h-5.91v2h5.9zm-11.82 0v-2H256v2h5.9zm-11.8 0v-2h-5.91v2h5.9zm-11.81 0v-2h-5.9v2h5.9zm-11.81 0v-2h-5.9v2h5.9zm-11.81 0v-2h-5.9v2h5.9zm-11.81 0v-2h-5.9v2h5.9zm-11.81 0v-2h-5.9v2h5.9zm-11.81 0v-2h-5.9v2h5.9zm-11.81 0v-2h-5.9v2h5.9zm-11.81 0v-2h-5.9v2h5.9zm-11.81 0v-2h-5.9v2h5.9zM132 273v-2h-5.9v2h5.9zm-11.81 0v-2h-5.9v2h5.9zm-11.8 0v-2h-5.91v2h5.9zm-11.82 0v-2h-5.9v2h5.9zm-11.8 0v-2h-5.91v2h5.9zm-11.82 0v-2H72v-.98h-2V273h2.95zM70 264.07h2v-5.95h-2v5.95zm0-11.9h2v-5.96h-2v5.96zm0-11.9h2v-5.96h-2v5.95zm0-11.91h2v-5.96h-2v5.96zm0-11.9h2v-5.96h-2v5.95zm0-11.91h2v-5.96h-2v5.96zm0-11.9h2v-5.96h-2v5.95zm0-11.91h2v-5.95h-2v5.95zm0-11.9h2v-5.96h-2v5.95zm0-11.91h2v-5.95h-2v5.95zm0-11.9h2v-5.96h-2v5.95zm0-11.91h2v-5.95h-2v5.95zm0-11.9h2v-5.96h-2v5.95zm0-11.91h2v-5.95h-2v5.95zm0-11.9h2v-5.96h-2v5.95zm0-11.91h2v-5.95h-2v5.95zm0-11.9h2v-5.96h-2v5.96zm0-11.9h2v-5.96h-2v5.95zm0-11.91h2v-5.96h-2v5.96zm0-11.9h2v-5.96h-2v5.95z" clip-rule="evenodd"/><rect width="176" height="129" x="106" y="91" fill="#E2E8F0" rx="4"/><path fill="#CFD8E3" d="M175 220h37v20h-37z"/><circle cx="193.5" cy="205.5" r="5.5" fill="#F4F5F7"/><path fill="#FACA15" d="M114 99h158v92H114z"/><g fill="#fff" opacity=".3"><path d="M126 111h134v19H126zM126 166h134v13H126zM126 134h42v28h-42zM173 134h42v28h-42zM219 134h41v28h-41z"/></g><path fill="#CFD8E3" d="M166 240h55v3h-55z"/><rect width="138" height="98" x="249" y="150" fill="#E2E8F0" rx="7"/><rect width="122" height="82" x="257" y="158" fill="#76BBF4" rx="1"/><g fill="#fff" opacity=".3"><path d="M269 170h98v19h-98zM269 215h98v13h-98zM269 193h27v18h-27zM304 193h28v18h-28zM340 193h27v18h-27z"/></g><path fill="#CFD8E3" d="M237 248h163v1a7 7 0 01-7 7H244a7 7 0 01-7-7v-1z"/><rect width="140" height="96" y="160" fill="#E2E8F0" rx="7"/><path fill="#76BBF4" d="M7 167h122v82H7z"/><g fill="#fff" opacity=".3"><path d="M19 179h98v19H19zM19 224h98v13H19zM19 202h27v18H19zM54 202h28v18H54zM90 202h27v18H90z"/></g><circle cx="134.5" cy="208.5" r="3.5" fill="#F4F5F7"/><path fill="#fff" stroke="#27303F" stroke-width="2" d="M27 132h18v18H27v-18z"/><path fill="#27303F" d="M31 137.41L32.4 136l8.49 8.48-1.42 1.42z"/><path fill="#27303F" d="M39.49 136l1.41 1.42-8.48 8.48L31 144.5z"/><path fill="#fff" d="M307 90h20v20h-20V90z"/><path fill="#27303F" fill-rule="evenodd" d="M325 92h-16v16h16V92zm-18-2v20h20V90h-20z" clip-rule="evenodd"/><path fill="#27303F" d="M312 96.41L313.4 95l8.49 8.48-1.42 1.42z"/><path fill="#27303F" d="M320.49 95l1.41 1.42-8.48 8.48-1.42-1.41z"/><path fill="#fff" d="M252 65h20v20h-20V65z"/><path fill="#27303F" fill-rule="evenodd" d="M270 67h-16v16h16V67zm-18-2v20h20V65h-20z" clip-rule="evenodd"/><path fill="#27303F" d="M257 71.41L258.4 70l8.49 8.48-1.42 1.42z"/><path fill="#27303F" d="M265.49 70l1.41 1.42-8.48 8.48L257 78.5z"/><path fill="#fff" d="M26 108h20v20H26v-20z"/><path fill="#27303F" fill-rule="evenodd" d="M44 110H28v16h16v-16zm-18-2v20h20v-20H26z" clip-rule="evenodd"/><path fill="#27303F" d="M32.34 117.62l3.98 3.97-1.42 1.42-3.97-3.98z"/><path fill="#27303F" d="M40.56 114.53l1.41 1.41-7.07 7.07-1.41-1.41z"/><path fill="#CFD8E3" d="M26 63h28v35H26z"/><path fill="#27303F" fill-rule="evenodd" d="M59 58H21v45h26.17L59 91.17V58zm2 34l-13 13H19V56h42v36z" clip-rule="evenodd"/><path fill="#27303F" d="M12 49h2v49h-2zM14 49h40v2H14z"/><path fill="#27303F" stroke="#27303F" stroke-width="2" d="M48 92h10.59L48 102.59V92z"/><path fill="#27303F" d="M29 69h4v2h-4zM29 73h4v2h-4zM29 77h4v2h-4zM29 81h4v2h-4zM29 85h4v2h-4zM29 89h4v2h-4zM35 69h10v2H35zM35 73h16v2H35zM35 77h7v2h-7zM35 81h13v2H35zM35 85h6v2h-6zM35 89h10v2H35zM358.34 32.62l3.98 3.97-1.42 1.42-3.97-3.98z"/><path fill="#27303F" d="M366.56 29.53l1.41 1.41-7.07 7.07-1.41-1.41zM385 25h2v43h-2zM354 23h33v2h-33zM357 43h4v2h-4zM357 47h4v2h-4zM357 51h4v2h-4zM357 55h4v2h-4zM357 59h4v2h-4zM363 43h10v2h-10zM363 47h16v2h-16zM363 51h7v2h-7zM363 55h13v2h-13zM363 59h6v2h-6z"/><path fill="#fff" d="M213 0h42v36l-13 13h-29V0z"/><path fill="#27303F" fill-rule="evenodd" d="M253 2h-38v45h26.17L253 35.17V2zm2 34l-13 13h-29V0h42v36z" clip-rule="evenodd"/><path fill="#B3DAFA" d="M220 7h28v35h-28z"/><path fill="#27303F" stroke="#27303F" stroke-width="2" d="M242 36h10.59L242 46.59V36z"/><path fill="#1274CC" d="M223 13h4v2h-4zM223 17h4v2h-4zM223 21h4v2h-4zM223 25h4v2h-4zM223 29h4v2h-4zM223 33h4v2h-4zM229 13h10v2h-10zM229 17h16v2h-16zM229 21h7v2h-7zM229 25h13v2h-13zM229 29h6v2h-6zM229 33h10v2h-10z"/><path fill="#27303F" d="M213 71h10v2h-10zM226 71h21v2h-21zM213 77h34v2h-34z"/><path fill="#fff" d="M116 36h20v20h-20V36z"/><path fill="#27303F" fill-rule="evenodd" d="M134 38h-16v16h16V38zm-18-2v20h20V36h-20z" clip-rule="evenodd"/><path fill="#27303F" d="M122.34 45.62l3.98 3.97-1.42 1.42-3.97-3.98z"/><path fill="#27303F" d="M130.56 42.53l1.41 1.41-7.07 7.07-1.41-1.41z"/><path fill="#fff" d="M307 120h20v20h-20v-20z"/><path fill="#27303F" fill-rule="evenodd" d="M325 122h-16v16h16v-16zm-18-2v20h20v-20h-20z" clip-rule="evenodd"/><path fill="#27303F" d="M313.34 129.62l3.98 3.97-1.42 1.42-3.97-3.98z"/><path fill="#27303F" d="M321.56 126.53l1.41 1.41-7.07 7.07-1.41-1.41z"/><path fill="#fff" d="M116 59h20v20h-20V59z"/><path fill="#27303F" fill-rule="evenodd" d="M134 61h-16v16h16V61zm-18-2v20h20V59h-20z" clip-rule="evenodd"/><path fill="#27303F" d="M122.34 68.62l3.98 3.97-1.42 1.42-3.97-3.98z"/><path fill="#27303F" d="M130.56 65.53l1.41 1.41-7.07 7.07-1.41-1.41zM141 42h31v2h-31zM141 48h24v2h-24zM141 65h31v2h-31zM141 71h24v2h-24zM174 42h10v2h-10zM167 48h17v2h-17zM174 65h10v2h-10zM167 71h17v2h-17z"/></svg>